<mxfile host="app.diagrams.net" agent="Mozilla/5.0 (Windows NT 10.0; Win64; x64) AppleWebKit/537.36 (KHTML, like Gecko) Chrome/133.0.0.0 Safari/537.36 Edg/133.0.0.0" version="26.0.16">
  <diagram name="第 1 页" id="o32wK9qW-coIizWMnBYc">
    <mxGraphModel dx="2560" dy="896" grid="1" gridSize="10" guides="1" tooltips="1" connect="1" arrows="1" fold="1" page="1" pageScale="1" pageWidth="827" pageHeight="1169" math="0" shadow="0">
      <root>
        <mxCell id="0" />
        <mxCell id="1" parent="0" />
        <mxCell id="QZQTw5gR4J6DBzHuBtWQ-20" value="" style="ellipse;whiteSpace=wrap;html=1;aspect=fixed;" vertex="1" parent="1">
          <mxGeometry x="90" y="325.85" width="20" height="20" as="geometry" />
        </mxCell>
        <mxCell id="2nExCKT8CJOp1_6VZ-We-57" value="&lt;font style=&quot;font-size: 16px;&quot;&gt;bad image&lt;/font&gt;" style="text;strokeColor=none;align=center;fillColor=none;html=1;verticalAlign=middle;whiteSpace=wrap;rounded=0;" parent="1" vertex="1">
          <mxGeometry x="-553" y="386.48" width="93" height="30" as="geometry" />
        </mxCell>
        <mxCell id="2nExCKT8CJOp1_6VZ-We-58" value="&lt;font style=&quot;font-size: 16px;&quot;&gt;depth image&lt;/font&gt;" style="text;strokeColor=none;align=center;fillColor=none;html=1;verticalAlign=middle;whiteSpace=wrap;rounded=0;" parent="1" vertex="1">
          <mxGeometry x="-340" y="165" width="93" height="30" as="geometry" />
        </mxCell>
        <mxCell id="8FrGyr1hVULWBLC01PGw-3" value="" style="rounded=1;whiteSpace=wrap;html=1;fillColor=#fff2cc;strokeColor=#d6b656;" parent="1" vertex="1">
          <mxGeometry x="230" y="300.85" width="70" height="70" as="geometry" />
        </mxCell>
        <mxCell id="sbtfXTjn3Sah2cUlEJGa-5" value="" style="rounded=1;whiteSpace=wrap;html=1;fillColor=#dae8fc;strokeColor=#6c8ebf;" parent="1" vertex="1">
          <mxGeometry x="250" y="320.68" width="70" height="70" as="geometry" />
        </mxCell>
        <mxCell id="QZQTw5gR4J6DBzHuBtWQ-1" value="" style="shape=image;verticalLabelPosition=bottom;labelBackgroundColor=default;verticalAlign=top;imageAspect=0;image=data:image/png,iVBORw0KGgoAAAANSUhEUgAAAgAAAAIACAIAAAB7GkOtAADCuElEQVR4nO29WZccOZIe6nAPj33NfWGSmSSTtXV3VU31aNQz0j3SkfTP9aqnkWbv6unqLlaxuOeekRkR9wGTaCQWg8EAeHiQtIc4HnCDwQAHPjMY4HCW1YMYY2Q2fCKmIJ0ByKLcQmoSUgSBB9m2SGaaqpXdCukMzqeJedxkfQDhvoo5dQsfR3FpsVgEMgTyf3jEW8D4+Pit2Wx2e3tbxdPFU0R0JkMqXiB5HFZsAJBCMJyxmi7RrRCrEAtko9TIhv6+OpP1IbAFEgzZBED/ZAMAWtxRvmxN/Aj/UAHOWD0DIwdZ1qfOmo6W6NgiCe/7B0qmUTWdM/oTqdUjriExxoqiqFcb0bzdWoUXYvEgb2EYYoWAyKXUapaGzx4SaSF3IS9jQJgQ4LUi8ATSBxkIAkIx4WKdJJcrZxHpq2cAbGzp5uNeRYTEfAhAiWTAs4WUlahJ46aTHyKSjfas4VxeQB9xxlO9E/1hB4J0ZbxaOKQutoJqEQJid4RkxosNUIpItY35RGmN6JOtdBS9n+hsEZ91CPAh5a86emYrG9URAXfjLbwcdp+8ctnu1sIA4KkygxlCdRs2taU6jOfobgctLzl6o9On7ifoU1M4O1KjGj2MVE1U0VYKcCuQjK5iyAhPp6ovLaU9Y1FIBMxYO7JA3xgOefXFiyeE/8OmpIZECKc9I5tuSGlLMwCfetgHRst6oEkD8YHl+kbnfS1BrOh/fQYjYywi2oZLq3IO4btcHEW3JRgAcm+DM9o8UIJnGigKw0Z42HUYpUvUISSmj0RGoJEDwzgYlcirvnge5N3lUkQbEC4nrkHCUKJdQzaqeg2gzj0PQ9VMBj8RmQI7mPERREd/ryJWy4UPp/qg/xKpMuUrnQGED87KOrqtrOjxfWS58K3KqA46CErRnWgyfTsAwcEH7hJ0rtVzFBTxPYBVfGNAIfIz8spVnQGoZ4dLoZVxEocvK2LMiiC2ntAQSEisj7IjKATcYYaIyxgh8TQChcOrl4QPAP0xpC8CEx7WKm0DJfdFwrEQgBtO0yGKtBXtqV6UYhEMifW0ff14yCYs0sp3Yx09Uhn6A/vfjcyEW4HMBP66EZOIkH2VDMAn+mipytCfk8c3vl8l1U2fmtOqo384VWcAaO8iKhJS5PV6Qy8wvk/OWyXF1TNkXw1NMobwzxcfY4G9MHwA0PY3RDeMhjROpxBk4DGwLLnQRMwfJFU9Awg3AyFFJ+KPzrmKb+3bFPBND2dGZo+yR5B8N26u5UqWaWEiZxbyXWPRXkoihS+FdPV0nQOrsALbur1y0cZkeDo+vItfe4yV7svjZCMo4JUlkDnkWeiJQMAHectWkO0WWeyyDBIZg6LE/dNtDVpF8n3KK7YGEHGjWH0o1tQk1iIhQSVnrijPJany9Sfahh9BdWuWKrvEJ7LRMkNgKVwS8hQh3EUlu6K0wHHqeQA5nO2718WrQfD8GDbfFMy18y9colEsvOyMH0chUSA5b+ptnbGCQuG5kKJqtZbgpcwyD4NbVPvSc2paJNhBT5CJyRLIk6KmdSAAW8kgS0N/W7mwPoSHUv00omLoTxGesjHXZFB4KVMLjaMv3Ed0nJcbjwbSybfwPKk9fYA/XI4TiEMY4kb/8WYAngrgSc8L4J1gTg2mEdG/DtsolmsPkKUvcwawFPL1XgO93WU5y7HmAR8q+Ro/GvoTFODp8q/+15YdCWEVP/SViPWnkL8S46sW+vk2U6DramMIj1OnmAGQbwXejatSeNv68sdy8IFbSPSHi1auOeV5XhRFfkc8kfNwqJrP5/JGRuXaqAZAGPffyekrGc+ZrlAaP5mqtAefZgDeFB7IC7H51fsLzvrWefoSkfD2JhD9nV5/nueNRqPVanU6nV6v1+v1ut1uu91uNpuNRmOxWMzn85ubm+l0enV1dXV1dX19fX19fXNH8/lcGAYh3LiXXLkGIkIh4Fh95MeLv/odRLYSU/R2JJp9mAYgLoLYptuYIoyPIWIYCn7M6ZDUJtlXk1j8MBvgg/vOP5DykaVw0G+1WqPRaG1tbWNjYzweDwaDTqfTbDZbrVZZlkVRFEXB+bkNmM1ms9ns9o5ms5mwAdw2XF5eCgvBf/nd29tbbiEykxmw1ajOWy3rEOsPp3RryE4E+DANgJO8kNHGbExficBf/SnuCieegXCLtpxQFEWn0xkOh2tra5PJZH19fX19fWNjYzgcdrvdZrPJbQM8P8vugj/CJEynUw76CvHEy/s0nU5ns9l8PpcF1oqiq1TDOgpaCnTUAqqirwFgeHzHs5eriPEQq1kJqMN6ia+QQOH4mDvtljOqAzDw4H6z2ez1etvb20dHR8fHxzs7O91ut9FoyLF+JDHpk1VGd4Sbh9vb26urq7Ozs/fv379+/frly5evXr06OTm5vLy8vr6eTqd8ciDmB0aKHo0JDP7UNtYfQilsADSgohdGoBQGwMkWBcLwzCFsmLvpbEC4AQi3tXhNyH8Tob8cBWKMtVqt9fX1o6Ojzz//fHt7ezgcttvtRqMhO/u0PgAHCcUqMXf5+Vzh8vLyzZs3z58//+GHH168eHF6enp9fT2bzTJTgEhBT+Q2M690PAOSJ4Qfnzc6ZFcpcCUNAD5LxLEUODOI4gJXbwDSefrVu/80Y4BEf9tfjvt5nrfb7e3t7cPDw4ODg52dnfX19U6nw6EfqBTg3ZNdCj5p4Mbg+vr6/Pz89PT07Ozs9PT07du3v/zyy4sXL96/f395eTmbzeQlZSMOVjwt8Cox0OX3yh4RteMaAAcGRiyJTB+YATAmLtEAhNxN5+lXYwAIPr78F5lulCZ+e73e+vr63t7ew4cPHz16tLW11e124fh+LANg/KuryteWr6+vT05OuAF4/fr1mzdvXr169fbtWz4tUDYXCfJCySp9//CAz7IMQFxpH6YBwOcioFttZwbkW7SMUdz/KMx4OeEOu68oPbv4zfO80+kcHBx88cUXv/71ryeTCV/dBQyMEXSQfr3vX1tTz+fzy8vLn3/++V/+5V/++Z//+eXLl6enp9PpFF4hEESO7MdC/yixfpqQus0DnEJqYQCyT5OA4HT4Fjlj9UCPV8YLBL0QHJ8XANZGozEcDv/qr/7qyy+/3N/f73a7YjcnMJMwkhe44xmAevF1guvr69PT03/6p3/6f//v/33//feXl5eyDYDfMNCJvCTgxVmx42+jauA7XE5dtoH6boGKO+HSKcUWz+W+E7Dq5Ps4UqC/TrIOAlUZY+12+8GDB7/5zW+ePn26sbHR6XREzEcWCER48KS3g5Ki/MWUled5s9ksy5KvUW9sbBwdHf3DP/zDzz//fH5+zsNBtvmKUUN0bYKEVBn0R4oKRwyZaNKAkVIXA+BLn7bbV0A1b2Gnn0sQQs4uwL0oim63++jRo6+++upXv/rVaDRqNBo6f0RK95gYY41GY3NzczQabW1t9fv9f/3Xf/3Tn/70+vXr29tbfXeQ0SRUtvmyPuifjqLjXr1GuG/dkkaBbLeWm5jiVtL0RMKjxH/ga3zgRUb/Xq93cHDwu9/97tmzZ/1+H+l641sDY/YCm8JIi8Xi9vb297///d///d//3//7f9++fSuvCuibRJULo0C4RF/mdBs9Aym6hSYINGZZLBafDADEQB6WBLGxgDJilij6RxGup6czAMZAEMzA7mg8Hj958uT/+//+v+3tbR70B2oE1AXIlbodgKIXi8V0On379u0f/vCH//2///fz589FOEjmyez2AEgBaKXRX6ZYliDcAIgqr2oIyIvI8yZ8xvD4/nKDWuFrHhEXMwhEQD2nHGN8X2ET6YyxtbW1Z8+efffdd7u7u+12W2zwJ9TU16/34tEJXjPIpGryF9n4cXX/+I//+G//9m8///yzfMSQ4CevFROYCQi+lICP0kQVF20s8aMwANmy4bUm9BE2gu+8xNhE8FSAR376/f7Tp09//etfHx0dNZtN4+tdITqHo38U88wYazab4/GYH1Y6Ho//8Ic/PH/+/OTkhJ8sJGcXXhEZbSvb9PkxkLlvL0UVG8WKbRHYokRgUiRGTCcUbbyVWs9AdHOGbpASAH9f/m00Gp1O5+jo6He/+93Tp09l3z8RasdtH2S5+ux2Pp9fXFz89NNP/+f//J8ffvjh9evXFxcX8qnUmWUxwBkgQtKqOP4AkR2ykIz3JiI0KYkonQFwMvveCjcMxvRwdKZlqbkB8ELJQANgRH+jMWCM5XnOV33/23/7bw8ePBgMBunQn/wgvOQg9eQgwr9PcHFx8fPPP//+97//p3/6p59//pmbgYVEPJctKEQDZfLrZoGUYrN1iLRATT6WEJCT4P31+q0qwymEsoApfBT+dISHOUx2Gvor6bapQJZl7Xb74ODgt7/97d7eXq/X0w94wFvWROjvvOtsXqDzi9cFms3mcDh88ODBL7/88sc//vH58+dv374VpwnxE6d5FpFX3ikfF6+joz+8jFH9GFE0CVFg5Q3ABxbXtlXHN/0ThZMTkRuNxtbW1vHx8fHxcb/fFy/6RhHulR2f0Zcfw8AY418u29jYODg42N7e/vHHH3/66adffvnl3bt35+fnfHlAeX2M3T/IOvrKcCxylrXSY7B2etOaEpkrpLvjHeQUISNft65i9aIIIQRJYAYgsmG8pYR35EQlO/9242Aw+O6777755puHDx8qX+6tJlwDS/YV7vus5WCIHPGfzWb8oOnvv//+D3/4w08//fTmzZvLy0v+8TI+G8CsDRgJA8dOIUjyEhVoA5YVBVr5GYAXOW31cvcywgVlkSabeJ2jFFcH9AdyAZBt4+cfden1esfHx8+ePdva2lIiP041aJU1JpKfUeDDVXqRMJOLxYK/C91sNkej0aNHj3744Yd/+7d/+/Of/8yPmObLA7KQWJBd8zhSPelDMABxITs82OL1TsDSFxiqL7F69A9BZ/E0OfGT/dfW1h4+fPj111/v7+93Oh3h+9vMSUQr6EzHlB7i+wO3RFvlec6/ZsxPExoMBqPR6E9/+tOrV6/4waLyVIDF2DAal2j7iyoes1HoQzAAtXXbkVQ3fepAzgYJ9/2N6UavljHGsYx/xXdra2tvb+/g4ODRo0edTkcP/QfCq5fCBMmYoqMENPh3j3m7tdtt/is+PcY3jPK1AST018Q8fEj0IRiAzBND46Kt18wgBAu8yvKl8NaL5ddjeAJ9fxuPjPgc9BuNRrPZbDab7Xa71+utra09ePDg8ePH29vbtgM+Q+oFp9NyEYwToXTgLl8sOTo6arVarVar0Wj88ssvp6enV1dX0+mUMSZ/mJ5JKwoKVbnvE1ADzhJSXGV5ZXP7gRgALyLH08PxN9xahDNXQ7VFf4BBhv5Wq8WPwNzb29vb21tbW+v1eq1Wi9sD8QF3ryIIiSF3kWYJX5ZXH+Mow7Pked5qtXZ3d3lEqNvt8q9O8g1CNzc3szuS88rSarXt50OiD8cARATBKO8EBK4ZpCNjQYGtFwXZMTzh6C/7+7LL32g0+v3++vr69vb25uZmv9/npx30+/1+v8+PxReHu8mOP831BhKdt2h5adMUvD5wFnZ3jlBRFNwG/Pzzz2/evDk7OxNTAT4bIKwHfACvBJPpY38PQKYaOsJ1o4jD2ytvFB5fBx+4Jfz3ZrM5GAzG4/Ha2tpkMtnc3OQGoNvt8i+2K3ZCERvSnqnbnMCfYvgImXxJoNFolGXJ3x0rJOJTAWEDFIAG7MHHjP7hVDsDEAjisWIs6V4MDuRM0T5xAwhOUV5+vS8/8pq7/GI/z5MnT548eTIYDPjeFdumfoxwL80j3vVSw0u3cKsg2wDG2GQyaTQaPIzGF1r4PICvDE+nU/61GYYLxKeeK3zYVDsDUB8K31wUHsdPMacJ1FOhQHCHGfB5bZzGdO74r6+vP3369Kuvvtra2hoMBtw55Sf5GNEf1g1O952gpMvri/IRux9Hav4OXb/f393d5Wag3W6/e/fu7Ozs8vLy8vKyKIqrqyu+RyjzxHeYaov+S9yEXUcDUOXbVbSCaujFVzBzcvLERX+kcCdAyxfsbiP/gwcPnj59+tlnn/Evt3DHX+C+XFNfA+BkwDymEND3LZpQVmBP428J9Ho9PgMYDAZv3749OTk5Ozs7Pz8/PT19//792dmZOF+a3a0n6wheW0z3opD29MqrM9fRAATSqu+f+WDIFyLxxsB4F4P+/Ojm3d3dL7744tmzZ/v7+/z0Zv1VXi9lMOrh5QR2yEBESJFFycttAP9qQqPR6Ha7k8nk7Ozs4uLi7Ozs7du3L1++fPny5cnJCT9AglzcJ5LJ+ODqaACqRGS4rCivmKVYM0Amxj31AYm5mL8YBrgUvOMv/vIjCra2tr788svPP/98Z2fH+NVGXzcZSYmiQCHyK/b9ZQliHsA3BY3H4+l0en19fXFx8e7du59//rnX6z1//vz169fn5+die6hC+HWCT2R9oBXrgaEoBiAW8PkOEi/4cMJieCKZDQPQyPBIiHAY8W1RIIEI7I54qGF/f/+LL7746quv1tfXOfongnuYKuicMM9SoF8msc+HX/BvyMxmM74IfHFx8fr169///ve///3v//SnP11cXIjtoTLW12r/T2VhHFpeI9tisajjDKDKsEzIHvzK/H0kVZzR6TXbbpHR3xjYMSoj/vIgQ6fT2djYePLkyePHjw8ODvhXbb1Ob66G8PpU47j4aoXMqHdyHoLjp+yVZdlqtdrtdqvV6vf7nU7n+++/Pz09vbm5oalRc6qgE9rQP6tnCKhW9GmRwEhkvCA4rba/slXgvzqO8O/Wbm5u7uzsHB4e7uzs9Pv9RiNmt68+/lCls5mu8xs9A/74+LsC/NPzrVZrPp//8Y9/fPfunS0W5FVoiue1LIgIL7eOBqBugOt7hk9lrzIsKyPGhSeIckZ7dOjneMERn4M+P2yg0+lw6N/e3j44ODg4OBgMBs1mU2SMuLPQWX25rNSzNFoAxzdX4AgV2UXr8SeivAPMd2d1u13G2Gw2m06nZ2dn4Q8uug2oc/AHdtRqGgKKQhV47l7ho5DQUIpYkxfR/H2vMAUmEJRJMf0syzjuczd/NBqtra1tbm5ubW1NJpPhcMiPpOcfLCzLkr92xIVUM6uT1yEI2SsIBxHwvYIJAX86eZ4vFouyLIfD4RdffMHfDvvXf/1X8X5AFgDlsWzAEl3VQPQXDHU0ABWfjZNViAjV9xiajYkS4dGLdiKO7UJ2+fm7o/xk5rW1ta2tLQ76g8GAH+DDj2wry1I5yAFZBSdhPPqkzzrcNiSy6L7E7m/wN84MGo3GcDh8+vTp1dXVycnJzz//LH9SZlk2IEpTJEUDpPA6GoAaUpT9oMuiwAgPOaNv1MII+pmE+zy8I8L6m5ubGxsbGxsbfEuPWNeVZwmJ5kMrse+wVg4+TOz+94GVW/zby48fP379+vX79+/5QRFxC/XNGF56TehDNgB18+tDlEm9O8jmueP9fV/0Fxit8MvOPie+JNhut3mcZ2dn58GDBw8fPhyPx/z8Bnaf5FKqjImRY/2Y427w0mD+KHM7WunGarL7nwNTJgEipdls7uzsfPnll99///319fXV1ZUugUC6qoCo+nj9sZ5U9mEbgKxmnriRqgzl24gwtgnqAXkVZ5/dhfj5GuBoNNrY2Njf33/06NHm5uZwOOx0OvwsSeWTLLDXH7dJdaQgg34sxTBG1zdjxMZUnAwjgy38m+d5p9PZ2tp68OAB/6BYoklYonFHE8tzKTWNq2F9DUD9sRsm43u5WfolwfCMztkAgOB4mbo0fhAb/3hIv9/ncZ69vb2NjY3xeDwcDjn0i3N7Mm0aAeicxV5b8nIeMdl9JcCi8AzVoD+sgB7T1ycE/Ai5g4ODn376iQeCjBJqRVGGrZcQ3xLrawA+0VLIFskhhw5gfhnH+ZcXB4PBxsbG1tbW9h0Nh8N2uy3H942FrrS7wIkAZIG1DvQPQspV5kC2dV1hCcRnxUajUbPZrP8ZQVU6bWT6ZACwlG5GgtxLXj3AYUo08tisiPEW39XTarWEy390dLS3tzeZTHTctxVqvAuokYJ85dvCIJHUcQtcru+vxDd0GyAYhMkvy3JtbW00GrVarcvLS5sJWSKFt0/Fw7zWBiAK6q16KCk1hfvvsDQbNHPim/y2t7cfP358dHS0s7Mjx3lsH2bRpcGJmGoGdhIC+kSMAuHlY+7GQn8MKNt8f6atB/DXPnq9Hn/J4927dzb1lmUJQrpQrHmVb5ZaG4Ds44BvsqMdvTgbuGPcfGeKPJK5N7e+vv748ePDw8Pd3V3u2YkPMYoPszhVxURLK/NnFYplFbwEBnYnclshO0lmWtXE2wD+Cc9er9doNGLtBw2n6gNxNCG6jay7AfhEcSlWzNcXZcQsnjHGoz17e3uHh4fHx8f7+/uj0Uh8jUtmpukWmDciRY9LOAUmqnjq+ZOtXkxbD2g0Gr1er9frFUUhjghdLq0c+mdSw9bdAKyE+1/B4T+xZkLp3ieA4zMc+vnJDVtbW5999tm33357dHQkTuTPTAbDVq5uIQLnLunIVlbEreups0dHf2Osht3f/6Onc+IfdeAGAFlWOiNRB+jHyAEY6m4Aqj8WIiJVH7/yKs7LffZFZ+WC+26DweBXv/rVd9999/jxY/4FduVTXLpAZ7lIfjjRectJ6XbvLHdVIKnvb8N6LlN/N5jdLRoNh8Nms8nfBjC+kIE8riNEc3LeiiXAbHU3AJVRBV68jTPWtN2Xx3b+D/wmsJdvLv72er2jo6Nvvvnm6Ohod3d3MBgox/HjC0KaIiScpfbCwuE7iuR0XnwgAf6+3iH5b7/fH41GnU4H+FgYebwk2poV3REMR39+65MB+At9DAvONooSKtHRnzGW53m/3z8+Pv7666+/+eab8Xgsf34dow851API/AAIH9xYrYoD9eK3ut3ueDweDAb8CwHz+Vw+Ua6GtKz2x5T7yQD8hQIns8b0WPF9zLzBV45tNkBzk2X0F798396TJ0/+y3/5L1988UW/31e295DDTV6+fzrH30lAQekmB7Hk+KaHlA7E/Zn0WgBjrNPpjMfj9fX1n3/+eTqdRtQkS9+klQlB5v1kAD5kInQgJDQbMVf5zfN8NBo9ffr0f/2v//XgwYNeryf2+Yhc+hqP8ZocknJmMRLGjsIMGMI/ndouY+JLMQb3jTzAX3b3ubfRaHRwcPD9999fXl6KzwMsnQIbcyk246MwAMjYTkgIyJaXFpoI8cGRPJiIOZBFnzHo6L+2tvb555//5//8nw8ODvQvsAPob9MN1hnT/phqYgjZnfACycWl200Uxf03PjubGVDSARswHA4PDg5Go9Hp6ak4E2KJUaBw7F5WmCh3s3yiZdOyZvo0mTzyw+P+33777WeffcY/w+sV7fHVuUr0R9KyhnQUiov+5CJsE812u82/BtHpdJxdKDWt9INeDQMQbthjvULpmxdTbm0XrzL0KBUjk6N/p9N5+PDhb3/726+++krx/dkdyUJEii5ZyWLUSv+r89sshO1WFGIaVVAEXFCIJshc+CKA56JLkxP5yaB7e3u9Xg/uG1nipxAoLa5KBDmrYQA+kZOi9CFmQmE9xcjG+3Ge571e7/Dw8H/+z//57NkzseoreGwT/0yCA3lUwJpg/tpaBt9iESHDC6yjF4RH8JByCVl03WyGQXSzZrN5eHg4mUzEF4F0NluVbY2Db58ozy7uo6dJ+yjWADJ00Jb8SOKuAaTIQhAulwJXkN2tzm1sbBwfH3/zzTdPnjwZDofKqi+wl8lYqO1a/4tMsSWG3JIp0YH+gfK9yKZMop6sZHce8CmKKMtyd3d3Y2Oj2+2enJzIPMt9w6tiyQSjLrfPx2IAPlF0kiG7KIp2u729vf3ZZ5999dVXx8fH/GV9uHciIRtIxzN4sZHJiFmrJT+dcKQCyEOei6IYDodbW1vj8fjs7Iy/DVCVmt60XPQHaGUMQAVv6lY88xXkWzWaLxbi2WX34V65xcM+u7u733333W9+85vd3V1+xoOcF7PhB+n76ynOyQEtnUY2abHgKd1cZOnoz4mrob8PrCTyKNDW1tbm5uZPP/0kvwuW2kwCVE0b4kuxTYI/nQZaBZGDQqkJgFRfU8QYG41GX3311X/9r//14OCg1+sZ0d+I0b7oX3HYJy7pBVXpy2PO5Y9bIoYN0AoAcXErz/O9vb2Dg4N/+Zd/OT8/zyTjYWxtkZio5aP0pYgdEiNqlQxAupMsw+VXdsomsixffQizEMZYo9HY2Nj47rvvvv76a3G0pw491aD/ch1/AqWeK2DKipWdFoJTnH2dWbmlTyVHo9Hm5uZ4POYHwwEvhcF9SVDqVZzUQpCi/mJEYxX5iT4e4ujfarU2Nze/++67v/7rvz4+Pu73+86gfxYvNhUY9F86+n8iDDmnbq1WazKZbG9vl2XJu2WF2t3TpA5CCKJWaQaQOs4eIj/W86PF92k8Ifx5no/H4y+//PJ//I//sbGxwYefIhA+5kFPQfpoTjlOIb5zHTyzoKQbUSoOcMeaPcOPAzkPkP8yxsSxEH/4wx+ur6/5DCBkDcAZoUphY5aC/ryVPqIZQD03CURB6qSRMcHGJOp0Ok+fPv3v//2/r62tCfQX0thd3N+I6SIdif42OXAtAtFf1BTDDGRP4Zamk2wsC8kJj68Q9wvoD/xYiMPDw9Fo1Gw2xeclYnnlOoWL1eVHFOjLv0ozgNTHNS9rDaACOTYg1u/aSObJ83x/f//4+Hh3d7fZbMqd2CbTqyxbucbsidAfpx2WjAITnShXT0cHQ3JdbNF//W6r1VpbW9vY2Hj37t319bVgFtKUCYQuPC5VYJUjFvcRzQA+WorrYuR53ul0Hj9+fHR01Ol05E96BcJuLKob+ldcUMWtXRnZHBp+LITxK0MKM9kLoSm5ErRKBiB144bIj6VbCjm6B6SnIzVhjJVlub29/fTp0/39ff2DjovFQvfdyNewSl7T57qhvyhu1WNEiciov7Gf5Hnebrf39/fH47EcjVSYjZ3HSCEK0/LCYpUiomgraJVCQLWleoJLIMmf4BAX/JjPb7755uDgoN1u27LoZBvJcJsQWqwOVjyw6LgBClbjT2VhiIGLwPyi0Wjs7e1tbm4+f/786uqKhb0Rpvs0GLZwQo6dQGmcRKVWaQaQuh9HH3gE+YD7TC7aBi544WI4DYfD4+Pjr776an193TjdtumPnIUYXTzMXyARSJcZ6mOe47p4WYW18x1BSMWcj54fC7G5uamfDaczK4Ui+0Z01xtQqQJpgmGVDMDHRnWAJHkS0Ov1Hj169N133z148KDb7SoHvcn8wDUwmIH6Jm2KOrQzQLHUq1s1kbNAOK/4y78QsLm52Wq1jD2TXNZqEb6CnHOVDEDqhxc9HOGUAKcARyGG64AUJXx/Psv+9a9//Vd/9VfKIc9G9TDIjvf3gYwwwd5QrRx/gGI5nvWprP64nU/cmEUQP4l2e3tbnEIod3W99eSUFK69U2b0EjP/58tWaxtoOKXeSBpIKXTDALFTQlEUk8nkt7/97bffftvpdIqiwBfkaxVC9PSSE6W18UIiHgYX5S0zpJAUQwZwCJwbE4CIPD8cdH19/ezsbDabzWYzXhAhMCWu8Xkr6GyyNP0tSxqtkgGo53sAyCy1kqyQsmlauEXZne+/trb2t3/7t19++SUP/cOFEkyO1+Cx+VOYgsj84dl9kRcWFSjEK7vXuLAxI4WEgG+r1RqPx9vb2y9evJhOp/ytYLzy+Pd+Y4Gvk6I4SUAVstUKAa0Q+fb1pAVhyDbY+Lfdv/jii++++25vb6/ZbMKFEm6Fu071R/+I2SMKqZhCPHEMc6PRGAwGOzs7wDeoIxbnJZxA1fSTVZoBpG70ug0q2qmfseInPLHb7R4dHf3d3/3do0ePWq2WMWSJQXZ8IMjXHvjalXRTMbLA6rdp+s4hokwCokybgIlUnuf9fn9nZ2c0Gr17905MAmz8tuIqODo7qVi8z7RiZwHpLxl9ougk9548z58+ffrdd989e/aMH/mQoTduEtBfty5O22YDGjL6MxPBWcKpyrLkQr34fQ2GpzoOwjxoxliz2RyPx/w7kfwtRcFgfLI2h6bixxGrLF85jLFVMgCpKfydEVtilBSCVwWgrbPoZrN5cHDwzTfffPbZZ+12W2z7wcik9eZYIQLamzsV42+4GnXQFiD9KQRaBdtwYNKSFX8reHNzkx9ObsxolAz05MB2BgxPFDMTKOeTAUBR9YNticObMVaW5Xg8/vbbbz///PONjY1qlMEYPIKcQGlLoQ/VBgSS0+HI87zVam1tbQ2HQ/mYQkxDeXlISKr5A8pWaw0gNfk+rSqBBlMWvmh4IDHGer3e4eHh7373u93dXeOmT1+Z8DWQ3Zc/ykOsAzF0PLqyuChhm5y8YSZ1U3O4L8tyfX19Mpl0Op3Ly8vZbCbuOr8KCbS5UfkKtpWnlv/JACyBKgYdZ+hD+VuW5cHBwd/93d9tbm6K0D8sSpmPI4tGUizDFiKZrECUuAd5dzxANMVoOyBloASMge86rd44jDG+FDyZTAaDwbt378Q6MHBAui4EqVLc/lOltI90GyhtlleBp++U5nwrWJdgc3ac7v/Ozs7nn3/+9OlTEfo3Dloj6ANnDXm5//Ag9HoiSdH/fizXvVBJIDwsxpUJZw80OTYvmxz7kntjWZZra2vKuUDAMwKKhnPForhFYKSJen1cBmB1ybd/2NDWif7NZvPx48fPnj1bW1tTgj+xkAjTO51CkJR06IZPTVLnTUqJQk++NkDBO8ZYURTj8Xhtbc14LhDNC1wV8q3C6oWAKj7Owass2JMlFxELPpwuPP/C6vHx8eHhoe2wT302YEwEfHzfJxjShhH3pEfJSANN5gryLGWPZiynxFcysMuLZyyKYjAYjMfjTqdzcXEhR4GM8o3TVmDenPSNNgKFyF89A7DqFMUkpMjOGGu1Wk+fPt3b2+v1eiEK4PVxmsylO2VxFXBCeWqKWDr5RIQo3VsHaFmfVqvV7/f7/f67d+/EOrCstlEf3RLgF4Qrplg6fDIA0cj4SJze7hI7k6Ib/9jLZ599Zjvr35Y3xBOMNZ/z9fSXeCwgzQbAuZZoV7wO24nV5kbbwyRqNBrtdlv+SCTmXWK9GUPmbb5UQYfU6/5pDSAOwbH1+hN3/9fX1x89ejQYDNKpXZMGWa4aNWmE1SWbsZeJTwKKorB9HqCaJZyaF/FpBgARHtaN3k1l49wWXcVMPsRvv9/f29tbX19vtVoKD3ziUIhnF6uJoi8qrBbhz3ZOWnqVk11mOhJZXOd53mw2e71eWZb8I5Gwws75ATBvCKlCLFG+MgXbR2QAvCLR1esQnQefnd1tnHjy5An/noa4VcPDl6p03D4YU1HNc8QEPCM2qeKdyCDOGCvLst/vl2WZ57myDmwM9SCDP3AEKUa16ERQYPVCQLRWTv1sMO5/uhSahjJ1Op3t7e1Hjx6VZYmRhtk44SsHQ16B/kBa+nheRQIeaOpto0oIqNlsdrvddrttPBoaOayENOAWwJOawhVYPQNQQ1p1pMjzfDwe7+zsbG5uNhqVTgqByNJyqT6aOKlus7Tl6iPQsNFo9Ho9PgmQ78J50ysYjaJo+8kA+BHZ0iYK7MDuiZwC7J4uimJnZ2d/f7/b7SIrKPMgQ8CwECR9ePsxKqDqEdn4qnDc4A+7W7syeuJ5npdl2ev1JpOJ7TsWNsle6bHIWBGYQsoS1x+FAQAaC2hKchNjHg+Zh+zCyANGTszzvNfrHR0dPXz40PYdpSrR6uOhalp1if648yCdwBawjQ7eq5vNZr/f39raGgwGfF6r8NvA1Iaw4chrKz16T3BaDnG9YgYgekv5nh2P8WvS8cD6yBJsefX0siz39vb29vZGo5EsBP/qKd4m+VovpP3zwjiM3cVLC6TwsuCY+9KjQ7IOxj5jhCcb6TyyHJknz/OiKNrt9s7Ozng85pMAhdNJNn0wkA1DcKI+RhC+YgZgJQjzAFLzIPMWRdHtdp8+fbq1tcV3fy4dMmi0rOMNPlF08u3SulfLqdFotFqtjY0N/n2YzGQtUuizLKLps0oGgFZDX68zUIekyK4kErqmcqvZbE4mk88//5y//evUyignFvj6znhs+qwQpTO3NTTk+D6j93Pg+Rq3b+Z5zpcBhsPh9vb22tqafK6trQia7anMwYdLpwlZGQOQok0JzxvJGchDqKxvKewu+v/gwYOtra1OpyMYwkMHKwrHdVZ7Kce9xSLa0RdkaOO5eBSo2Wzu7Ozs7OyUZRk4pU7aPQBbEt3GyHlX40Uwcm1TP7NEKcji8GTMWxTF2tra48eP+RvzXvJDzgLyUpKgzwoRCzvDR8+7FOhHLgil6DOZqQ3Z3ce/uA0Yj8fr6+u9Xu/m5ka8EeYlUL7FL0LauYKO6ixCMKzMDIBAS0eEWPMDPBsyL/cg2u32xsbGw4cP5W++p1MjFtXNvQ2hla7L4o6UxGXpI7vG4rooik6nwz8PoAQ5gc6MB1CCkrSMiYqo+wygDojDKVwT8mzAmWi7BopgjPV6vY2Nje3tbcLLXylcuTqcKVQl4bHSyBkOtUmPBoL7dtwZG7sLXSoF8UMgxErA8+fPp9Nphqu4c3KmFGpjqIbIZdV6BhA96IFhoLnkelTOCcTIom3+u6+SyjVjbDweb2xsdLvdPM+9mpr8XGru8NZcPSchV9GNnntqZSrbk6oEyoui4J85evTokfKBay9RyOIwWaJQrLLqPgOgUfTWdwokeDQYC+E7aUCaPT4w1tfXNzY2uPu/AD+ZHaVoJ4VIWNE1ACcFzhLI0qKQbSpgSwwnZjkitNfrbW1t8VCnvAzgdPNlTnEdtxmT9lvnNKXWM4AVIl9/nzwhwPPY8JoxxnfIra+v8+1xcR2WDxKI60aEyPuy5jeVlWublPO3gofDoXIukDFXxVQB+uulyOO9vjOAdE0T6Ko7GZxuO833p8lR0sWcsd1ur6+vj8djHf2Nfr2tMwHlOvVXqA5rACs6k4A92bqFtlK0MLvb+WO8y98K3tjYePny5dXVVRZpGw9h9pCUCO5gHWcAgQ5p3Ly+E1jA2NoYkGrA9cKgv6CiKPhBie12G59R0QFjF2sIps5BWx+4RJ7nAYfX61Odykh0POHu5HnearUePXo0HA4Fj8wfUpCTwmuE1IGQvY4GIOkeWy8jGV6i8TVFX4G+RggWwsfDaDTqdDp896dtH7fi9dvOcrGV6/scQ4ZKXJirYIGUbIdW+o2wCkjpmcIANJvNo6Oj8XgsdjwrXX3pUK7UohqV6mgAyLWq8gkhyYinSH4ym+2u6DFFUQwGA/mELEBVHetr2M7RabmHNEQpvT7oX80WILhblmW5tbU1mUzkWa9vT66m51c5vmq3BpC08tHdf1iI73QE6enDKU6Tw+7OgBPb/4FyvdDft/oKBcbfo4fvU6wHBKI//tXf+qB/lcTuVgLEXiD55YBOp7O1tbW+vn51dTWbzUR65tNccpegHXHhm4VGcEFC89oZADKlaFkkImPyOsERk4KRY1NGRnB+Rorz7V8n6HsZ1IgPCAnNNjY8sse1AdHRP1FBsYiZNmVWVqiezhh78uTJy5cvnz9/rrD5mgE5l0y6hHpOGgR/vUJASYM/Udx/AH+9lHd2NaTtwawxKErygxKV7LK/D8QWyW1Ie0BJ4zBI4bF0gOU4X87CvwwcWFBEWuIsROnzomNvbW09ePBgMpnYPhSsk2+5IdnJBZHl1MsA0KhK/yKWDgRHHgPu+NLn87lyMFYI+teWPoxgeiz0XyJVaXh0EkDZ6/X29vaOj49brRbyBfhV7PZ4Wu0QENlzp/EDqL0ATzqE4R4TLUFOCPRbuoXgv7e3t/P5XMzQdfSXmTF19CWjv59isAFivWJBWUCtnV657y1f9F+uYVjK2xXMFOTJ83x7e/vbb7/94x//eHNzc3NzIzSERcl/UzTmssxMXQxA0vqnEE62PSl8f7w+7C7WOZvN+AwgCqaH19GXjJhCABolCIZkRvLrufB3o4SDMApUTBWvCuhmoNfrHRwcHB8f39zcvHnzhrtBzOdcbqPymOxV1hpmqNciMK1dYrWm7XF6oZgNRglKYiT4KqPMA2ykSCDPeGiEfBAEwgjxLci5+kL2+uG7K43+1RBHc9m0y1aH74H+7W9/e35+fnl5eXFxkd09/ZC2WnqkyEsBwbyqawBJQcdXfsRnnzooyYGenwVUFIX4Tp6O/nChVXb3lYAwRckQnT9g9F/iGoC45m8FHx4ePnv2bG9vz/dTSPUkchWWPwMI95FDmI1+XyLr4iwoSjjIVopAecZYo9HodrutVov3fif6wzr4+s42ZpscX34yeYWDgOwhnLHQP/VOUGU6aEzXixN3K1gV0IM/4jrP83a7/ezZs5OTk59//vni4oLPGPRK2aq5dIrVesucASjQg8+VQhmyDkn1SeF3897PP5IHuD+x6ljx8woBRJk50Wgn7PUEctEqG2VDzkIiIF2/qJKAvs0Y29zcfPLkyePHj/l3AnRPSB99NMjC6OlLsYpezgyAXAHfjE5+pMBwNoL7TyjUmEVxbcqyHAwG29vb3W433P3XU5xCUnv6Nn5alD/iYCPE/SOGg5AMEUmUJVo+cI4VkRhjzWZzb2/v22+/ff369cuXL6fTKbJxYOUBIRXU2reIVVoDiN58cdE/btGJdGOMtVqttbW1tbU14ChQfBGx5nC0RvaFs1rN4mWqpiJ1qH41OjhdMXZ3JOKTJ08ODw8Hg0GsYY6ZUteHKp0BVBxJoBUXC+/wswEyCiPliHTu73e73e3t7cFgQPgUME1PL4bwLE4HjTAPoGlikwMnOu+SIz/A3YqpgjUAIwn05wqUZTkajT7//PNXr169f/8+1kp+xVULKa6KGUB43CoFakRxsdP56b7ZkRGkRqMxmUwODg745/FsdgWZTtDTl1LIJA9sW+Abk8tXjQ8M/fV2q1glW1/lx0RvbW11Oh09Imqk1Hr6UkhxyWcA4e1Vgc+Ip4V9/zutUCRwYzIa7yodutfrbW5u7u7ulmVpk2CrI8FrS2QgYcLE7sM9UBt+Mdx2csJSsO1WLOj3RWTRgLEmSXGJad8IM+qW5/lgMFhfXx8Oh+fn5/pyhU1yRD1jiSJQ3dcAErUOWWxqREsnnzGW5/lkMtne3h6Px0VRBMp08tcHC4y0RKe4sgh+0jqGTKTiakImdvetmPX19clkIs+Jq+m9Sx8jqWYAUSpWceuEIBpe1XCcdaYYGRhjjUZjZ2dnd3eXfwrGpolvOuYunicWYXz8FK5roD+uM5AFVrAjCNaW3T+OXzBgxhFyv1BIFYSnn+c53xbRaDTEAVmK/jY9vRSroP/7FpHEACwR/eM2MRLxyYYBBm5jXrKVyvO83+8/fPgQfvvRVq9EwZ/6kDJiU+hPAOu46wSYuxEpHJ3xbDbAderAPaHRaMTPiL65uZFDQLB8jGKpqXZrAMv1/TF+Hyb2HUJA3NxLvq6P0yTY+BljZVnu7u7u7OwMh0PRxckT3ijrH+F5M/CphTzQ6PYgIvqnmxOko8Xd62Dir7FJyY9MGXReWmVZ1m63e71eq9W6vr7mi9XM8iJx6jas2HOq4xpAUjSJEsahUWonGnDq8zzvdruPHz/e2tpqtVpeYsMVq0aUkWIN10A5lYXv64n+MvnuoaqGms1mp9PhHwmAOZP22OrnzdFmAHUI+ldmOfBWBJgN4DMitQLk8/3Oz549W1tbE/EfvG54HXx5vNqERrEmdolgy3djT/RbTtLz4ttTD6QoO0EjTiUJJNz8oiharZa8E1TWzTYdBOYxvmoQlPcVa9QqjgFYdfRPJDAutJGnxuzuc9jb29u8i5Ol4QtNJ5xAsWxARKpsPcCZ0ZfNi1PwyxEV2+OI9YwwoX+Fnx8R2uv1xAyA3V/B9lrUlVcRgELxGjqJ7IQFGYA64H6isvCOCU0mvDagy8QMGNvfPM/H4/Hjx4+Bt3+Tuv8ZaczH7RjIXSWpibwzh4D+0XE/hDD766snuVe0Wq3BYGALAfkalWxFfKwlrwHUzS/DUA2nGroQ+W9Zlmtra4eHh8jDf1JQUo/vg6HK3g+IkpdcYg2XAbgBGI/H/GPxH0/PpM8A6hOxSRqriSJfF+IVfw/xndnd6W+7u7vA4T9JY/GVxbswZNzakZQwYBfdwa/JTlC9UGcAvUpi0sfC2u32ZDLhK2SKbormWZoGXEpreBuA1GibTloKTlrG6FBriyZxX6bf708mk36/X6uQXWXBH4B8X/Opch0YvlX9TlCgrYDwmhE6xT5LmiaJqNVqTSYT+YgU2Tz4bgv2XYTwVDZIlPy8/AxA3dC/gnLxiwHkEuHZADl4IniGw+FoNAIO//HSFl/u6lJlDnLFu31SrAoou3psPGIBgBBMT0eyJmVZ9vv9sizzPBfvA7P73xPGa66MgpCdVPhSCLkqXQNYOfSvgMLDI04L0e/3h8Oh2P2ZdPjVuanrRhVv6KwJ7NZzDSDLsqIo2u12u91WvpMKbNZYLkVRBjsDCCksXastd0aSol5OmUgvXvhcjLFut8s//gWIVXw0P6VNcshUqzEWnULWA5KGfVIjcg1jPspqUFEUZVl2Op2yLG9ubmQ2htgSCpNX3atsKMgA1CpkTBbrq0CKOAl5bSAcTPkG52azqdyqbFskOYT1YRA5nBLlVuDduKQEi/TlgYhEmOwyxsqyHA6HrVbr8vJS6CnuKkNGXx4IiW5VsLQmCLsGUFtvrsrGAojWPnFNl239wHfeCq9D4Mm3LEL28CxJiQABKV4OIMuMxc/JOK2MYnWcAm3rt4ACjUZjfX39T3/6kzH0zyynAwFjDVPT6jG2ojWAOozMKnWoQ30V4v1vNpvJh9x+SFS3Nk/RyKuL/pnk6etrxSFtRd6aAZdbFMXW1pb8PrAiP2I4gSYwOqUKAS29YlEIrkXqFQjnjiDgL8/LfZbpdHp9fQ2Xbps92DTB64zniT66qiEakAXG5Wu1EQhJIphu9MoDZ8b6hMAWkNHThVZFUWxubvb7/aIoZrOZUWffOE89gyiCrAYgdbybTEnlR4nP0DRM11HOz8/Pz8/n8zm7I6TMGi7cCVq6YkvBfZih5uvA2f29BjQJvqupXgUVRTGZTAaDAV8HtgX3Q2L9AEXs0k7PUlxH/h5ArdDf138P8feBGPpSTKmc9+Li4vz8fDabKd+BsXn9y1oDwJe7FPSvYP9louXc6BEhJNkeqB4CivtAnXgNTA74kXCdTufy8lKxVQx85Q0gZ/NWHGtJtQawQuhfGdVhInV5eXl2djadTkVAtp5Uk0dmpGq845XLSxAevgCAId9FAs7AGGs0Gv1+v9friblyFGcuEYXrU6/vAcSST/DlQ5aVAFFwbD2EkDGoxWJxcXFxenp6cXGhnwW9sGz/t6WnU7tuQyuLAVIRA+4EBz8wIkRjBrLLvU5miBJ39SXbOkSe58PhcDAYiJGihK0I8Z86LwNEPhw4EdVcnwqC/niTpnNOp9Ozs7PT09PRaFQUhZeSXhTRiC6XqoH+j209QN5YWRn5Lt4yxsbjMT8VbrFYzOfzzGSxEs1gwhsHI0FWvo6fhFTIt1FCQvmCYjkpiluNYTMWR+hwQsjNzc3p6enr169vb2/jOi/4taaIlA5BFncULgTDFigHYADSw8sNpIVEIiVFQciwj/KX3X0gvtlsKo6/4mbZiKaqb96Q0mX+uhuAuOhPk7O6niyn2Wx2fn7+6tUreWODTnVeHhCUFP0rExK+Khs3IuTF40XLXXai9ZZutzscDjudTp7nOu57FYoB5eXCS40+CVmZWGdBKaxIps0GxF/fXuVb9Hw+v7i4ePPmzfX19Ww24y+54GdC5NYgT5sS6QPIrExIIPTXcyMQXrjx2aUe5sKR10M3zPRyb7PZ5Ocnnp2dzWYzeR6gZwFKtP0lKJ+OIm8DjUiEmqcwts5niZ92+RaNKRTZ1a6vr9+9e3d5eTmbzcqytBUkw6uyDpwCeZdIVYI+hn8pcwKMWCQPklKHfQik4HuWZUVR9Hq9zc3NX375ZTqd6mwYG0DWpGIJtQsBhYTSnJIx6XDRsR68MhuIkteWvlgsbm9vz8/PLy4u+DKAchdZbjjeLaWL6xQlyu8lBOYPnxYQgv4VrAfo4X7lrnIRi/SgDTwFyTSPqt/v7+/vt9ttHgUysvlG3mGFvabLNiIUXTsDUDHV0KtNodJsNru6uuIGAOaMOBpr2LbZMnzPcHsTPeNS1gNkyQQjGkJecXzGWLfb3dnZ6ff78ieC5V9AflKKXlC9QkDpgmWJwvq0UgJDhLb1A2BdYT6fT6fT8/NzpwFQ5OD1pFWqYiMRjjgRJ0y1DftEDG0ZeXgIZXH3Rphy8logyTCtF6pfGxna7fb6+vpkMnn79u319bUeC00xu7XVJXouWfkITR+l5oEzKRouY3wBmL8C/IrSLIvFYjab3d7e8n3NmRYjMmavT6CWU2BrV4b+yOgKnJ0c9nEKJ5e7sBCgp1OOb14v8vXZBX9RFJ1OZ3t7u9vtGqNAiQY+IaRDCATJzKEGILwhAqE/ig40UXirA3ASHGfF69fTbUKUriwTxgakGK54mctFfyRa4dkIt5xFAKgKAy4S92HFbLmU7LocpGTfoaGnY8aaSCzLcm9vbzgcil1zeiwIg7mxeDIT1odD38e+BrByZOvEzq7APw2GfBM4BdbjHbHoVM1UBj8/IEsIyRs9o69MYQYI5iSdx21L598GGAwGYhnAaEWccrx4qqfQNYBFJfvEUwjRM4a4/7Geold74vtinueNRqPb7cqLWpiimRT9lK+RGsK0KugPS/CSj5lpRdeBbDbCTRqca3G3qzJz7a3E9DqAAZBsK1ccCtRqtfhBirCSyrw8iruTiF+uQr0WgVMQslGc9qB61IsSGePAned5s9nsdDqNRiOK8JWgChx/fBE0FE43J0ikj5Gfae+RxF0AADozbFcA4kOm2+12Op2zszOj94MxBngKcUDJBYUagJq7/+Rpl696sfxi2I8gG4+iKNrttmwAZOfLSAvt/S98HQNnV2SqLJqBLy5pVIeQN/VswMgvIj/8r9yjsgDv3ms4AC68zUgURcENQJ7nRoslrIKX5go/eUwhs8DqfYxrABWAUQUugJfYsix7vV6r1VK23FUTHK+GKkb/pcsn5K1snaCG/Qq/WibY8jzvdrvdbldfdK04HhDL39dpmWsAqSmdYtV4uLBMWAfluTSbzeFwWJYlvOfa+DRFYkgdw/vJUjCFHEAInxxED9HQiosyyzHy6xMCoLXj4gzysTLGOp0OnwHwL6oq+ijTaKRrj6lI3HAQwLDCawC++Aikw5GWkPaN22t9bwng7nQ66+vrZVnKXswnginRyio5e5URoaSLwyI0oduAFISJhNj42+12t9sV34jXOWWx4bWoYEKg0HLWACprqSjk633AcXwbJ3wLw7kwvQnMGCuKYjAYbG9vcwOgZMfXLvpsr87TRwICRtkzU2f0jzUbEDy+oEwmfQEAOQngK2f8Y9rCMMgWwimnmsVOPLOi7UquAdQWNZwUXXOMQB7/2dzcTPo5MCeFgGatqOLAPSZX9H07NAovK3CxNyLxQlutVrvd1k8EQqpXN/TXGT7MNQB8/Cd6PC6zeOIRyTbDsBXabrdHo9F4PA48dKX6dY5lUfT4TMjkgIz+lTn+zuZi97+sq4eAZMIH6DE8SD/dRs1ms91u88UzsQyAmU+kW7YNL0LOWPUaQP2DP87YSyIFYvkROvNgMBiNRs1mkxuAetrsD5hCIifR1yG80kMmFjKDwiwvAttsACwcQ8Jhx9gA413GWKPRaLVa4vOQsmR5HRips1MHZ3ZnEUZmoNCq1wAC0SfEYTemh8T3MSnRZwM2+wTUejwer62t8ThmSIlAW5GrVjdrFDdAn2g12Ck5HOWr0YocbiJjJQDBxltFUZRlKZwnpChAE0JvDzcMAEPVawAVzIy88i4lKF9NWTxqWRTF+vr62tpaOsVSz1hrTtWjf0R9Iq4QEEQtZQXIqx8WRcFfode/D1wNpS6x0jWACpov7oKJTul2BMUlMf8ty3J9fX08HpMlKCk6hdSrVlYh4s6fkCWBGoZ94k6MjIQP08fqM3JAP7NoyxhrtVr9fl9MoJm29TN6FCtuLAimlXkPIHrwB8MZ2NDLgkU5LtRut/v9fqfTwTRO9XAs4rMVl+tLsdA/3X6ecPSPFQvCr3gnmgHoo1hZBvAyNq1Wazgcip2gxhVgL30E+a4fROFRiq5uDWBZwR+8zLhNHCuvl1VT0JwfZsL3sclseJ99gTgHNHW7VUOxghsVR4R8s0QJENHSFY9bJwwukweRs4I6D+/57XZ7bW2NLwPw18Hw9gNWOHzghLuYK/kewCcykt4b+JG27XZ7uW8A1J9iuaKJ0D9WlqSWzJmuuPyLO8KrFJ2cM35hAMTrYDA/LD8uRREeagCW+/xkqmCZN66o6IoZ9zCMRiOxhEWWrF/LlAjdKiOabvg9LbCTjsHBKHF5mxBj6QBzeDpAiRZa4WkH8DfLsmazOR6P+/1+WZY6JwA7RnOCsRky4YUDcgC2FVgDiN4hyHGM6IWmFsJnAM1mM3pB9Q/pYCii6YrlLycSizcheMPmxa/Hu2XjZ4vaK3/j+ky2eim3iqJotVrj8fjly5cXFxfz+Vyuy8J0KpwuEPiLVzjF3Yq+CRweq6KxGdPx6z8YNhql8Ij1fsZnAK1WC+ZUEvULTrZILqZ/18pgBAYf8HkDI0K1RX/bxEUP8uhC5IxAHRUH1mtmoMu0dWkbKRPfsiw3Njb4udCKMrB6gRMa5FQgpIjanQ1AkO+F/nixHwDxY+CMZ8B9IgyFAH0g+geqBPMTYkpONt0YZC4zlsINikUyxJdlubW11e/3+aFAOgMsIVABMgOGqggBpZjykIWnnrLEVcOLlKk0/w6w/BUwoFyMPopbZMxok6NP86unKNCJZKOhv7NEX8MQPTFK1CiT+kMiG6D0N2NACUiRb2VZ1mg0Njc3eTRVfB9YKcsrCmRTDK4Uhsd3lCU3AEnRP5aEpWNTCmJ3nwIGtgDpFf8gp00ElInuv4c79eERHiRzoEBMdo6Yi8VCD6kbS7GRnBefS4ndi+w2w5Dneb/fHwwG7Xb7/PxcUVVIs5UFa4LRNpABoDpuA8XXJ5H7n6XftaJ3NbIoPRwpfouiaDQa4hgTm7dO6KO++Lgs+0GLM4Q8fS//Gq9eDdEfswZgq6McIPL1gjGEnJjaZgkKA2Os0WgMBoN+v8/9KnFXHm563igLADQGhqPaGYCaeJpVqgE/Y98sMg+PAoWcAl2Tx1EleaF/iO+cSCUvIRH1JzjvfAagpKfochjdYCTN83w0Go1GI3EokNHxckpDUlKvXyZ6CCjK5IXMHz6x8s0et76K60FWGJAjDABNuJgUe7VGrQxGdN/fKZBpQQxCKAmvdtwQf9y1AaRw2hTNKMo2FvDyRZ9XJPNb4/GYf1RD8btFNCn1oEhhFWr0HkBS9Cd42YFqLJ3yPBchIH2qqPgv+jWBamUVKoj8ILEeX1AiCWS/nmDMfENSRgOg29F0pJdlNAOMsdFoNJlMWq3WbDbjajNpLcGmc5TOH9ffZdKSdV0MQGrf39eTxVCI575AfCcAkw7LKYrC+BmA8NYOqXsF0qLniiIzHPdh5qW48Mi/i/vbfgQG6SEgMmHGlCCnjWHauW/NZrPX6/V6vevra/51MN0GYPTU2YQmUWDQK1ZRizWAmrvSK0o8BKQfAlErP70mlMLfTBE6T4T+Tp5A9BcpInFhWQSORXFlsrvNoN1udzwei08EG6P/GFHGxArmCjqlMgB6zAHgjCUzRZyHVpxXXrmzynVEphvlZHcGgKAk5tnV1lpUEPnBCImC/guNADaMSjqnLdGppFcWZSqAqRchMqmw4R8r0mXO87zb7a6vr8sGQGA3DD4yc4gONjlO+TYyfOfMawYRSNXgyMfp82K6nVOC8SJFuwU6g+l8ySzS3h5njEVOx9cFEOJkoyE7bDCUu+KvsfrA3ew+qAX2ZCcBjrl83ev1dnZ2Wq2WcSeojQIVg+XYbgH6yKSuASwQkaxwBi+2uIWGFyQIbitYzsISr4yVjkxxysTXKBbJWOBsw7jFxRISC3x9y42ugK8cG7+M8ov7cfP5fC6/C+YkZo/dY7CLJlkwtNvtzc3Nbrd7dnbGl4KReWUhZA0xonzlL20NoBo0iUXRtY1urpYI2U5K5JiHU8iEwyYEI7NK9CcrQLYiznLF7+LuTeDa9hCFms3mcDgcDAbNZlP2/avXJFahhhCQM0/40/LVPtCwR5cZKEHJaPN5nelOBZQnZXP/YfVs0jAKAHmRuQAiCCSoZIxdyH9tjwyfglEGWf0lor/T/Zc1F9d8BuDUGUMEVHGOCIUnz3N+NDSPAsk2ABmK8dIQEGW75SXEEAIKp7j2MEU0KQrVxLmOQnJdPqR6AUQGSgKPkz8EzX2FV4D+CvRn2kqA+JvnuQgBLWpwXKCNRMyKv1m5vr7e6XTevXsnFMb7ZGQFfG8hNUmyBhArezj6R5lqpFZDcSGNUR1bOkAL03v2CgNGZ99yYWl1oBBk9wJlApLSCkIKXzr66xkjhoAIJkQvl9nf5+Lp/GTQXq/HrVd2H/3xFUmBogSZ3iGgytA/KUVXoyb1kmlx/6jFQKphBetGGOiEs3jldfJXg/5I9WSUX9wn3166xK7IGGs0Gmtra71eTxyyIodflhixoMm8NwNIDe5e8mvi/iMpZALr6/XjyxKjjuwvGKONmKJ1TVbIhCDxCGZz+oO+8Gp0V5FyoqA/HqZh91+5iLgM4NvNvHx2TnmeDwaDXq/Hvw0g5MgKyDIjdvtArDPyuD8VEouiR36qoVhTreppPp+LQ0v0u6tbr0AKmRLh0ZmGnr4Tgoh1IUxfdE6B9eKvQpmGuYuo68BGglFevwtEgfhvWZadTqfVap2fnxttcGXroOGjONo20Fh1jjVLSNpqcbMr3r1XOkyz2UzerUxQ6QOLIDmrA8SjaZgYkgLrg1fAWRY58mP09OUUBf2zLBNBf8FPCFSmntzD6MG/D9Pv95U37UUgyLcsmIAsxnSv0mtxFhCNaoIptSXuWBEMgNKnY+u1NErk+wfexfMgCWPkfIvGmwRxy0kKm1OH5ZIcjBXfBuAnLSprACkC3YFZAKrLaaCVUSJEW0SKccdaA+CDajab3d7eiqm3s0RFvrF0GsVqnxAFovDozOEeOp4tHCiXiP7yXZmfMAOAS1ci8jC/jeSMStdljE0mE34o0M3NjTGI5FscXiV8OobNzwCQKxai4odNIVWGUVUYADnAusQWXqINCER/L9CEmfFgSkBqjD6+/F5NJzML3Bf4rjx9wew0AHAQP5wA+cbZ8GKxGI1G6+vr3W6XfyM+esjUqECUWwpVMQNIMexhmUmBBrOEQFYA4/Ub05ULdnfQynQ6lQ0AgMIR/f1aUXTfHy+HULSXux0d3MlTE/nWQjrhR4/wyH/Z3afhfSviaxLimhDGWLPZHAwGa2tr/FAgZvoeALLEiFEgvJ8tdFvJNYAPDKHS0Ww2u76+ns1my1ZkaRQ9ZhJXfohxihg28RII6COjvyAl+GO0Okkd/BTEN4OKk0GNawAYmIoIZTRReUZdvI5L1ejgazmN6+xOtpCKKN49OZ0PqtlsdnFxcXt769QN02vr0E+8KIo/S2Z25sUIt00IwtGfNvOwpQhw5xvPFPdfmQrof+XTIGxDzNbVMeTkJyze9vv9g4ODbrcrLwVnmg2AyasWtlxIUbqSLNZZQDBqhGQPZF4tils1Pq5OT0/F6ypeJaZoZ32anIK80CHE91QsLiwWZkDiL0ayk0IMj/Gvgv4KuGdSWFIwy3Iivq8u9Kmgm3U6nc3NzfF4fHZ2dnt7y+5/GZjFCzr5DlKvujeyGuzQiEtJ64JpK5gHr57i8hiddFs6p/l8fnJyMp1O+fATThYsx6aGs+7hjUOjuPARXhAG3AllhUM/uSAbg0BzvuFYvNIlo7yC+HInlCcEmQs05VtOeFW6GRKO8WxZlhVF0e12t7a23r59e3l5KaO/l7TMH7KcQxVPHmsAdTASddBhhUjMAERH9O06vg1eGRZXUCLBZ6dJJjAEKkAQIgO6uJAdfxH50eM/MrM8M5DlhNcFUDuFfMZYs9nc2dkZDofKRyIBnyxKuRGl5dEl+lLc0lPXJXpECyDFm/BK56SEgAgobyvLRhieWKMxHDiQ/iYnoKm91HB63EZpSB6ddAZf9TIQ/bnvr8f99eL0v0r6wr4GkLm6eggzjRhjjUZjd3d3Mpm0Wi1lwiHbACd5FWpLd8oxFp12G+gnh325NJvNTk9Pr6+v5/O5+IppFtVEKaIWd3N534z4Egm5wongKWP+YhgIMpF3kZWyob++1Ue3OuIaNp9JJwHpiO8FGg6H3W73/PycHxCdzt7g0/GDK89w/SARlEexfjIBdYlSBUxbKTzkcn29fr2gxWJxcXGhvAoQRYdw8pUWFyNgaV5wj5fj9MeN5oGG/sA8AF9WhkN/Zdc/IE0pV9dQXOuOBdzVMXXBEHK0sru9NGVZDgaDfr9v3Avki2/4WQIg36vQhO8BxLUZXg8mijLhjUsrNyItFovr6+urqyt5J2j0IirIWyv3EIn4BAsXhcfIhjQbtlww+i+0gI8R5W2KAVaqzsTuloKHw+FwOCzLUrwQII/6QOCiaYWnRmDZy8rrK3ARY/MJ4Vl6laswL0g7fxTO6XR6cXFxdXXV6XQILQCoBCTia+3krB4XnOiJzMjQe1psRRBQG18ivnQF/Rda8EcBd6MZsKWz+y8DM2l3EK2a4YTUgXPmeT4cDvlXgm9uboxTbWMPN050kLrh052cqBlACjf20/JAXLK152w2Ozs7Oz8/r1gfL+9edwCTeoU0lNQZAH/fWKMQJZ0WAmhDoDGBdCPn4m6TjxLstoG+UYJRQ5lTjqLYpNWBuHr9fn88Hnc6Hb7MBsRtlLxR0B8IBGFCSdg1ALxCzlvOuynIV9UQDRUHJ0peTLouitP79+/fv39vK8WXvJDdV3JS3KcRQRkjenr9xTB4mR8lI94kLO6v7spnjOtybBmz+xZCzqX/BSouqAIAwU/32+32cDgcjUYiCiTfDTRjAHYDifgSl78N9BMlIjG5Pjk5OTk5IQMrJletIDsiIfEIrr4X+vsKJwj0LUvGaPHCFwb9kfIBWgloajQa/X5/Y2ODnwtUTaGxWiZP0cRVBveR5OtKhIwipIfulReTbiNuAJJ+dc9GNTQMgEr6LeBRGoHPKdMJ1oEM+l8jIVVVMB3Y8WlEf+UCo5uuFRBAT02YYA67+0DYzs6O+FI84Jh7hWts5QY6/jJb1aeBBk6I6k81rN3FxQU/rsTG4DucbH6ijbkmZsBXE5rmeANDAHc8+huVlxEZBl8F5UXkJ9z3txWXwkHBPD4CaGYajnW73Z2dnclk0mw2ZQanMfDCQ0CglwRZlNsA+CIazE8YUbQnhLxr08erTcl3YX18ZwPGcheLxdXV1fn5OX8dDFOunmK868QvJ3+V5Cwdr56tLk6ABm55gbuSokOqUbiC6bZnqnPS0F9RD6iFKAVoLh1/bZwVkChdwCiPAm1vb4sXAnS2wBKBqYMtHWNpljADSMqfTshqkTyWptPp5eUlP68qIg6myF5bcjq2XrfIxcUtF6iUIOWcHwL6yzIBTVa65zDGWq3W3t7eeDwuy1J2tGUesvAo6UaiGwBCfWoIxL4zA1/ylePr9QNNKthub28vLi5OT0/n8zmm06SzAdUPcpu3q7M5U3zLxQvUHXY8AyGv0c3XSXj9yiHPBPTXFZAZkM/IywVOQUBZ7O5coPX1deWFG+UakIB3233TAar1F8FqaDBWkebz+cXFxevXr0M+DWYbzHhmcasydw9ZChlwASBWspMRPFZeY7MrcC8uBOgjfX9AW5lZ10dm8F0DiAUOvl1RL5en5Hne7XbX19dHo1F2H4vh+JUXasMmBC9BUBXfBKZRNei/sLyJGqt0+NnD+iheuZ4OSxN9ZbFYXF5evnr1ivtxxlx8GCjzVhuzTWFMemryHc9R0B+QAMj3KjokL0ZtBeL1430A9BcMmCoARTs5menlat8nnogYY0VRbG1tbW1tPX/+/ObmRnwrONM0jxg+AURhSqnpDOCT7x+Xrq6uXr9+fXNzA3tw+i0kdnil14e8NEQyw2zIZo+YF761MB3rppzsn6HRn0x4G1BPEp7TZDLZ3Nxst9vC/UK6ayHlhlB1M4B6YjqwBhBdYYxAp9dP0+3q6urNmzfyl2FgOeKWwuDr78NF6PJpRAMOIFhh/Cs7cTa2iOifYqKggLXu4Cskswkhejsg3XxbupinZnfTVq8H6sufiLgavV5vMpkMh8PLy0vxcTTbPACWRmNY8hpAPVF+WeTbGolab7FYTKdT/mUY30ir7pfFnQfQ/D4jTvlK8OKxucCAa6xzYm7p4Atrrv+F9dTRf2H5hpdNgeyuozrb0Miga6gXGmvgVA9HRVH0er3Nzc1GoyHrIHtyxji+EpqHS4lYX4cB8JKYKG6elGydOIUOelnOIL6RDambPKhub28vLy/Pzs7kKBC+jkltQHYfjDCEVBsozpkeWAoMowD6A3rqdfcVqwAuvm3lZaFYj0DRcIGb18o8ttU7JIymIMZYr9fb3t5uNpviXCDjZNoL8ZVctlt4CYIgA7CsFqy+0A+SZDdtPp/zKNDV1VUU4dFtQGVUvSZR0N8p1nlLB1wAypO2kj7GF2neBF4KtdvtjY2NdrtdFEVcyQA24tFfSYEMAOAO2AK+GCVqRXCEGsOJ54kynSIYSD66ptPpixcvLi4u5HQ4l1Osl3pL7x6w64q85XtNEGX8q8O3TbJRlHzXODsRiU7jEUI24XqNCFEggtefwt1sNpuj0ajT6cjnApHnJc6MzluwhCoWgb0mOEk1iU4rVLXb29vnz5+fn58Dc23aLYUtq3ZpHUO+pq5ixEdOEcjayvAqAz0M+plkG8x1A4mQC5lFntqGE4u3hsxFFUXRbre73S43APyWXASyRJo36Tu+KCEgYGbgxV8H8q2LL081pGuipCwWi9vb25cvX56fn+Pn2rAfqjM40+FbEWlxn2BOWwqQN9zH981uTDH68sq1gv62Em2/GXXSaUwHIELPkno2KeTHHch5npdl2e/3m82m7P4rJToJUDtieCDaLqD6oOGqUMUtNpvN3r17x9eBRWL4QErn6JEpRD7BdAX6+MjSnUJs6I/Rx1l6BX3VWLqz3FiKKdAcKKooCtkAKEUECifcAoi4BuBVRp1tg1E3pMJxgSyiVc9Mo30+n5+fn79///7i4gIPc74hCDhRvhux9fD+vp4R+Gu7RUB8+SHaCgXSnXMv3d+XL4wMRt2QOjuJEAwwZokFQRgJOlgTSuFZ+IeCuQFQhIRoDsf6Mdl1qtFREHW2EwRK9KRp8vmwv729/eWXX16+fDmZTJToJDzddpZl5HHGEOThXaXRxVisEMQPEYWxSU4TooO+U8kqKVYAhywHP77wZolJb3sVRTGZTORT4fhd8QvIQaoafpdTzDUAG4XXM5AI83oMpYD4QJI7nJLIbcCLFy9evHgBe/FOP9rX5cc08gJHTjkY+U4NCSgPlIu/Bp6CUX/5r3wh0o0Xxl9YcwIh59bGusNCCDwh/EYJsMNUFMVoNGq32/xVAJvfZnTJFfKtCDKvoCrOAvrAXPtlUXgzLhaL169fv3r16vb2FrYBGFHIRILwiomA/nhp+HTfsmwmBIDUej6FBTgHjWsDImIRoHCe571eT3kVIC4MxpKWfA0ghQ0nUJS6kEkpRf8bRQ1diPD9Rcrp6enbt2/FQSVI0lsPmB0m8ihp5Jw6INE/C47jw+mA1dH1V1BeIZtAmzIhyBuFYnV+m/Pr6xR7FWpLb7Va7XabfxzGye9VIlARpHw5TlDT00DrT4lAPLv/eIBZnk0TY4qgm5ubd+/e/fjjj/KZEIIA+AMwSCfABqQ2A0Y0BNiURON1pmGuVzqgA5xo1EGguXyt8AM8enGpn4hCsDOE5wHSs5SgjyHGWFEUnU6n3W4b7xIEwriPiRfJbOKiijUAmJbigwtC1sWpJNKrcua1uZnOdHgwiIyLxeLdu3fff/89PxkURgcvzb1uOQHaSwdfgQTk9bp2amsrGhBuvKXYA/muU08v+5R6kDrd5GVBOZkYY4PBYDAY6OkZ2j4heUIkfJoBxCffnpqaX6bFYnF6evrDDz9cXV3JUSAMLvjiNYY/0AYQsvuif2Bx+Fy+psVpNrxKrwmFgF3daDwej8djJwQHxnMAwkiAtoEu0F/Lqv+DwdclnGdhOcffmAL4PkYhTmWc0+eLi4tffvnl9PR0MBjkeQ7orzcaJkW569Tca/IUAmdOJDXy2Ewj0k4gPXHfSQaQHaMzphmZ/fsHSGKWnZq2dFoR2VKNnFwXRZnxeLy2tiaPYpuetKBQFFE1eg9gdSmF/Qu0TADa3t7enp6e/vjjj6PRqNVqwUXwLqsHoDChKl0UplJxBzMsDcZ0fISHDN+Bomj+fsgsIRbgRrQB0aU5y8pwfb7T6XS73aIoFndfXGDSewAEhX2dPwxPnDWA+k8zQ9YAdB78RBWWHyv4o6fDEHN9ff373//+3bt3SBcP/8QXd0S4G4UW9wlmU1Jsf/VbNjimpRufgrhlzO7bjEZ+/EPHd2kbAVNhr1GQLmASUrqRp9Fo8FPhjDN45KqG12oBQciS1wDqHzvyJTgCk7q+SPk3Nzc//PDD+/fvbZtBaXYRT4lsAFks0iXH38WnA+iPFOurQw3Jy56tCmjked7pdMbjcfQPAygU0iBVnAWUmjC2NKQu5Pp6ob+va4OXprTPYrG4vb199erVycmJ+Eqwcw5h9KmdLjaGIRynvORgamEEZT0FA9mAGkou8QjI6E/TBzM0bLMBJzk9U6cazoxKWbFm1SGcQplOp7OxsVEUhU0x2MEPQSfk1OHTLqCKSDcGyIFh5IcnkkqKEfKurq5evXr19u1bX+cXYxiMDFGMwcJEcBZYvrE6xlsZGm2dbEbJuknwAnfkcww3t2QC+upC+yKYE/toEQ+jPuw+weViSAjpdrvb29tlWSqKOdV24oONx7cWy3wPIEpbZzh9yHVxwqsRl52klAv0CZ1fZoZdMz1F4OBsNvvzn//8448/yshoAyYM6GPgmAzxeKzHq6Tc0v/CzAAnfO00Qkg5gEyvhsIMDVuX0+86PVlbcXyZFKGvHwFD0lacb4MA1Gq11tbW+PeBkVrZCGkY8EI4fRQzgFiWJqIozJDAlEXTh8PZixcvnj9/Ls4FcmI3XnggQwUEIya5KZBGwpZoBHQvmTBV0/KEPkmw7uEUERZs8vmXYfihQKI4Me3wEhVFHz1xmWsAsR55iD4Yr1kmvM40Q22z8Ervga8BmTLbu3fvXr58eXp6KjtfgLtt9PqNJTp99nQDHi7aeMtZqRB/H85uFBUo0/YXmS4IP9E05sVEMGSBcghIQCRcFnLgGx1ngmSCBPF5SH4okFBDriCmrYCCMksFlVs2Id4zgNRm84MkpDEggLtXWTItFoubm5uXL1/+0z/903Q6tfE4E2Ggz0Csd+aFaWEiXzVSo7+Tf2GffiEthy1L/UkAE+YJAhJ8LUGsubWTh38eEvPCja4b0ojaeJDVpKwBhHCG59KJ3OkJCgBeABKyQ2rtVZxIBHDqzZs3//zP/3xxcQHsBzW6zDBQIuXod5FCvJDCpq2xXgADDf1hZPdtRmdxAKfcSXxLMeaN6wsSOpVMFTimNONUFMV4PG61Wrr7D2e0pTuR3csifhRrALGIBuupuyaM/oACi8Xi/Pz8xx9/fPXq1dXVlW//ptndil1ULzuBvxuC/oH6kGViJkC+5OUjAsyLxWI+nydaB14uNRqNyWTSbrfJc3ov8pVMOQuobrSs1lTcInnuRpCA9+6BSZ8zUfnLT4f+93//d/EBIxuz0e9TegjSN+RsgFkC8mLIKcEJ0zADDf11rx9zgUz30jPLMqadnaA3ArOcBWRMZ3eRHKMEeWgAhk2fhgL81RMNZ4qiWFtb63a7eZ4v7of7MHMyvC9P41naDKAy05KoIAwK6+Ab4gUERuSMiYvF4vr6+h//8R9fv36NnIAjQxzOQI1XGMdJ+BKdoOmMC9luYXI5sR6TN5DCWx4/39Udf9kYyAGN+Xw+m82MNiBcqyWS+DpYo/Ef3rYxBGQM7yBh3RlNAnjirAEsl2i9GY+SzlvOuzoD8Nd4bZxeAOmYQjnd3t6+ePHizZs3xigQ2QbId2FQBvLCMr1An1YRGXzx/jXSSOh62u5i+L0eCixZl4CcdOLdVZ1zsVjMZjNRKA18YLALJK8mFSjPGGu32+LrYBh8B2rBNPKVoNCHsAYQ63mT5QQqQJ4WhDtHi8ViPp+fnZ398ssvb968waCkMdE5NiLagIiOMJkBif7O9IhzoNSEtAEhJBuAQKqP88oYK8uSfx1MtgrirpeoiGyc0hqACh5DxCLijkbkZAJAf3wvgU0IgP5Zls3n85ubm+fPn//888+Ap4wMntCcXMBPxzv7vsXZNNcLovn+8l9jutMk4GcSKYxiiD9EyMtnAF6fqsaoEREffGMGgqEoil6v1+l0bJN7Z3QBWREMmzKBsC4C18eELoWcj8R5jZeGz+IsS7cZGHuwWCx++eWXFy9e3N7einNLbJxy4sK0TWCBW+N1MhAIzkubytDQP3wegJGGueurDIGYaamWaV9K0QtV+kDEGUBcwqCBsQV4ep7n3W632+1m9mVtvYni+vs2tg8hBASQFyLbuikgx7fcDGc8vIJCGNAXiUbJi8Xi9PT09evX/K1gwWD0u5GOv9Nn93LnAcJMDmx3nf57XPQ38hszwnVxCseUayRgCACcAI/uk8rup6JYPQ0ApqYAXPBr/n3gPM/lYWhz2OF0hZzKw2wfsgHwQm0kZGNu0UR5UfT52fX19Zs3b3788cebmxuyR0ngTwpnMI/T9wf4vfIiqx9Sl4gEuxFALgweAbS4+2wWWYKNKghmOIvo9/vD4VA+F5rWznG1ylbdAMA1tHUmpPNiSycYbXw6oI+xx2C8flu67G8u7t4K5nuBMJEQXxCEpwLIkb+4TxhmZ7qxLgCDc95g+6srI0/CMBL0B5rUJOjOe4oiBKV7EUzXHO9BexVhlMkY6/V6/X6fbwTSxcKl+BpXL/5P3wQ2kBFhk+a14bixM8G59ESMr7FYLM7Ozn788cfLy8ter8f3LC9M73kpKToDUJAuQb8bTkiX35iIsXy2v3Be/drX5Y8OjizsNSvFjbAlIkdBuhmArpgyXkI8RSQ/3wjU6XSur69FNZllmYRMBNd2hWcANOvt5SnDbL6TOCfKe8mHEzHor2D3dDp9+/bt8+fPz8/Phc+r+9oYxx920r1cfjw5SzSmA3+dDEj0NzYgbBtsMpdOSFda9uudAn09XCVveBayAnjin4ccjUbiZXvjVABJzEIYflUxQvErQUkfJ0G+jd83HeD0Uklnns1mFxcXf/zjH09OTpxQiLwFU0SAI6iHiSDh/5ILJauH5IlO4T3WRki3QAGyiCM9HWiwu89DNhqNQP3jKrmqBiDpo4qSN+SaoJtRlM3ZMUrgkwCbAcjAPSrA0IVHdeBswJkdMyEwCoGdfZptwM8wAtE/omHAzz4z0NO0TRTI+iSyAemo2+1ubW2JZYAM7boh3XwgI8DjtwZQk4Z2qhFLTxpw23o5Mt0mH99dbInO4Tebzd68eXN+fn57eyu2rMm0uAv6C4iReYyJzltIBhu/LwMBu70iYBhMh6NAGLWjE/NcDzA+dxsDkE6bv64ciRmAvA4sj6YUkIWhCIvA6aaE0cV6uTO+AsX1wnQyKAC+yuP3Qn8jssNZRAovV747n88vLi7ev39/fn7O3wgDbIDxr0i0aYW3BDTyiqj4GoNw9AfsQSwKl6YYA6dtAOy9jcFIdVjz8DWEsKhMqlSj0eh2u/zzkMpyd0ihvnMCJSU0BFRDux3YIs5bTivi2yb4uYVTE8x0AeaZTqdv3rx59+6d7qUKIkc8lkUhtSAzwBGzkIKQPCEUGKsJGQ716TYwwdEVfXDled5qtfr9frPZrEI/u0oymQ0A/pnZnlYKw+AbAoslH0hXLoBrY0bCNZAIz6aVuYLNPV8sFq9fv+anQwsbgHF1MdF25C0yYYDemBjR2Vf+yhdGm+obg3ISIUKI4WQSIbM7mZlGgNvhpW1qkscR0lFjjJVlKX8cRm4ijBAj4XMZGZbzHkDFT8tWYogaToFJr4ELXR+AR0nhA+/t27dv3rzh5wIJBj10o8d5bOEdzNqArQpO8l0LxfjjeIyG8ypw5gz7JHJ+mRbSyaTHZ3uyCqciMJZi0WVWQEjE16koiu3t7R9//PHt27dKy0dcBkAqySnUANiKWVZ98Pog/8JsthKXiP5GkDXWwvi7WCzOz89PTk4uLy/FJywUaXIpxnC/bQ0AWBvIosJfoqmAl/MeC/1TR5CcuJ8OmvVuuUJmQCaMSVgsFkVRbG1t9ft9vgxgs6/p1BCaiOtU20CX8iCBQr30sTETjFCKayTBkwOArq+v379///btW+BwrpDAReogL16+V1jfa83Aa9KA0QRPmMluCI9vd2J2MhZHjgLFokTYxRjL83w8Hvd6PeNm0HD5hFxJQkDRWzBQYBR9YDhe4jwAySZ7+jaFsyxbLBa3t7fv379//vw537ZsZMtM24F0yfBUANbEl8iIbEwkOPs2Cca7eM2Z/xYRYxZmDwQpiZn9wYU4Ik62+rj/QJuTleTjpd1u9/v9drt9dXWVgXHUiEUDph1rADAuQ4iocOYQsWS/e4mWQElEGgmjVgrbYrE4PT3985///OWXX/IvxTNLjBKZCAcT4LgQhgKXAWKtAcCIH3E+hDEJCpTLiRjrq3eqCqg+BiAj2V2MzDzPh8PhcDh8//49Hyk2GxylOCcP1gDEiuknQn8vIbHmE8CFrZSK5wFKopJrob1/INIvLy9fvnx5enra7XbFrrWF6b0VvGHIQKzHOz6BER48+uPXA5QsTpcf1hDDg4cnPOgrDFFccowJxCvmzE5ukxT6GKUxxtbW1tbW1n788cfFYiFsQCx746uzwQCks8OrKDlcfjpLQJh/wNlF4s3Nzfv371+8eDEYDOQokAxtNBsA33LyBw6SEEReCvoDFAIZcD9hdwTzG0m3r/r8D46uLDH6Xw2NRqPxeMzXgbO77h3RBnhRUAgokDN1iV5o6CsTUI8QwKFdA4nw7ERPV+7OZrPz8/M//OEPGxsbg8GgKAq9UIwNsCnsG/bxGhj4VVaCs2/LJSOd12qEkwBcAEwszGnsHsbrcELiWqzpvnNBRbmO6F44C+Xye73ecDhstVqz2Ww2m8noD2sS3Q3NQhaBfbVJZEJSTNO87iL98USWAGkPYFLEiknAn/70p6dPn+7s7BjPBVLIhunIsE/gc/TFXKc7j+TUf311w5Cvb4jpqEr/iQv6nASiMW39WfQKm2EmKxOlrSKSMrgWi0Wj0eh0OoPBQHwbQNc5rgEG7qoGIAqghFAs9Ce4//JfuQvCyK6kkMHdSM6JiK6nUb6Nxwj9XOZ8PuefB9jc3Nzb2zMqow9U2AwANSIMAFqMBVgD8LqWL/BzDjJ54RrcP40GwJgLT8rzVboBAOg6PgLVDAci2LTIyicixhj/NsDa2trbt29vb2/1topVEIatouOgU5iQdFOQzAKR4YQZBl7MGCtl44EH/3w+v7q6+vHHH3/66Sf+oeAoMIfkDx8GvujvlS5c/mrQ34v0p8wpvyN+zTRKqoPOIJsiWYHU+JtOOF6Hbre7ubnJ3wZwthWtCCTnvRlAYNnhquMlwJwYnx1gQMIx3uvHF0ezEL66OfPyQTifz1+8ePHnP//58PBwMpkURYGM9cMhfuQEnwwESFhHRvaNF7aYT03AS5/wxfL6nasRxqmeHOVgptcRxDU8AwikytDfWVC3293e3m6325eXl6IvifkHYAujYKxcRC2+CUzzzfF3CQBNy4g0PBj0d17TDBLetvHE8/Pzn3766fvvv//qq6+63S5Qd3w4CL5FI681AAL02/5iSq+GjE/fBv14DwkOzcEIJRsDOKYqaD6f870xiswqW7iCuUiz2RyNRp1O5/T0dDabZZY6xhogwCSjYWOC022jOtAXhsnLi/dKxLv/wIWRH7+W4HutJGLUhpUXYCHTbDZ7+/bt999/v729vbW11W63bWXZCPD3Q9b6hATfu3BwH3b5jRdLIYz516EfA8FwQZilGng9wEjOBRVfH7EOJlkmuSmyLCuKotVqDQaDd+/eTafTTDOWEQuFibIGEG4qIhZKyAWgf3iJmYaqvtKiN2+IwMVicX5+/vz58++//56vWWVRsS9EFCEvZpk30/BIjviTi45IutkWMX0R4pdj/eKunj21euKv0wvktFgslI+lfEgkP4KyLEejkfxtgNTPxUiUEJDRcSNoHwJeGE5fxAyxBDafmiYNFoWZfDhHu21yoNPNzc3bt2//4R/+gX/PaDQa5XmuZwEkwJ6+7zzAiQ7RHX9bxD8pIefNOrI7J6m+Q9UWsrfxCDblyWImAQL9w2eHCtEAyuuhIzs5v2g0GuLbALZYmb4eYGxY5a6XwmnXAAho68tjY0sxHfHyofCWwCktiiiAx6nAzc3NL7/88vd///e3t7dfffUVfzVscfdFScwgCV8Wxpfi/GuL9RvNwFKiz0C6Dv027z5k9PmCvswjnjWTFn7h4jKpFrzNowzVap4dTdU8zzc2Nrrdbp7nsoeh2ANjKWT/W26W/7BDcP4UMIqREOL407LbvCSMI4ZxyW1ivcpFdgLnBYwX+mBeLBbT6fTnn39eLBZXV1efffbZ+vo6Xw+wqWokwnoAAff1RGAJFzAA4QEfcjc2/lV+nX0PbwAwcO/LiecBtAo3A0ltAA1nuEp5ng8Gg26322g0lHXguGrDHaNh5PASF84ZK6Nvdi+zR2NDemRe5XpxArnwuvHILF8MuLy8vLm5efjw4dbW1ng85h+NCfcJsqizfkxIx/m3MgLMsBHujS5/SNPZMEJvCgw2ETRR6vWhrgHIxF8H63a7rVZLrANHtwHOZ9EImScSOGOJ8sVu8qRJ4Sd7PU60xU/3jLl8PUFgEqDHKznxV8NevHhxenr64sWLp0+fPn36dDgcNpvNoij4woCTYq0H2IaH4t3rDj4G9GMBEFwdJO4L0tmMosL1NIYgjJzhZOx+/BfZo/DyI5KvWGO7NRqNXq/X6XTOzs6UZQC4CMVUZCnWAJwgRSMknNF4yOhPAF+M50WwBDbFCI/DCBm0xyq6L58KXF5e/vGPf3zz5s2///u/P3ny5OjoaH19Xf7IkVMaUCgMvphoDwz6SljfifX4oIfX6NC7gUB55TVdnSE6KX53FKeQkFdUGbbuiRrBplKmdZIQBeRGzvO81+v1er1Xr14pOA53S30sk1UyGwAvmMAzh4wfTO9BpiO9J+MQxSigW3u88kbv2ygN8B91Hpv/6HxMMvSL9Pl8fn19PZvNrq+vT09Pf/rpp93d3f39/c3NzVarZdwjpFOgL6mDuBH3gRC/fo0sFGO6kJ1Khnj9eAZdTpXYhyfYa1Hsit7gcqvKXr9tXhJ9FgJTungUY2wwGIxGo0ajwU9bYVUtAwgKPQ6a5lFGyULLTjAzGOFIa+yUT7BzZAuH15CTbAyyLLu9vT07O7u8vHz37t3Lly9fv3794MGDzc3N4XDI9zZgrCaejF48v1BGi84jp+vXBE3IPVxGdiPo26C/grC4b7+V7yL7sN50isejiPqQSJ9GLBaLXq83GAz40dBKZ45rA2wUtA001qMi9zyyWCMPHogxCgdaGqQp8jIexrwwTCvy9a45m80uLi6urq5evXr1ww8/HB0dPXz4cHt7u9PplGUp1gaMNsnWv3WM4MTPCZjNZvM74hKKoiiKQscOggFAtiEwFdBrKiO+wH35jS18uZWRsz8QOp7NcIrOIO7qzas8r0SxICPmKolRCmV3+/07nY74RLB8BkZImFQpCGaIfxw0BkqQwqOjP+AaEywBBuvDgR4AfSObAui2C6Bc32bn0Hx9ff3q1avz8/MffvhhY2Njf39/e3t7Mpl0Op1Go6EYGzioqoRrOOjf3NxcXFycnZ2dn59fXFzc3NzM53PGWLPZ7Pf7o9GIf71SWTk0oj9cF2O6sU0URDNCP2OMW0EmnccJg75Rh3T+oG/PT2SrRHMpj6wy02jrnLbEKFSWZbfb7fV6/FAgOVwGlBjR81YNAD5+ndQqeMmH/WJbIs1flgnTVsaYvpEfaQlgNtmHwkC8Uebi7g0v47XCKV9zUJ5Op2dnZ2/evPnhhx/G4zH/BHa/3+cAXZalfD5Bdj+AIDz929vb6XR6eXl5cnLCQf/q6urq6mo6nU6n09vbW+4u5XnOt1Ksra1tbm5ubGyIRQhFScyqGkBKIBtoWHb/PIY8z8XsRCZbgJtQdAhSGDsAZvjgCdAfCKZh4mzOlsGTMtAqiL1wyvO81Wr1ej2+DCA6BjzWIpJjBhCOkrGYA4VE9CMAQAd4QuwZMjvGfQNk+qqqzNn5NfdiuLf+5s2bdrvNP4A3GAx6vV673W61Wo1Go9FocL9YPqZmsVjMZrPb29vb29vr6+urq6vz8/OTk5Pz8/PLy0sZ9zkJnD05Obm4uLi9vS3LcjKZ8AkHEl71uuBJRk9RFx6PUs7kUfQxirJ5f048sjFgfAVC//QlQH+9pvyiMvxVypVTUusgug0/Fa4sy+l0KpwVXYHoKnEF3KeB2nKGp/vKJ5fltGo26MRAvK+ShNIBOUaekEEOtBXSWePddDabXV5eXl1dvX///pdffuGgX5YlnwQ07khgJUf/m5ub6XR6fX3NPX15UmxUlYMs/7Yqf7Om3W53u13jR4xh8rUBsjvPJyLc2ecXmI9oGktX4h7GMIgxRuHUVr7QHf8UBsDmoSND6kqbrC4B2M0NwGg0arVal5eXygzAFin1bRCgkaO9CZw6nZzXC/0JKlVgCfREfQDbeJx3kUbOWU19fVhc397ezmaz6XTKpMiPHAeXx/lCIpuHKP6yu0+ITKfT9+/fv3jxgs8AWq2W0+nWxSqApeOXfMHunH1lQiPuOhvK2G426KetQ8ZyCzAEmCVgyUepVwo7RCMAtX3lwHfb7TZfKjs7O7u9vVVGUEay93jyexPYt+Doj9NLW4JA44CB4/g6vxeP0zZgsgA8ygW8NmD7iycFtcW1KFeO4Tg7GMbqCJ6rq6u3b9++evWq2WxyRAYyKhgEuKh6RuHp81I4Zffxy6g5APELyx6YkDA33HPCDYBzJT/uLViT1JaDZg8wWpVl2e/3+/3+u3fvrq+vM/DRR58M+b0JvFwKGQOYuzaH12uohFtN37xePASBmCzG9QB9TpCZ0A3AYmNwSTiwwthwo3Jzc3N+fv7LL7/0er1Wq9XpdADlCZChuPyK1w+UBQi0xe5t6wE2OUYFnA896RgPQcyVjvkYPS3gWRdF0W63h8Nhq9U6Pz+X54IVtAP2TWAvJHUSoUdGQX+kfNu1l2SMn47UzZjXax5gTEdOR2hkDGKmI24DptPpq1evRqNRr9fjJxQJBt2uIB1tdkdFUZRlyZcx5I09xiJEQYooJZ0hIj/OhwI7+EbF4HSb/s7syJg10qWtwK+HidCBncNTX95njJVlOR6PO50OX9ACFLA1KY0Y8nsABPT3hfIQA4MRGNcxV4SQ/XSkVgQf3xc1kMbAiXey+2PbyuLr4SoKKHnlIcHfSnv58iXfWy2fS6GUYlyxyDRLIEN/s9mUj73DtDOMgM71XicCyg8rRQ8HJNj8WSMDAFu2IpaO/gTCK6x0gLIs19fX+/1+o9HgH93jZJwBO8vyCqMZDIBXu/s+P8LzjmJ+9BmZjR/vRgEpTkfAlqivNxh1cMI3IMeoAPy8AE2ccmyrAvq14Ef+1ePm3AacnJy8fv16NBqtra3xPTm2uJOOuUIZdhfrz/Nc7FyiOf66/nAbYojc03zJZp71p2xk8PX9jbk+JDIij/g2QFmWV1dX8l29w+BDghhCvQlMKMm389HQH58FA17LIhjijWzGFIwc29/obWKzKMh0+G9msivZ3Q6iq6urd+/evXr1qtvtdrtdgdfKUoTRWHJRHOjFdlVxpgXeENqI2Wc8+i1MZ6hJZwbqRcjyARsAIzHG+KpVq9XiR0N79ZMQcr8HQIDmWKKcnRvZ+yMOEszAC58HwArjm8Xm+8NmAKMGMGNTAkE6szPd+VeMEN0q8HMjzs/PX758uba2xl88FnWBvU4m7fApioI7/gToh71jso+VGvSdUR0kp22Wg4z/iMkcUNZSKFGzcwel0Wjwt1j4X72HE6YCmKKhNQCagx/Ll484vQDyIj3iWMogLQFwCw/ucfsrTexSIrn8OIqTkxP+KjL34vnkgDOwu7cHxOQgu3P8RbhfQL+8yYdWF3yu5cI9AeuNPEbMUnLB4CXbAGT1E/W0uO62TTjve91uV3xmVS9dbz3YP1Pk2DihbwL7xvGBW2SY87plvIsXZfM3vRxzjNePdP+NOsBZCBd4i2IsGkmY9vQFSkAxfjjdmzdv+v0+fymM47hxci07/gL9lQOLvNRD6o+5G6tQMtzDWC/zIJcBdLH6grwtF0yraAPkUowRS2MbOlXCtwP0JnCUkU/IQn6KlQ3RdEUjfcBw9cjgW2eSbSdfDT49Pe33+8p50WJoCeJnOTSbTX5UEfLFrkAljSkE9MfAExLFMMjiG5v2AlC5zT8GYlK0h38imO9ZALZOxCXrm8AE9E8NmuG+P3I24ByEvr4qQU5I+ye1HJxsq7IYOcg1AF9SRPEvGJ+eng4GAz6zFq8FiIKE788dfx4vEuivi7Wl0JQ0JiINgHM3UTqXX7ayQF7CSoDC5tsf0lmOaiYB7Xa73W7nec7POZeHSaZNBZBPEyZmWwOI6OanTrfddVYhohMd2E3JRkJmwOigFAQYDCNDyADziudiCCOKrwafnJxw3yrTvH6O/tzx575/lK0+sMKB/j7A7LQKmSmYANxVGLxi+gpg6bkAtJIXbFaFAjsJY0y4IPKrANn9loRbz8sn4+TxRTBfdxXOElEOEv1juf+C9Pb1Qkz5WdrkOIVjzAnei8fz+7aMTT5epk2UICPD9fX12dkZn1nP53Nxeo9w/FutltjmL59NTdNHV0+/jmIAsrB4vY2HhunALQCwkKYFT0l3HDgnAeTSheQ8z/lMdDqdikmATQGMHcXoE/pN4LhZCIQsJYXvGWL2kCM/RRv6AhzSvuLJNlSiD+DFYnFzc3N5eXl2dtZo/MdyF0d/fmIo9/2Nn66Mq4nTM6CNL3K8PkQ+IJZcIjNt6v3YiBuAdrvtdSJQ4FMO/SQk2ehF4aRBWNwZvU42jx7j1zuLQz4g5zyAAEkR/TI50XadmeYHgOFUpgI8jMC3A52dnYljfBhjHP35ezey4+9VQd++J+sfC+mcLr+x5W0MhDAOINCrIJ2BEAVaOfsho3yWZfyd8263+/bt28w1AIFwn/F52fgbCp9vBbz44SxRSg9RCYZIOHss7PCqlK2LhIwEr2lNiiGH8QTx5fLtQPwjM/yLlfyNGy/0D3m4sCUm21RM0cj9l/qt1LF+jJ41pEBfW5emp/APXItPJGVg8yK7AZCYJXoT2FeJpPyw+w/7m3C6TICvanNvjdLgsmA1MPxG3bzamdYfOCEdf4wE8WvUUJbM3w2ez+d5nvNPVPKvE4uzfTJEO8AEYDpsAMKL40QI92f3e6Yto/EWDe69AItAFQSR4toAXWCz2RwMBsoB47bnGG5HGWO5k8NXKCFXOv4ojjkGkW0pSHcvBUwApaQrIjUZ2xOoiBgVZVl2u91+v89PCeVxf6fvT1Ypu2+Hkj5WpFhfdyqwuJBcTpvxQRJjrCzLwWCgf9RaYfNKh8n7k5BO/lj6hdefjM5O1Mb7xYrHCucllIWBGKduCmdqtCKT7vLAqopJNB9Xk8lkPB7zLwbL0B+lZzofBP65wLSs+E9gOuauQnVYA9BnPOGTAL1jLO5e++IhIP4iOvBhAOc8DE/QJyEx2mPu+mbxdVUwieHDL6IDldlhwpmIR2cautWfkDUS6N9sNieTycOHDzc3Nzn6Y77ciywLwP1YiO8UEhj/yTSAA/jxwWjA2Djv2qRVPCFIZ1H0RF41/nWwVqtVFMVsNpNrrbeYbxsaiXgYHJ6/Duif+exMx7v/GF/e1/vGlyXL8UKfWLpVSYrO4hfWkzHWarU2NzefPHnC0V+eXNsqhamssZPoYvHtBnM6NwI6s2Dg2MvHxDDLDL7b1ZVdQKKfA3JoawDIxy3KDdxZC9/lG4G4ARCtqtfamEJTyboGEHdmEJ4lEIMCEY1WOgaFaWXh5wEE3epGBMciu9tVvbm5+fDhw/39fT6zdnr9EdEfT+ETkbjF0cpN0X8+qjWALMv4GyqdTod7KiI93dj0Owoioh6JpsMYtpCivXztQAWcZdn+huiGVy8uAe6bPMsx7raS3VJxXRTFaDQ6PDw8PDwcj8fAW76+oK+UrjAEmnavvEi32suRxyRmFqcemArA+hhJvA3gNNt6EeEENDg8EcFLM7Lxc6GbzebFxQVQKKE9jYT9JCTNb0qdjmGm/Y3YCLQsK+H0BZIN9MP38/FRdHx8/OjRo8lkQkB/ZzrN3MKk8DsHti4/ytovkIi0DUh9CBtDbeBbQb8l4yzSeollAP5tSLEOrLs+meVB6Aob88oU+iYwcDew99PSfX1t2t5/IMULIIDsTsnwX6RuQI2qJ+eupAz3jBhj/X7/0aNHjx8/5h8F80J/JPTbGjOirwoMbEwWACiRa7l6IsHxx0f/yfH9OvTeKMQYy/O82+22Wi1+elXmmgFgmhdon3trAHF92ChZQtA/ivwq+xYBOz6Yri8T2aXgQN/pdLa3t4+Pjzc3N/n5uvjeUgH6V0a+iBlolmI5glUSTbekKxNFUfR6PX4sqO4A6RTYvO73AGjPNYU778vsTLE5g2T5QC7afMKrLLhcgCercOePPpN1qmrz/hQ5HOiLolhfXz86Onry5Al3o4zCfdvceO3sM85bNMI7zoCfaHTb9USjBK9pBMCPzJ6ZmlrfCulL1VgmX383z3NuAMqynE6nzPR94AwXApLJNoig9wDIfXrl0N9GvmURJjch5t2r3Do7YrEoz/PBYHB8fPz48WOO/nxOIPOQoT/QXbARktNrG6Xvrn9jIsY2IJeXnbdsdRGLwE5OPKUbCIFrV7w9+YElnU6nLEs5XWl/2wMFhBvTre8BLBf9vYSHoz9+PCMx1wnuXjrjS8cYFUEY7xtP+N7vu/aLmRlw37/X6/GFX33bj1GOV5sD105V4VsYwqC8zoyPy+uJGDbfGYbzlkz6ewAwP4ZioT+yCjTJzWaz0+nw6KVsAm2TgJBKOc4CikW+KlZp86NYpigZAwlZLgYHq6Qoo4gx1ul0dnZ2jo+PNzY2+IfgnXitC3GmAOnp0J8sM7Bv46tJqGD1vS5iiRyXY0mTiTHGXwUQr4NFByiZvD8JGfFJRxldsGvvzOJ1Te76eMc8hMc3jr8sSxAdVfmYWVtbOz4+fvDgQa/X8/L94WeNnzt6KY/J4rsN1GsPqO7DGt15WyJ+HxFQEZv+QpR4FUCs5dScYkWBWq1Wu90uiuL29lZfA9B9fy9rJGuI2gaKuRsF5Z0KEJiBEYvRAYlKsJEgMNuQyPa3zoQcFcZlPWTe4XD46NGjzz//XJz1Jm4hEVzPQoN+/BNxcgKW3smPjL2Q8R2wFr5mwFgE4PnSaCVGSpZljLE8z/lXrBuNhrIOLHgEf+BiuGoAgPFWQQsG+obOlJCZDawDxvt2ti1BPWQc3+nYVknOLgsvEshtzj/s3u12Hz9+/OTJk8FgUBSFnAVp/gGzGqULJcUy2PGnbfkPcfxhM2BTWOHJ7neDEM+6yq4eXpZsAPjrYOL7wMaGRRpXm5LqJrkaoj+ZObXOmMlEVlXbroqDE5G4MWi32w8ePHjy5Mnu7i7wzldmf17AA4rizi/30SCdJ1sigceXE6bAUHvExk/6HJUO2Wq1+IEQoj8nct3+8h5AdO+YkI7kxCQ6HTcnHDhzwYl4Hox3g98hE4JivhS+88d21+j9KYOB3R31/OWXXz548KDf78vor5Cvv49x/FOAvm3qg8yCnw0g3UmMg2+cGcDpgLY6W0Zqz6XY3Vi7lfjX4TudjniNEZAcUqj7ewAwg+8YCHfzCZAHMCBNlJclILeYkwdALoyQuM4gTDCmhxNjLM/z8XjMd/0Ph0Mvf1/vAADckPuhTXMMG5yFtgxgxG6dmfmHg2yYDmO93kNst5ZLiTb8CNKHc6PRaLfbfEFLrAMLTYyNj1fyXkF4Vq+74R4TXoIvsiiDxDjyjbF1pErkuDySx9cEhrQPrB5Mvl6/XqgS9Fdy9Xq9Bw8efP755+IreoAo+RqP/lGgPwWWAdCp82CixjqmYNYJkAsMtkKRebPgPhxCmLmOb7nODsNfBxuNRmVZ3tzciD1RQgHd0tOqDG2uIjeib8bAVvMCLC8/Ea+bkTPE2ffl+aiIMdZoNHZ2dg4PD3d3d5vNprJNEAPcsdDfqaoXP42izCoIMj+Y1qiSMOpxAzAej/lmUGe3JBPlTWCaHkj4tnGS0R9oO6+Rj1EGmd2pJyzHd83AVx/fvBiZvmTbAcInBHznDz/rXxz5AOvgRH+4I/kagxTuKsb39J0KwGEcXSY+BVYGE8LS/xIkhJPcSlHcf+Rspt1uTyaTfr9/fn5+c3OTaYNULxcZBZLleL8IRrjrNU4ion9cmA5RtZrZayJ9fEsMJMzwKMtyf39/f39/PB77ojA3IQqDV0ei4X54W+kSgK2WwF1CfB+2HMYUWyJQLoaiuCayBCDoFEU+OS//MMDa2tr79++vr6/n87ltjcT4fgCSDCEguBNXj/7I7CmmAnC58JoVgLyYNnHywHDg2xWcfYtAel4lRf6L3BueZVmj0RgMBs+ePdvc3JS/8WvjzyytSkB/Y/9nEuFvRSFYuK10WyL+b2ZqCsDcOiEFVikE4IByCTK9mAPnKDwKtL29PRwO+dstoomMDxSvmJzxL+8BOLEJIy4FM4CkeGkYzPUt17cPpUOBpeSNQgDu22612+2tra2Dg4PBYIA5IcDrMUXsV1VSFD19bQCSh0Y1adjo5IV7jUZjY2NjNBq1221nN/ZtMc6P/fRw3JFgdCiQMjF58V0ZU328bjCbHtzQhdh4MCgG88AK2/QMHIfOeA7cPkZ9+v3+gwcPJpNJs9kEFLY1NdCeQGdA9ljnLS8eI9E2gAoGr9iO/leXD2eB8yIpujGI3vhGmV59xkj8ePPJZPLy5cvz83PMFiybKNvgcmwDhYU6ecgITmbzMga+VUvkD66Qs7N0VYuiWFtb4x97YXck7jr7IQH9kU4u3s4FkiLKd6HViOlxQR/GekC3LH0Hs2FI6p3+viT0bDQak8lkPB6/evUqy7LFYiE2gzpNvlGgQo4Z9AeM/mRO5S6sGCYu78tjLIgwcmwdCJPupSQyiw045HI7nc5kMllbWzNG//Us+pOKiP5MIqMOwN1YBDeCUQHjMFFq7TuUkKMYc0unWOgc/iCqUVsuJc/z4XA4mUzkKJCuCa2nMbEG4NTDl8e3Q6RgIz/vwI5ifE4hjfkRks15HAwG4/G42+3q0X+9qZFQTkN/mCp+lISRH85TpQ34AIjsonW73eFw2Ov1lM8DRGnAJO8BILsCvsdg8vp6KL4QADdI0roApWPep7WleIXOnWXhebz0kdMZY9z9Bz6UoUhwPsHoliDkLpLgILuRgd8l7OgPWTOwifXSOYvUaJjn4vTZvZz6WGo3m81+vz8ajd6/fz+bzZT3gYHpskJyFsFmcKPgqQSGAZOIZ8NgPRn94boYNYQxBS8tihcWhZKWAmz99CLGWKPR2Nra2tjYQHonTqsWC/2ZRL53CeQUCGuipOg88F8MA3IgezHQKG7LhxDhLS1O/HToyWTCD7tV2PC1E5wyf67fdub30t6YGJcNtoGwWCCv8doYsyY0CyYvwIO5ZUz0fVfAl993pPFFLUy54nSUwWBgq7X+a/ubIZ61fu2Fa9VAD80MAH+jMHglGhlsg5TdJ1iUb+PT8M1GeN8c5mGM8WMhgJfekW2iE/ZDayHax5KPKcL3ERJQAKNnNRS3betAwFp3nuf9fn8wGPDVMORD8e23Xs89sNyI5KsJBsHjMqQQlVpIRAp0nsqyHA6HnU5HvBEWWJYg93HQGImAD4LhRCb6or+X5xLFEsAMvo/N+U4AkjCxfoxWsdYAMDx6uUVRTCYTfkCujTOzPALgWWD4kXBZDbRl/vF0cct3K2f4+RB4fWx1galioCevAfiu1SnUaDS63W6n0+EfiRTRfJtKikBgfSXVcdDGu2RnhDDkyOiPoZA5B5yF1qF9jQ1ZrEK+S74EEkU0Go3Nzc1ut6u4/5y8JgQK0Ns6Br5VK54KAFgvMxiHfcQ1XqeRwKTbqvCJZGKMNRqNfr9flqV+Kws4pQ4yAKuF/l76IEcsGeiNIOL7JrCtRF8v29frtxEme0QnV2nPsiw3NjY6nY7ezkh3PgT9fU0ssh3wzeV0lp1wb0wMtAEYBjhdVKEmZgDQ03lXoUD3SC6LG4DhcMjff5Q3AgkGuVx8KdY1gEDVY7FVgP6+bp2XlfLloTHXh5Cdz3e053nebDZHo1Gr1RKJxudoMwkRXQ0nRUd/sjSC1+Xl6NAY8LlqOArIKhHCR3JZRVEIAxCxWbyPgyY8/ri+fyDUAuVGsQS2dDIo+PqeOk+sQA1Sjs5GUEB5LkVRtFqtXq+nf/nL6MgrQjBWATnzIxuJuNMvOPILB2oyz3mALgEzLTAWCiivM9QQ/b0oRH99Bsw3QfCNQPP53FkuJii0WCwMBoCGXyFoiCyRBv3IwRyIUHiZSScQqz5mFFosFvyN36IoOp1Oq9VSdkHYkN2XnBMFmkuU7nEoBt54NwTEjZjuZSSMQuB0Y+2qJyeA2ppX54mrFR8CjUZDvA7GbxFeshP0FwNA7se+GaOjP+DtpkMEmjSvssg8WdQTPY3yfQmeBMCTBsZYWZbdbrfZbCqfx8vut4zx0Tvdfxr6Vz8V8F0GcDrmcW0AMgXWGeCskjDhmhCX0Zku9z0xHyrLst1ul2V5fX3N7q8Q0Awqk78HgKsFVnQIv5fMiE69M+Mq+terqLNOrVZrNBop8R/Ms3ZiOu1ZVzZeAvP6WiNfd6eyWWnFS8Qp/PfAghhjjUaj3W7Ly2AEOQq53wMgzAx8RyMtESnQdivEVGBgKARB9LuxdhCFED6U76utTkpLdjqd9fV146vwunAbysPoj3yOXv0Tc9eLYMfZeFfx+vUU32mBLs25CwhwUZ3e67KoAsWAjmEcQfxleP4iJLC1X0jA6BB/GyhyhMRl0xNhLMZDDyYLnsiarDrRlvU4f6PRGI1Ge3t74ghoGcFtKG8UhbzA/HVWh+xa+cYfkGsA+HiOE9N9jYQtUalLZZYAiZVkG+A7kXJKE8OHvw6miKUttHCK/FH4iLCeaCoAM2Mela+FMOJLRI8eKT+cqjRIsv78CCB+CGhmqS/Qx+COROuxXt6P8xaeEwBQzJZ/RUg6G2BMsSXqGhqrk5meWpTF5BpOUPT+xkdEr9fr9/tFUSwWC+caAGB0BWHPArJp5ryFfwZkngrQ37dqZO/vE3ES7jxjrN/v828AyCvAyKccpZ3D0T8WRemiSCG+bmzEkY6XEMXi+jIvkdrtNj8RKNCf4CMr02cA1fv+tPmBMdHZZfF9muzmY9ITGcWlrAGkm2rw3zzP19bW+AKAchSiXlk5Iz7dyKOX4rxrq0hcAtw6o19s5GdSVEHnT7oeAKTbqhOFjUxek4AQRxajRrPZbLfbjUbj5ubGJhOjreBBbQN1MlSP/gRt8dYi5BqvDz7Rt8d8MPMP/gLw/v7+3t4ejOaA5YP54VwAg1eiF4NMzq2fRh4jNOspFcSCjDYJSDdWEJNeW8I7nRieRqPRbDabzebl5SXcthhLnGVZzu4I0MbGAN+KkhLCBtxFoj9Smu0uobOSLTleKzLZJBj19FVeL4sxxj8Bv7m5ORwOMZ1Nf462B21sN9uDM/ZAnQcYR0wiI4ON2H2CefR0OAXZ7TGtATMA8usD6PgWAKiCjUNlWfL3gb3UMHbXLMpH4WPlChEVgv5xqfq6f6jEGGu1WoeHhxsbG/wIFCOPl0D9GulekAsl8FdZNBKXfUcQ+bmsOqWuS57n/HWwkILkvFVsA8UMXfzwJng6yFswc4gLA8tRvH6j6+rMW8EosoX7bUU7lwfgu/z4w88//3x9fZ1H/5XKOp+I06PXnwv+ScFVSPc4lN5ivOXc9a+kGNcDmCu249yB47UTtJ5vA3hR6jHI5TcajU6nA88AkO3JGKN8FN7rViz0p7kqQEadIXy2gZxTexWXmmqihkKMsX6/f3BwsLe3J38DAAB3I4OT33gBXOt/w285CQ6Uh78HgLk2CoE1MfLbhNTBBtRBByfx94EJ3cmYxWxGknZxX5cZz+ZEf6f3bbvl9CWRZJSDj+PrbFH2QSP5AU8/SukiC2OMf/7lyy+/7Pf78gkQygtlgeivzyqc18YuJMiWHmhlYSG2W16dn2D8nMPNmGJLzCzVDGy6D4bkoaF8FUMnvBkzGABaiy8d/cMZ4M5N1gevRsQ2XEWSQbnX6+3s7Dx69KjZbDqxCYYMwAzYsjjTwzPSCBBLswGYu76FEnjCs3w8xGcAcAjIQ5ryP24XIfQPpMvgTPFyf2BVMbXDGA8vbwhgSL3f30bR1wBsEvI839jY2N3dHQ6Htpe/lERng2DQ3+uB4q0InoETflZHWwPA78EnxIWM8vVERX59yKj/cvVUug0/Gp37SeQXmEX7RzgOGp/FF5RjyQmxFr7XGIqFFB+SoyRwnJ949fjx48PDQ4H+vLvLnHreDPGAMBfIa1sK/i4yl/PsBN/3ABQ0B4qw4b7TBugykYZBEaJff8zEm6soirIs+bEo4RR0GqiNAekx0XaJVIn+XorB0mKBvpMz3Wjx9fSReipDvSzL7e3tvb29yWTC7kjJRfP3vcwArZOkaHynPTA6/pnF79ZtAJCuF0R+Qcwm3OmrCjYnTyxSVFr6NEWZ8fOdoHxfnE03p86CITSQFOKrxkVeL30SZU8q7YMn3rm73e6TJ0+2trb4VocQW+trgZCwXiX6B5aCbz2kfIJAX546UJ3nH3meNxqN8DUAXi/6ewAYBnxezDQiii/vZXUw/SBiIyA58bH1uASUa7yF0VPx6MuyHI/Hn332mdj7L98F3HkbmpPTgWs40YsBJmd4BLkGgDnmAXNtVOODXA/AzF0USjckdcjioVFgMCJlMtp7ADADwRGIDty0cuPK94KSQIrlFS6LuKlgjPV6vf39ffHqr95ugA3QL5CgDzBk6fsMQIpATKxfpCNj9ArWO9ONSvquB2DkGBmcQupGBJ0xwMsY4zMAxccCGtDmjWE/Co9kiOt0e0lw8ngxKO21LDSXfTojPPnKDFE4RWXlehVFsb6+fnx8LB94CyC+MBvGuxj0d5oEvWggxUaEdrO9KmW8awRZJZHZ49ryLYw7ryM1bAMwDED6UnDfaY10fkwiAVptWZTO4Dt/EuNODSSlRn8CYSSEqG1kwKA8wRn0Sg9szzp4TMh+ybG43W6vr68/ePBA/vSjYNCvCX4AEv1hmV5EyxvLc/R1XJC+WvThVjdaSjwK2SbCDOPbEKiOx3HQMA/ZBvpOCAgpEdE/CrIj02Pt96fJ1O+mWHuQlen1emtra/zj7/iM8l/A2Vf+IucNtuKc+oST8tSMt3y32fhew+rRQj1ObY2cVRoMX/SPopsX+mf3lYQVlrPo3buBL5vg8DrZkP4aUIqTJ9zkGG9h/KlYFDgVqA/JXVA3J+LDL0wicReYBGBu2SyEcx7gawkAAvIiX9txphttQ4gNAGwDbCowzEhjU2fy9fCiCCE3mj7o3O8BwKoAt3yheVnoT0B8mDBQYrTG4VhjFGXz+n09+nAPQKfFYsF3+xRFsbW1tbW1pbt7sBkwVs2J/ra8tGcRboyNEpC7ZTDYWo0N8PrrRVXufAu3VVE8Np1fUWCxWMDNglkTRm0mDUd/JwMB+3yL8OWhdbhwg+pbeqyBUdkA04m//buxsTGZTICTnwF77Lzlhf4KLbFldMKDi5cdBeQgeZJSxYWGFOeL/lGshU5Ic5XkPYC4vj8thTBjoGEuAfETDafUMwybuxE+WvI8H41Go9Go0+noMp02QL7AXGNkGuu1LBjCrAEY5weEeYAtr+2Wl5uv3w2ZFqwK+ToWcDfjjr/8N/MPCokizAYgxHcOnOlEMQYErfAmGsmZAiwIMmvlvdqoLMv9/f3xeKx8+V0G7swO9IRf21/9Wv+rUNwWBjaA0tYAFB4v3HcyE2752gB4uKUzHrGE+/pMmO6kx4IIinHyOw3UyRCI17HQHzOAkRXxtU+wNCAL3g+15fLaNUSoiI0HCERinnWj0RgMBsfHx+LwH1iOfu38BayFTTjNzwgnpRTnAm+G89+dsI7BfcAeIG8Btfa1AcpDTGEJCDaA7Cvge9d8Pp/NZoH1Na8BBHbxEBCJJT+KGrSCqgEIgPDoXw0h1eh0Otvb2wcHB71ej7/fiPTNo1wjbe2ymjRRn3fWOsSiI/XB0NK7tFe5FSjJ4z/z+dy4H5RA2G2gtJlBiPsc7muHpDiFA+rh+wGtxxi9/sDO59xlQQBH5xYFxlie5+Px+MmTJ+PxuNlsKjKVVrWhtpyu/wWyG0tB1g6+5STfLSWYvZ6YFCCko/DLkwOjwrZ0Z1lGzxp2t736Z6K4EFxfWKWINJ/Pb29vuQ0g11TohtoGSoAG50Aio7CXTEIWApRHmU98nNRut/f393/961/zjxwpCJ7ZZwMiXWbAo7/Nlhiv9b/hBJtGG79zY6gR1p02wAbWMCh78etq2GqKJDjwWM3CsleviOVJzOfz6+vrm5ub+XyOz2UjxyuXTs0Sob/XX3yizrOwn/kDiMI/S+Cvr6WR/T4jfoVQoDNL6AaMsTzPHzx48Pjx4/F4rL/9a7QE8rXNGMjXNk5FZshzsVUwowKc/KAxtwCIl3PR1gB0sXh4hTkx6xbGa5u0RJ4WoBVeJTL66610dXX19u1b2QAQ6m5eA/DSDMNAkxPL+fI1G7FMNIZ8y8InrgRx9O/3+48fP+Yf/pU3/+jMOppjHHlkv0qE/gQJ5LJCujrBmaig4xGKWPp2Ui9rR5N/c3Nzenr66tWrm5ubKPIpx0HDz8b3rm9XplkdXwCNMhgAHTDegS8/LCGdeSO0LWOsLMu9vb2joyP+9q98K7uPSjD6sztS+BU1lAtbulH5kPYB8mKiKwCz7pli1gmQ8wB2N2lwZgGunbUD4kXIRC8GMuErBYxTo5+O0VnE+ufz+fn5+Zs3b169eiVvBOLqec0DBGe0baC+6ca7BL+GnBHgSWH8KnCakhYUOMVWRgV3/3/729/u7u42Gg0jasvITkB/5VrXQb+gjU8y2YQDawCZK/jj5FFkwnaFXyspNg2dpBdnTNFzIYUb/1Y/LRAjRTalOiE9A7HYe3t7e3V19ac//emPf/zjyclJlAWAzOs0UAK6kQHdi5ngr5E1oa0Z4GU60yszJHjC2IaFdHY/Y6zX6z148ODg4GAwGMhf/gKqabMQcqIT/QHEBx5rrDbHu8YAs3LXyKwbBueGHIBHSQmZEADWaFUIhnXBgxwRxvTZbHZ7e8t/+Z6f6XR6cXHx5s2bn3766fXr1/p7AL5dVJTuPneXVgAtC4HC0Z8sn1xBpM61wvpAZeTseZ6vra09e/ZsMpnw6D+cxYjsOvrjr23+vp5lieSFlU7mkHmAkgKbCoLyK0S6FdRJmGQ8NHEffzabTafTq6urq6ur6+vr6XR6c3Mzm81ubm6urq4uLi7evn17enp6dXUVqTZZhtkGSnNyYQ/O+RdJGCG+BSErRZ5DIGV6WZrlYpbXs2aMtVqtnZ2dL7/8stPpiDe/FGSHfXzdJNishS1R5wGuY5HN48Pwwxt7MoSvLSO4sVxjuhHunYk2CRg941Jc+ewu2p7dBWfm8zmPxjCJxIbmPM/1GYNsRXh27uxfXl6enJy8ffv25OTk8vLy5uZGzABubm64PZBfAQusCL+oYhHY1xg4GfCDE8NJQ3xYArn1akvkNQAdedfX1/f29iaTiYj+K0Bvk2PEbgD9naAPXMB1kSlwQOoygTUAfKhHlhy4iosp2lcmnuSQuu3pVDbbEK76zc3N9fX19fX11dUV99OzLMvzvCzLVqvVbrebzWZZlnIPl4WIwM7l5eX5+fnZ2dnZ2dnFxcXl5aUQyG3D4u69XwH9wgLpz5dA3ofB+d6qDP0Jhgcv3CknXObqEsY2CAjme/8PDg6azabxcegIrg8hDOIDlkDWR5epq42pGpIwY1UBC+UWjM5OsMZfG62LMUsIvodQxYWKxVjuqp+enl5cXEynU/FeLu9pRVEURZHnubiQkVq4/MK15969CPjIb/kKklN0xfDtr3d7ykfhAdHhbDT0p+lDcPeWInO1CKhjnuedTmd3d3d7e1t/79eI+DCPsVDntT4MfCtCpnCsNEowgrWvDkbrglke+HiIG4DT09PXr1+fnJxcXV1xvOZRIAWjla4ro7ni3fOLTNrzI4tCOg1ONmN/bjg5nLeAu75oTkN/pxwgL01+NXdhqt6W2Dx9Z7sJwC2KYjKZbGxsDAYDHeUFM4DysFWArxVljMpX0KrGImyjV4YPZ6IzHGR03uF0Brr8SJsRTsa+V70p4gbg5OTk5OTk/PxcoL8M1rpKCo4vNDIm2tK5kFh1r8sisFMCHnqQ6E8e+fhae6FJ9YAehZBqcywuy/Lw8HBtbU3e+6+gPCxB5zcivu3XeGGsRfTHAQ9XpTij363fcoI+gM6Ya+Pd7L5hYKZ4kU0UnF5/4gaAH8Uzm834dkxjfEapoIz+2X1Yzyy2IdOmFIJEm+sF2UjuYLI1dXwS0jYMgEFrvEVGc1/dYqE/0kMMgXikIYFxikY0OUiYFtcCIPh1nufdbvfRo0fD4dCI5uyO5L9Kug7xePQ3CjEqEB39FeHOIgAerw4JDwdn14JHgXLXxgwkOm85eXTF8I1MJr5JX4nhAOiPJN1m6BZCqZFi7wllUc4C8m3WkAfsxY8U4mSj9ZtEva0mRHiICr7wD7/s7Ox0u10jMBlxWb+2yZdhyPbrW6OlU2CzOyXgG8HLGsHGIC5VXBa7c2j0sAwnJ/rr1sLo5iP1IeSSqeqjIAhODU0Ing3PEDK0vPJ+AKSjc7vdXl9fH41GYv+PEdltiK8LVLIY5ch5baKc+ocQMLCNRdiCP0ZfT4/M2P7q2WHF8JEidj8cwezLAwA5mRfge1WYMUsLlSi32N0mH3b3QoCtQRTl9VIAfXR7oLe8VzsD2Bh6FEQICCJ5kqK/l/74jL60ovYAOQg59Xq93d1dfu5/pvns+OLw6A8gvm9PIJMuFh6uNgAyoraO7LYsOkwYU4z8znQa6AeSbBJ086ATrJsNLvQmKoqi3W4XReHr+OPJaaGBjL65lrYIbExcOvqTER/WM+Tvh0F5ng8Gg/39/bIsdWjGIDueR07PpPY02gP9L5CIJzzWODkBiNdTAAYbOtgkYNJhgczuqyrCCT4sPq9RiA7fGBvAGGs0Gr1ej3djncGWyzY5M6boouQGdDoQRruukKgvcRE4Si5f2xMyUDFs5DGfDrJtkn3TYarAayuKot/vb25uIs/+BK7ljAT0Vyjds0NSlFGAZIjVnXxtagoTuywqiqLX67VaLeUMK7g6eoMondmYJRx+nRKWcxSEnujMhexD+K5G6LJR7nqp4ZudTJhJdAiVZdnr9YbDIY+fZnZkx1gCOYvCk0ltolzAAyNu9Y3SAC8PZmP3nUTBLxxDJSMDPVCvayfZyjIKYZbZg7NEY/80ziHCQVO/tZC24jDG+EkPjUbj9vYW9vQzy0PBNLUu2WseANyVGfzeBI7iXBBS4qI/vnX0FIKqgRAfkstGqeFeIcZYq9XqdrvK8q+O/kouJ8oD6ZnlqcFmAHPLSBjEdAK9zgbHCpBAr+TVcQoJ2QQjIeTDhgEv0Em2vu00MLLCQC7GGD/wR3zEVGlDo0DnGon+cGGK1Vx/eR1fHkt6YbZb4i4yvZ7oD49224DEkBeOABXXBzOc7kuEvACS6sjb6/V6vV6j0VA+/ahc2/qMzRLYro06GJmVIuCuDreGrxAMp37XqLn813itpDi7EF5mBja4MxeS8MxGTqStgltMXOd53mq1Wq2WzmDk17XCVMf2jGwTRCSx+5bGsQaAFIdM9612iJxYbLA+BKT48AjTB7rdbq/X08//yST4EOk2MNUHmDE9uz8sYSXhW4EUS7JTjhdeK7cwjw85DH0RfxWHD2OMGwB5OqswGK+BRJsVSUeiCOiDMF7g7mQgIHtINyLnxSOFM68vP0CKO2AcabZ0WBpGDVhzpz6MMWEABI8R8ZVr8deZriTKpRh19hpjRmbkXBCZV2dz7vbJ7OEg2zWgJD4vLJC5Qj00wgctMeEmW8bM0tWVBmGMyUc9L+5vSDVmkfPqdTE2svzRRyVvYMPKpfu9CEa4S05EglREIxFiDKJTavkhRNCt1+v1+32RF4P+7O7DGnq6UY5yy3hhVJ7W1EAuDOA6OY0Qr+RSeDA47nstlw4w6NoqnL42KQoRSkFamqIo5J2gcl6nDdCl8a4ujhSNWB2lFD3R/R4AkJl2C4PsBB4gPQr6OxvK14Dh5QOcmNmATnEXgZ365Hne6/X4CRAyZRb0d/II+fpfpWgj9Eesu5Fs8mHH3wYN+l0FR5aL+8DOFqZ5rLCEWBQoUB8dQsm/hM7zXMQzbTUC4N64Yix6uJ5dTiHXzjjqUWsAK43+NDZfjEjNH0gVF8dJ9FrGGF80U9YA5Gv5Fg39RblwYm3JS0NgjIRcE5RZ0dYOJFvfU1JsPHJ2o4TKiPIegJMB2aXioj/eJISDNUZJmMg+OFA0fg3Aq4jAvIyxPM8bjUZRFJnU9Y1AL6cD1wp/ZhppSrqzXiG1JqwHwP6+ziBuJY3/2BKN+uCXB3SxRpk2wgwWIwPNWYaRTUwFkLMlpU2Y5sUrDaI/aJvkKPXCfhAmhKECoMejPFkZL4ousD5EqFp+Rwp8KySnw9fOX0Wx1I9DF4hfBrAx2yDSCCjh106ByCxKolwLL9DXSQmbiFKALASsRPYN/u1GW/bAMBdZbSCXrV735t1AZoABkIBMrDP6O4XjSw8p1FeIghFeGoaEUPVyDUhvR3bMtS5ZSTcy6H+RpOtMyAVnBxiMt/S/5GsCg35hk8NJR3/9MQECZSGZ1jmrWUxWaD6f86+3L6R9bjIDkKgw6BdGfrmayhTQyIOnVO8BBPIj+5aXAoHZafzphKwE6SNchjPlVxkPxutMGzzGUmyaLJ1C1HACCu06hW5ONqAudabFYjGfz6fT6fn5+eXlJexm2RJtPIRGCG838xqAl974u8hETEo4J8AcQoSeHUsN2o6guPro5QrXT14TFhdR0N9YaxjvyHUEMvquBOC3/ch348Z/xNMBtAViPsa7eJ3xomz92fkc4fZEkjz/4B+F51+Ex2fUFZDbX9c20ybTxocINCySsNtAdf287iJHoNdATYH+MHxHcVtWxdmJS/wTegpqKySn69fyL4D+AO6nbnmjfDyoIe8qkK1AQyaFWWhrv8ZS9LxAosjrZSeAcgGCffBYASJ2t3I7nU5PTk5+/PHHk5OT2WwG27aVIOhNYE6YYeNrGELQ3wvlvYT44gVswG08GE28GIycXl6SQr4zBlteWcjt7S1fNDNCvy/660Uo6O/7KAlNhORUJNsyYowB4BLKGWXYFek2G6AIZCbvEo/7tki9wqCUpYjSo/zM5CzrFAV8FSHz+Xw+n9/e3l5dXZ2fn3Pf//3799PpFG4f+Zb+XOCZgS7Wxo+0QEDTOQxAuNOElBCXDeb3siuByiQSG5dCEN9GCqLd3Nzc3NwkRX9j0b6q4rOk8/WQwp24AyTawMh2y1clm3wkYClkNGD4p7aQiAO6nJJJ80h+IThns9nNzc10Or2+vr68vDw7Ozs/P7+6urq9vZXPaVhp8v4mMJLTdjcEkcNlhpRFQJmKodzmfSO9J98sRpJzyWANGADBabuWpdnQ31hxr44RUlNOSIjE5GKWCIySRWGzQTaM6UgbACuGmSIAJDDdNgsBROnNIpCdYz0HfY7mt3fEY5KimnyPMt+svFgs+C5PjvtXV1fX19c3Nzc8S6bNtIDKYjx3Ja9QHsMf7oXEXAOAeZaO8iE6xIL7ik1CBYS0LnwIRUR/J+IrWlXQ8koRyMEp57Ihfoae+MsAbUwHwNoI7rZCjSm2RDldKQs2Tkr1ZYfdaEo50N/e3grP/fr6miM+R3BO8iRAEZvdQfD8jvh1lmUC/QmTGL0uSE6bCYlF9DeBkZzAXSTORkF5vPAqU5BKEu7aZgM0yUjSEVCMKD7wAAOQ3R/YZPT3anZyrWnOvjMvAMHKLSHc6KobUVX8td1V5Nt4jHcBHLTdQrahAtNyLuHa30rEgV44+zLoCzTX0V/UItN8cFvpGGiWGxxuNKWVbM9FuSaYH4Xci8AwkYcQMmPF6P+JEpHsZIlDoWXIjoL+OiV6xCEDL1Fe2y0YwYH0cHCByUsxBbJl6OfOPieO+wriy3lFSmbHdx1tY7WDXjvFQihVjlIoTH4hIE6YLFGAuA7oH1LZdBmNZPP6jX3LmUIrVybZSy2KoigK+UAIG8r7or/NDOgqxW1tXRp+xCpPx/euzQfEXCsZhc9rdEtlfRZg+MiWUb6FKUsh/e7iLs7D6fr6WqC/HNw3oj+M9bbSBY+tdkBFfK21nEvwAOUiuxwwulEzAK+RAzAHoj+sRjj6Y0ok24OkhqRupFQkz/NOp9PpdGCgNyYi0V8pEf6biIylOIeobCaRdwWS6n8VVNLTnZiLZKbdCicZ+3SCMyo8RhglYKuX/oECjaqGKEPfBeSVJQU6VylfkG5LjZ7gUqBc8Rxt4Ji0XJkWd28CNxqN8Xg8Go3Emc8il/JLQH+5dC/cD2kWmrMP53VaAsATlP86020XMHDjeYza4qvGQM9aqJHnubKqJBhs6tlk6urZ9LHVJcRM2hrWZq5s5LQcxpa5dxZQbdF/KfIx2WNVoQ6UyGtjjLXb7fF4PBgMoqO/UpCXVuQaBWbHIFSgKGe6rRlDhnMIIWXKXUU/YjbTQNOY7tvPdVz2yk6jFKUYZcbfBorh9B29vh3ddgsvh4zsyIzRRxowkmkzEjkXIMH5CIqiGI1G4/G41+sBsE5Af7lo2zVGTxrpAmnTAiDyozu/ehZm8Zed1zbnVDikmT3uryiJ57Fxyirp17pi/FeeUAohSqjHeA3HfIC7Niuia2tkg0mui00NODvMZhwC9MPgCBnJDgu+FF/N8WCRwvFZRbIZAyM6M8bKstzf3x+Px2VZKp8EEBch6F899NtIKQg5+AFjYDQDmStmkt3HU1iUTabxltN4YHhgSwCrJz90/sYW31GmILtiCZwBHP0vkBhIxgfk2xoRibILSCZk9mog3tf84OuORJa4bLDnDiu/qHANQCYFjoui6PV6X3zxxfr6ukBzG4LHRX9MrWktQ0B2ZC4jTCserjHRZhKM6cpdAN8BhLIJ0Qk2FXp2/drIww2A6CQK3OuevlEfpM9usxZAKUpdAJttK87WJnAumEHv8EHfA6gV+tN0IFNg3dOVWCtqtVrr6+uPHj0aDAZi+38m1YWA/oIC0b9iClfJ178B0lM0l1MBmr8FowHfW8zuvy+m+/62eQBACspnaSYEVZKxJbEvgvl2EVpnBW45FYhlZmgTBaRTj5TmywnnhWcSKYjDd57n/X7/4OBgMpm0Wi1lBqBcGBFfZ3b6/uT+gyejKLyD78xidPnlW0D8B38t3OoMjNHb+J3VNM4tdH3gRLiIPM/F+yXKPCCT3HObGQCQHQP6GG1ttXY2oE1VZy7grjE95hpAiFMc3WDQykKifwXziRr6sDoBoJxlWaPR2N7e/tWvftXr9Yqi0CEe9vd1yba/Oj+QkoiQ4G7M4msJdDzNLHEDY7pTKziko6thA3pkWcDdTMNQfiFMUZ7nZVk2m83r62v8s7YVigkcJZ0HOGNK0ek/QkDsPiEz43MBbHBe4C6mUGSi7RZSAr4gsjnxBTLjsElEOjwxxvI8H41GBwcHR0dHivsPmA3AJMDor3eGkJ5MGAuwQCQzzOBMUS5s6bYL+C98oZBihHSZRg11Bl2O8pcbgFar1Ww2uZMB6wMQZh6AXDPQ9cwsQ1JX2FhlTD+kmY2/hGXTUcgoIsv0LRTJn7qtYlGVehotYlEU+/v7R0dHa2trjYa618AX/YGybIkh+kcU7iUkVqd1piObN8rITdoVeU9rNpvcBjQaDb7UhCcabvpagqyu0IHdBRQdT0MYyIYBP2C8nMfonIFydDcqXefTXTzGGD/74enTp48fP242mwLQAdcSQH8YtvCYFd0R8Q13YDIKNswCQHY/ioK5Nma08SDvyroxLRwEx68Ca8HTG41Gu90WB4LqnEyLvyu6eV3ohGw6Y5sAbYupPizH2ecjHAdNyJUC3NOJjcLp5az5OmLL9feVW4yxsiy3t7cfPXq0tbUlA7qc3ejm65w2Y2BUJsX8ACDd0BIywgsAGDPAEHF/HaAB3RamF8FEemDcHyY4Oq/oKa7zPG82m8IGiC+9AIRUG14PqBsRuvo9A0DIH3ECkQj6CZJTJPoqBpCvR58IAW11L4qi3+//5je/2d3dNUb/lbxGiPdC/4px30Y0e2ADevgu7L8b0Vn3JW2YDutvg04vfltZmHSjg99oNLgNEJ/uWiwWs9lM141p7xtj6kLwvoGMxueCIa85AUbaMt8DIIiKm7ca3/+DJACL2+32zs7Ol19+ub6+bjv8GRYY7tfX4SlE1CFkmggbXYx832FecePzriVWg9vttlgMqEM3SErhFUx1FhCeP3AkE+YNsbBjWVbBV1qKNQBdphiHk8nk+Pj44cOH/X5fOa0lw/n7OpvtbobDMi8GmMhxfziv4ISnApnmzGYIN9nm4xtLAeYE+tQhw+33d04CQq4F8dXgTqcjvgkjdx6jx+07y4lFmDUAufUy+yQpkNwvgqUAfQxbIAMB/cNtYcUSakitVuvhw4d/8zd/0+v1gP0YGMQ3stk49b/IW75kFBUl2qPIx2OTLFZBSaccJ4hHJKM+UYoTdSmKotVqyR+DlNcDkmK6E8fhvBlVPd8GVDpwnBfBIk4jkhqGWLe8sNuL2ehZI/W0UQqjYoTpPM+3t7ePjo52d3ebzabz9H9AlF4Q4PUjU9IR3tNXmJ1zAjymGBEcMwlwup/w2q+RwVacnIhPh6/lv3meix1B/IOR8lfdkS1paxMyG75cXTjcJnhpglNJMfhoSUdOoPBE6B9SIsyW1JTWhzjQt9vtp0+fHh8fi1d/xV0go/EazgUIWS0ia470omCrCTA7/zpVWtZD4YsB7XabLwYor6DDQJl0ioAn48RXuYtJxPA04Nt4QVH4A+GbnB3f1lHmOrGsBZLSrQHIYoui2NjY+PLLLx8/fuyL+PAkwJndxoAhI3/45gq8KMDTl0UZ/T6kfFvICJgWeAm0aSjzKzMDRU7IdaY9RL4Y0G63+WfieSDIqJvRsw5vCichnxpyXuVUBhgUqV4E88pFQ+coDFFmDMv1QGmlR7EKQghjrNPp/OY3v3nw4EG73bYFf3SFYV9VuSBPF6K7LF4YgcnldFFtDF5wiQQsHXdg5SsmXZPFHYkUYQOur695IEisCeMrgozSVEO6zbP5BJkUPnKKdWwDZXeE11ImJD/MEJg9Ivondf9pFCItpPsqWNxsNtfX17/++uvNzU09+AOgvNJTATPgi/5e/dCXfPs5XiUkg5LivNYTjY/GVq7xMTmfMvxYbddyWUYPHXjc4losBrRaLeUkEj07Hi71XDTCII9oVaDFbF0F3y0hA+DbItH5A4cuOXsKyKBRLE1SuyqDweDx48d866ex42b3YcIJDUAipk0qfoKJbAyN2dmkcEHIp4DPi8kYSMZOUhQFfzPAdkBQxEBfavJ9pnhSdwGlBn1MriiGIbp1QY4BMtHkhERyQjSXy83zfGtr69e//rWy9uulgNGd1N1SjD1Yiv1WCkWG/mFmgEd3kBkY/9H5MepFXyfwzcsQ6wdGzbO7HUGtVkt8i5RnsWUk7K6JVU1YDT0L08JBmOzGcimLwEn5w4G7AusCM2PmdzSqz9Qkk9aBe73ew4cPv/7663a7LRx/p48PMGBsrW/Le/EoRBjkvmPSyWlEcB0IYIhUkJT5x/qdefV0J2rr6SHAKgvhZwTxvUCB0qKQMaJlJGfrAY3pVEPm+Y/FOl/Uqx79kXomQn883NDQv0o4C8yoyzk8PDw+Ph4MBsL9N3rlTsQ3Wg6nIdHlG28R+rlNAqHz4/u/bwdWUpwm1pbCCViSQea18QMPGinTuDYAVD+7mwRwGyCfSgLoaaMo4wU5opWWsTVUYK/m5H0WEKGwcPSPW5Bv9lhY6UVJ0T8Ksbtjn4+Pj588eSIirTZ8l1P0a1048BdmxmckU7pREC4nepV9x2+IAhFbiRPfDsQNQBTJSQkzOrysspNQ3wQmS48F/eFoSC4illUIBKnoozrKNlB+7PPx8fGDBw90T8TL9SO7rnj3Ni4ppSC3V2L4nWzMFAJGRleUWyIv02IOgDRjXqNigDQ5C6wk/jq73xrs7pC4siwbjcbNzU2GWAMA2rMCUgaCMZ5m1BDo9vo2J5HXbRVpzg5+YgIjo1MOkoesQ2parhcfSO12+z/9p/+0v78vu//yEwHQ3zhRkO8SsB7f66ITu09IfrxYPR1IMbatLaNTcjjZdKuG+F4gsRScriCvajpxT+FUnmOmjTW4LONIYfBx0ITh5JUFZkYOj3B9CDrESseXC7z0QSayj8Mztlqtzc3NX//61xsbG3rwJzN1XAWGjAOGad4N0PX14vDEEOQl0CY8nC3zn/pg+DnBa4l648MMNn6giMzSSRQ22noAk06K5kvBmEHqXKF11C3GBMI2fIylk3uv47xGgsYpmGkSfHthrHJT0FIKlUmfb66trf3qV7968OBBt9vFw41+CzADRjm2AeCoAIm/ymZfVle0NTX816lMotFHIHE6EOGLwdWPu4rbLfQ9AN9cUaoXBfphtkSAQsuVyLI6nVMlRY4U82++/+3f/i0/9N+Y14gsRlfRxq+7PF6WxosHmTdkSyhyP6hzhzsQZzdKYJ6xe5qGwExCd9h95ShK6tfMFCUXVBRFu90uy3I6nYrPhMHVxDeI79Z7Gy3uSMkoP3f52Sl5jeU6C/3L0MXPGpQstUJ/pD4wW1yzn8KWLH1C0Ov1dnd3Hz16xL/5nmnRDB3E5RQA2fHoDzxEdp/C6xtFMjKXk01vBwwbnvRnEU6EcR2uvyBuALrdrnwsBFwioXTn8jKejB0A7hK0rk55D8CpjZE5HNecQpAqhQgx3qXZEqSoiANDId9+KY+cg4ODw8PDTqcjzn0DqqMMOdpmc2Vw0to8OpHHDnI4IMHd9td5YfuLkQb/ze4/bk5O9z/THrTxlu2NKts1fyGg1+t1Oh15JQCotU0HhaJvFhIPHRgm7D7p2QEGharYGxtlQMYa1SFyIiJLlSAVheSOWBTF0dHR0dERfPCDE5V0HqSoKJwRKWmhNBvgTMcz4PP6ukexysUQf2el0+lEeSeggm4WMl5sonSivAjm5fXgRzjZp8OrVDH6k8ckjbyei1MN3bXhAUrGWLfbPTw85Hv/nZrY3EM9UeSy5Q2sUVLC+1x6FgwnJh1GCpsQzHZy34YNt/0MnCVgZOo68C8G80kAvkbyYgPcqoHdDxAuDwQjm7MjMQslfBEMPwxCGCKiA80CRQSd1DYshMSEtNlsHhwcbG5udjoduYM6u6/xItO6NWAw9L/IWyHMtDm+kO/1ghjmJawQYojvisgq6a+G6XnZ/YVlpA7GsgCecOJdlK8EXF5e8s8DON99CynO+WqeseLGdGNGI4/8F1Mv1PcAnFKMGaOwhaM/3jwSSiHcSoRThMcEvIFpK4IPoW+++WZra0vMo2392BbEhN0ZoZtXOqYjyQQzGzPis+jZozAbbwEG0mZEkWw2cIEfmc2Qw/LJjxWQYwRW/kJAu93GTwJkNl1mONmeoNAZaEO4czI7CZ6Y3wPwzRiI/hE1oUmg3VppajQaw+Hwiy++WFtbsyE4jBROSwyzEWTGopBSEoFFrLKSNiCAXzQhISS+FKZ8Jabm5GxDcl0ivwiG9HcwbE6kCGTwYjNmJOTyEljDDtrtdnd3d/f29vSXvxR7AHumRmY9LyAESfg+6SWNrEk4p7GfeNlLuOhMexxeeXVyeuXZ/Scuy/EKoNmulUT+kQD+UpitXExZFRwWZBw1mUVbdp+ckjkZXuEh9O9YnVtmC5GAV4bGQLYZgUi0XJPAGNvc3Pz666/Fh1+UDqcPOVu6LBMJN77PIry1nfoQBgs+CzwEfPMCj8ZZkDMv5nEbS6mgP+vVFJ+KNJ5eTtDT+UCVuzq/3JL6mIJ7uPMurF7Qi2AiY1zOkK4fpRQvOfiMmC0N4aWno3a7vb+/Lz78YmOD4UD5C5xx5ByWhPRERLYE4TwyM5wOd0vb48Dkhfn1a71eNh3kPoOEBeO1kM+pLMtut8vfYVR4nGRsT+N5RMq1DvqAZNvYMXYJfF/STULt9sNWg/7p5BD0ryHW68QYW19ff/jw4f7+flmWGH7MX0yb1Bz9Q4omd+lEdSTrD2eMW4XAujPGiqLodDo8EBRLrFGOE/T1vJV1Cc4f9CYwMhe+iBD099WHrAZNyZVAeYCKojg8PHz8+LHsN+l9Xfm1OTLyX51fJltfryH6CwW8dIg44DFW0ynHmBE5UfMqzrajxiYwJOauyM/znO8HFQeZwEU7xeIHPr4422ARf/Wexu4TRn/UewC6Win4A9E/ljJkZIloGKpBMXwpfMB88cUXz549y/Mc8+UvW1nABVKxWFYWw0wGHSPMwcy0E2N8N/IaD4PzkpCRPlyO1M2orVMOZieoIrnRaHS73evr6+vra+VDMcYqeFWH0LByXuUByX/1egFPRO7htnc1Eh6OirdCMCd8C1OKl0l08vhmrACwaGrjg57NZvPRo0d7e3vD4dCG1wqgK3/hdwJsVfCyDfhugOwMShYMv00CkpNwV0nXrbIxr/PtX9vT1PPCGhr1AfidKhldDVspOpugPM9brVa32xUvBgMZnbo5s2C0hZnhXF5y7rUDUmlMGQRmvN6B+kRRhpCxAvQnZ0fKzPO81+t9/fXXu7u7ZVka8d0mE8Z3XwpE/3Slx8pLK4LQLJj+4HyUsQagDm3hYIqByEaj0el0+v0+8nSgiIBja3+n/Y6Oh/GPgqA9PF+GuAM+UUGER+KbBcNPQ38xFJvN5vr6+l//9V9vb2+LPgr3VKSR8FJsuehvlOMb4sBkZIjjGZwFCR5j7J4WogGUZJZjIZgUw2GkcxdsBUVZD+Afiun1eldXV7PZbD6f83RkgMWoIZIHOPdCDDFbc8mNbNTWVpCRqjgN1Eif0B9PFfieOokhPR6PP/vss62tLbH7E0B/3UJgrILRXwv3mtkdYeQQiCwczhVy18ZjUxVOtD3TcFIkA8qIW8ZK4csyUlEUPBDEvxhMEG7LkqLXIceOTSVjSrSzgPCDDcNGA1bCgE9UELmCZKfSiwGPBfzLX7/73e/4l78UHie4+6K/DWhsiAZUMB3u2zTxKtTZf+DaOVP0dHhiAUN84PsBtm5jTNFtA9PccEz/sfHIcvh3AlqtlogC6c1uLNcX64EWsO2wgp+LogCmLwk2+W+Ss4ACZYYAayxlUoB7FOF48hKl9ydO4/H48PDw2bNnrVYLj0cwAzx6CfID+eMSudkDpTlbzwhevoTMCwClFwJ42VSkYorAPM+bzWZZlrbj4QIhy8ZjayIM4sMCvSjOWUC+3YLGA2f3GipOmwlkdAonM1SA/sYqGFGYMVYUxaNHj548edLv95X35vWeahOr8DvLRVbERuQ2lM0eTYIuCslMYHDKx2AZHu+AZ4fvDxhllHoBAW7x1/YWMfCGM7tPZVk2m03ga5G2AWLU07fKerqsZHa/TZT2CbcB5kVgLzCNyEkDx2p0IIw3MlugPvgsQAfiX1D6q7/6q6+//lo++Vnvf8Z+7Lz2YnZWDXM3RA5t1VEBKTIbQxwuj2fDMAjcZDEWjeHsRowG5PCLiK9N8NVgPgmQz0gnVFmuC7nFbA1ifBZ6HxDXmJcDQheBaabPl2fp6B8lF014rEMHvdCfMdZsNj/77LOHDx/yvf8C+m3hXSfKG3VwKqlQrNagDWwyJe0hBLK5nPJfZ9zfdoFxnzOTty5fy11OvtD5fT0Jve58JYCvA+tl2QgDu7AQYLNWdn8GA4tS3DIgXf9rMADRe2Fl3TqdDnWoQlyCe0ae5/1+/9tvv93b27Od/AMPKmcRtPRYD4IgZyX6QFx/yMYZbsjxeZEI6HWt5y2KotFoLOUjAeQX65C34AY0HAdtK8CrVF+qg+vti1BeRBYS+ERkT0pOMWYRvk+r1drY2Pjmm282NjaYRnDpigNlhA8auC+3s2VSY9LsByZXFDMJlGjsHspd5QkCZdlKV7xXJV3Pa+szMg/es4bJKKcoCrEOTICLEN0AP8kX7oGRZRMVuvXVSSGdHi8hPDt5gIVX0JeAQgML4jHfPM9Ho9Hjx4/H47FyWhZcnG5IUvQopDKfKJyWbnFDSkR6KpzyPOeTAMwrwb6aiGt8wByJKjYbD0PEvYobFUVSBc/V1wYSeAC2wNITke+mbCePIrAois3Nza+++qrb7cpRUSFB6WFG9w22Dfh0JOEfdERQSzRkAq27L+IgT09z5sXw67rxFJscZ5wdaBMbjyJHdGZhAJBPFrn0Cgf6FT2VgWa8MCK+UTIGvnIn6xKpGvRPlD2KHGPedA+Ld8Fer7e3t3d8fCy7/8jO56VwxS1ck04evT+kLhQjNoV83cmIKFm/4EvB+tuOdaBYz103MEs7CkLRI24WpA1XPNmICnip4SsTk26smo1H6RYbGxsPHz7c2dnhn8sw1kK2B4LBif6Ya4wcX6I95XSSMR2YnNc3Hq08SqdMRbLt2RlFYXbv6AUp3cyWV+/JGPmCeBSoKApkFEiWGbIjyDiUFMKc3mrLaxzm4pb39wAUtdJZyxra4aUTHv29GOQhVBTF06dPnz17xndE0LBYH6gYiEcqj79bWRdiYBzDlsV3b37E0sNJiWxUVrpcWXwTGbMr6Ywx/q0Lfq0UQSjLWDpGSMgDFX0eGf1Tv+zhS4GNUrH3JPMkhRVfxxCDs4B5h9mQ6J9lWaPR2NraOj4+fvDggfzZd5kT/gtf4OslE7mPVYyJS6QQD1RGcPIaALK323TDlGvzguH3CZBlcfTn7r+xf+q5vF6/AgjWzTnKbIR8Isv8JnAK3w2JzmSGKPIx/Ej09yoIlsBf/f3yyy+Pjo5Go5FiWvBziFi6ffD0ATQR0ENWjgAbYOOHGQgvyWKQJ+4QC1rxSISktlshbjueh1w6kgdTnBNtCQXpohT0L8tyPB7/zd/8ze7urhgGXk1q7JqB7j+SJ25GcnGEp08bCHCKF0bIPiZef70Im2eNqYVzhgHw2ORgrhU53AAoTWF7p8ErURblrIJMML/OYxQFZKevAVSP/mRlCN3aK3sU0LfdxSCmrxXRe0me58Ph8Ojo6PDwsN/vLxaL+XwuRoKCETpYKCm+OtMeOkayF8EZaaeeBMZ8bfDKLF/Q1f8y7dwYUZwuROYxBsEBVfXqKEWLRFEjo25GteW8toYyHo8DXMtqyMRXAnj/d5YFJ8JkrKORLbM0l1IX4194pZZoAFYI/fEUF028SqHdpQGWPJJFjy/Lcmtr64svvpD3/ssk8tqw3mYVYIXxNaLdQjJgCCnEuWHDlsvGafRAFX6dRwFTmUcB9IX2eSnABhiLNto8RT6AmEaVFLUBNZRSFGRXWkPXR76WQ0DG5oVtkq0ixiobW0xR1diexsetkHHmJBLli+VvAw2kpOhfMSW1c0qfYHdvvjSbzXa7PRqNdnd3Hz161Gg0FouF6GEK+sO6wehvy4WhkLpX/GQr9hhgHuMTAYyu7ZYXD96oO2Vmpq6F1A1znWnjIr8jp9o2B0sMH2V1V6Qrf40eQ7pOK9uDxWJBmQGEOFy+Fatg5AdqW73l8CpRcdAEpvPXXvghiO12e3Nzc3t7ezweM8bm8zmf/yrDQHepMLgTWK9lQb/RafUq1yu77qbByuhF2BS2ebvir81LtcnB+PI2+TpDJiGmrVCj86v4s8662MriHV6eBNgMgNGD1i/0xMzVGTBdxWhUFB7ZKCp3FZdOWKD/HxVws5tZgJkoAAAAAElFTkSuQmCC;" vertex="1" parent="1">
          <mxGeometry x="-343.5" y="195" width="100" height="125" as="geometry" />
        </mxCell>
        <mxCell id="QZQTw5gR4J6DBzHuBtWQ-2" value="" style="shape=image;verticalLabelPosition=bottom;labelBackgroundColor=default;verticalAlign=top;aspect=fixed;imageAspect=0;image=data:image/jpeg,/9j/4AAQSkZJRgABAQAAAQABAAD/2wBDAAgGBgcGBQgHBwcJCQgKDBQNDAsLDBkSEw8UHRofHh0aHBwgJC4nICIsIxwcKDcpLDAxNDQ0Hyc5PTgyPC4zNDL/2wBDAQkJCQwLDBgNDRgyIRwhMjIyMjIyMjIyMjIyMjIyMjIyMjIyMjIyMjIyMjIyMjIyMjIyMjIyMjIyMjIyMjIyMjL/wAARCAKAAgADASIAAhEBAxEB/8QAHwAAAQUBAQEBAQEAAAAAAAAAAAECAwQFBgcICQoL/8QAtRAAAgEDAwIEAwUFBAQAAAF9AQIDAAQRBRIhMUEGE1FhByJxFDKBkaEII0KxwRVS0fAkM2JyggkKFhcYGRolJicoKSo0NTY3ODk6Q0RFRkdISUpTVFVWV1hZWmNkZWZnaGlqc3R1dnd4eXqDhIWGh4iJipKTlJWWl5iZmqKjpKWmp6ipqrKztLW2t7i5usLDxMXGx8jJytLT1NXW19jZ2uHi4+Tl5ufo6erx8vP09fb3+Pn6/8QAHwEAAwEBAQEBAQEBAQAAAAAAAAECAwQFBgcICQoL/8QAtREAAgECBAQDBAcFBAQAAQJ3AAECAxEEBSExBhJBUQdhcRMiMoEIFEKRobHBCSMzUvAVYnLRChYkNOEl8RcYGRomJygpKjU2Nzg5OkNERUZHSElKU1RVVldYWVpjZGVmZ2hpanN0dXZ3eHl6goOEhYaHiImKkpOUlZaXmJmaoqOkpaanqKmqsrO0tba3uLm6wsPExcbHyMnK0tPU1dbX2Nna4uPk5ebn6Onq8vP09fb3+Pn6/9oADAMBAAIRAxEAPwD32iiimAtJRS0gEoopaACiiigAooooAKKKKACiiigAooooASlpKWgApKWkoAKWkooAM0VWur+1sU3XEyJ7E8/lXP33ja0g3LBG8jDpTA6qql5qEFmvzsC/90H+fpXnOoeMtYmyIY2hRhzhefzrnpNUuFLSTGR2Y5O80AdvqWufaLggys4HSKIYH4nvXNazeLcR4mQRr2Cnn86w7nxEsMRJwjdlXvXP3GoXt67EkqjH8cUAac+oQ28mIowfc8k1Tn1O7kz5Shc+opYLVVUHk5/Wp3t0jwoXe7dFFAjEmW/uD+8uX+i1EtoYmy/mMfc10H9n3Eg+8EA67ahl01VPzB3b0oAzBepFxsIx3px1KMkbSRj0FWv7Pzk/Z8D1aql1aoowUVcUASrrDR/dJP4VqWHi26glG1pF+h/xrlXTnCDP0pUjlzy2BSA9q0L4h4AjukMo/vAYNdTD410qbA/fqT6pXzxHI8KjbOwPsa0LLxHc277WZHUd2WgZ9Ewa5YXIyk3/AH0pFXUmilGUdW+hrxrTNfW4KLmKPP8Atla6iG4vogJNjlOoYHI/MUAegUlcxp/iMZCTHcOhPcV0sUqTRh42DKehFADqKKKACiiigBaSiloASilooAKSlooAKKKKACiiigBKWiigAooooAKKKKACikpRQAlFFFMYUUUUhBRRRQAUUUUAFFFFABRRRQAUUUUAFFFFABRRRQAUUVFdXUNlbPPO4WNByaAC4uIrWFpZnCoO5rlNV8UTspS1UxqehHLH/CuY8R+N4WuC0hyiH5IlPT6+9cXeeNdQvZDHZQ7c98c0wOp1C7ueWkLMzf3j/M1hy3yxEmS9RPZDk1jSw6hdgPfXZA/u56VDJYWYB/eAnHOTQI1/7ejV+LqQgerVn3/iIbCS5Ydhmss2Uak7SDUMthLMNscRNAEMd01zcmeQHaOi1qw3iBTkUun6FcRR/vI0JPqamk0N2BIXH0agC3BOJ0QAgKKfZ3GftcxcZB2j2FZsUElhKpkjk8o8MQM0Qx83IhzIjHKkHoevNAG5LqaWsAbjPRQT+ZpLS+VuWBLPjHrXMXtwJL2JCeOM49c81pW9x5eXb7qDaMetAHQ3U0exUADSPwBWbcaLE8TMZT5nXJ6ZrMt724+3vcyKViXIGT/KpbrUp7psKNq/3RQBnyW5hcqWDY9KrSSheMj8K0ltpJeXbavpSSaXFtJ3HNAGQ0pb7oA96aqHOS1WW0+QHjNJ9mZOoz+NADoZZV4DnHsa29O13WLIj7JqMir/AHG5H5VzzxuPu5BqSK5cHbICGHQjvQB28fi3UGBN5bQykf8ALSP5W+tdT4a+IFpDIIrkyLG3ZhnFeX21+snBOSOtOnX/AJaRH6ikB9I2Or2GpIGtLqOTPYHn8qu1846TqMquAZGRh0YHpXoGkeNdQsCkd2RdQHoxPI/H/GgZ6diis7TNcstVQeRJiTGTG3DD/GtKgBKKKKACiiigAooooAKKKKACiiigAooooAKKKKACiiigAoFFFAAKKBRQAUUUUAFFFLQAlFFFABRRRQAUUUUAFFFFABRRUctxDAAZZFQHgbjigCSiojdW6ruM0YX1LCqUuv6ZESDdKxHUICaANOvJviB4t8y4NpC5EUZIGP4j611mu+MrGDTZxC7BypAZhjFeH3GoQTXL3ly/mfMfLT/PagCNreW8PnTt5cQ55pjaglsPK0+EM3eVhVG91drp8AAgdB2FV4obm55LFV/IUxFljJM5e6umck/dU8Cp41i44OKjjswnCAux71ai06b78kqxD35P5UASRCANgK2auxRqcY80fSoYbe3icFriWT2VK0l1CwVcGKU7e5WgCaDeON5Ax3apfOWLlj9TWdJrFm3CxuO2StPjv4ieCdvuKBl7fBMMJKPpmqrwIj7o2CP1B6frTJBaXCjDBG7EHBqrvuYjtVhLGPU0AQXdoJ5M4Czqc9OGqKBmDqsQAIzliM4P0qUXE+5grhc9QR0qhdJKxL7iJF/iU4oA0HiVOZGLN7nJpoC9cbRVC2kaRctcNu77/wDGrYDDg5oETiRU+6Ofen/aCfvVUJIpFyzYHJNAGgs8QOSmfwplxHFcrwpBHoKasSIB5hyf7oq3GNy4Xag/CgDGm8i2+RuT6UnlxSKSoGDWjd6SjgyAgt16dazOYzjBGKAKzwCOTeMg+oq2kvyjmmOwcc4qo5MZJGcUAaakbtyHa3t3rWstRIwGPPT2NctFdbHCscq3Q1oxyEEE8igDubC+e3YSRPt5yPVTXpXhvxHHrEPlS4S7QfMOz+4rw+zv2hYbvmQ10WlamIbtHgk2gncp9G9KAPbaSs3RNWTVrISqcOvyuPQ1pUhhRRRQAUUUUAFFFFABRRRQAUUUUAFLSUUAFFLRQAlFFFACik7UtFACGig0UAFLSUuaACkpaKAEooooAKKKKACiioLy7gsLOW6uH2xRrljQBHqOpW+mWpnuHAHRV7sfQVxF5Nf6/KZQuyMfdGSKiSS48Sag+oXWUt04iizwo/z1pmqXDWkDySTGGEDCoDy1MDOuLD7IS13qKj/YTk/lWRf61bW6GOOPp0Z2yfy7Vl3l/LduWB2RisK7kL5RMkmgCprmsy3L4V2I+tZGJZiN2cdhWoNIeRssOT0FbOn6EEw0wA9qBGJZae8jAhCa3E07yVBlzz0Fb0VkIY+Iyg9SMCtC10dJ5lBkD5GTtPWgDDt4nbHlQ/L0zir6aZK3DoB9a6qHR9mFUYA5xUv2OSPJazVlHdTzQM5X+xWPzZAX1zTJNExyxPPcDNegQ2EAjz5a/N1yKjudOjaIiLEbDkEetAHnTaDEc5Zh+lVptBdOYZWBHrXdyqXRopVEbjvt4PuKzjpk+04jlyO4XINAjhri1uoh+8QOvqtUo7xrWY53GI/eU9q76TTmK4dWP1UiqF74X86380JjPf8AxoA5tXjmYSo2R2P9DTpLYtHvweOo9Kz7ywuNOnO3Kj07GtXR9QS6/dS4WQDBz3HrQBgXEL291lThW5Hp9KswMzgmMlSOGQ9q1tY04GN1xjHzKfSsSFmx5i/LIhw+aALRd14ZPyqa3YbsgMp9cU+JluY+nzDgqeoqWMFDjGR+tAEghVjltxzUyJEhxkj6nFJGyMMBsH3NSPGSuDg0ASbI3TG4geoNZV3bQoWImDexXmpZUmjP7tmX69KqyzyYxPHkf3loAy3LAkDjHaq8juhyPmXuD2q1cD5vlbKnpUOQ4waAKpCybgv4r6VcsrhgPKk7dDVOWMo2VPPY+tSxuJRuAw6/eFAG2jBgPWrMMjrkqTx+hrLt5Oma07cqHw33WGDQB6F4D1wR66kDnEd9H+AkH+NeqV852FzNYX0MqnKRyh/90g9R+Fe+aVqceo2qOrDcVB+tIZoUUtFACUUUUAFLSUUAFLSUUALRSUUALSUUUALSUUUAFFFFAC0UUdqAENFBooAKKKKAFpKWkoAKKKKACiiigAriPFtzJqeqRaVE2IoiGk54Lf8A1hXbOwRGc9FGTXlsl+y3M9633nkLZ9qaA1rK6hgjuM/JDbfKPQ4rz/WdUn17U2O4rboflGf1rY1i98vQlVRhpSSfU9a5yErFBlT8x6mgCneybf3aD5F4+pptpajlnx7mnlDJLk9Owqww2RDdwg59zQIliKR4KpuYnCKOtddougsQJ7r5pW6DstUPDmkNI63Myc9VU/wiu9tYdoGFxigZUj0hTwfu+lWIdDijIkSMIwzhgMVrRRMBuK8VKz/KQo5oApxWyEfMRxxxU32SPBwpP4U5VA4q0gIQZoAy4oGDtG/GOnuKn+xxsMHJq3KgI3DqKSP5hQBlXVnFbqJBGGXPzZFPFshQNHlQRkYrUeMOhVhkEYqJIwihQOBQBmvCQPmXIpht1YYwCK19gqJ4QDkDFAHA+KPDkc8LTRLj+8P615fcWktldh0yjK2Ca+hZ4FkjZGHBGK8q8VaP9nmnbacDn/A0CM+Kb7ZZ4YfvIuGHtWLPbeRcl/4Sdr/Q9DVqznEU0TZ+RlCt+oqzqEI8iRhyVUg++CDQBlukkB8yP78Zwf8AaFXYZEuo96kBvQ9//r1JHGJCqAZVgVz/AHscj8cGqTQvYXeAcIx69vY0AWsYPOBnvTszqBsYEfWpJIkmj8xQAw64qmXeFuCQKAJvtflPtnQqP72OKqXdzGrBlAaM9SDkiraXAlXBwR3FZd3pqOXezcxS/wBwn5TQBBcqlwN0bAP296zGlkjYh1+tIly0ExhuIyjA8qf6VZmAeMNkMh6N6UAQrIJBt/nUqRFvnQfOo5H94VWwA2R2q3bylHVx260ATQMCRg9a1IG3IPUVlShUusofkcbhV+3fDdeooA01G5VbPU816B4Y1H7JDEpk2qCEDMeAe34V5zEf3aODwGGRXceGRFeO1rMAyMNpB9KAPVrS5W5h3Yw68OvoanrlNIvHsL02V02ZIwF3k/fj/hb6jpXV0hiUUUUAFFFFABRRRQAUUUUAFFFFABRRRQAUUUUALSdqUUdqAENFFFABRRRQAUUUUAFFFFABRRRQBT1aXydIun/6ZkfnxXld2mB5LHgDp7mvTteBbRp1HVto/UV5xdoDcsSOPMH5ZpiMDxA5Ty7df4VC/wCNZSsWiBI4ArY8SMlzr9wEHyIMcHvWRt8uFUOST1oAWIIgMsp+T+dbPhvS31W9+23C/wCjIfkQ9GI/oKwYbaTU9Sh0+PIBb5iOw7mvV9Ps47S3jhjUBEAAFIZes7RExha1oYVHQZqrbL0rUiQBaYDH4GB1NSLGFUetNUbpiewqegCPyVY9OaeyYp6DnNPoArFaYke0nFWyoPamFPSgCLFRkYY1ZCio5E5BFAEQoK5FP24pdtAFNlwcVynizT0ngZzwWjZR9cZFddcJjkVm6hCLi1IIyRzQB4UIneNRjG0H8cHNakMgliAboy7WJ9cEf0q5e2BtNYaEKMFty+45rJQ+VcSwE9sqfxyKBF+wszLYjb96Pkn6dKkvrAXdmxC4aPIP51H4b1JYL2SCTAUkg5relaKz1ExtjypR36f5/pQByOn3AVzHIcOvysKlvrYqhIXKHpS6hpSf2huDOm7O117Ecc1G015YwiO6QXFqRgSL1WgDMUvG2QCMdanbEqAg4b1qzsinjYwkEdQfX2NUGzAS3Ve49KQFO/gjvU2SgLMv3XrIhkks5Ghm5Q8H2rduAsqBgcjsw7Vl3cZwA4z/AHWpgRNEM5RsHt6EU6N8HOMEdRUCOYyEY/L/AAmpTJyD3oAtM2Y1x0Xlfp3FXLWbO0+9Z2PlDL909R6U6EsCVHbmgDobFt8U8R/hORXReHr37LqEEofABwa5LTZ9t03o6VoW0jRtnphuBQB654iPn2sOpWrYeA7Wx6Hsa6TQbw3ulxuzbmX5Sa5fRrlJ7WMMR5NxGEbPqa0/DmbKZrdslHYgE+vX+RoGdRSUUUgCiiigAooooAKWkpaAEooooAKKKKACiiigBaTtS0nagAooooAKWkpaAEopaSgAooooAKKKKAKmox+babP9tP8A0IV5rqjeQz5XhHOfz/8ArV6lMMwtxkgZFea+IYx9okRmwskvOP8APvTA465jdtQnYnJYkmq15IioXAI2jge9alshJmWUHc5DA/pVS6ijg0qaVxmSViq/SgRo+AbDzJbnUHGT9xCf1r0SJKxfDOniw0W3hx823c31Nb8a4FAyxDxV5JcJzVFaeWPAHc0AX4hhM+vNSio0xtFSCgCRfu0tFIaAAmim04UALTWAxS5pG5FAEfXpRilwMUtAEUiblx61QliKkrjitPHOKhmTK9MmgDzjXrD/AIm9jKBuPmlCPUYyP51w+vW72d4JVXhD+Yya9R1uIRanZuwwnmjJ9/8AJrnvF2lb0ZyBtBOPcHrQB5pdym1vUuIz8r810Q1EahYRsWzLFgjPesK5tfMtWhHLJyp/pVCwu3tZdrEheh+lAjsDOJoJEUndGfMj+lLBcJcRb0I5HKnvVGKfaEkTB28/8BPWq6MsF/JEr4V/nQjtQBZe2jWUvbnYx+9H0zWdcs0cpcLmNvvL3Fa0y5jBk4I/iFVLiPzIvmwR1DjnNAGGZEVi8WQn8SntTJ13RnbhkYVNOjo2UIweoI4quZkAKMpT6dKQGWSMtDJ2PBpFLKdjcipplUtv4YdDjuKrEvG+3/WJ1X1xTAvQPjjsasfdnU9mqhFMgODx7GrpYNEpB+6aAL9sv74ccgMKuCU4Vh0OKp6cwa9Reu4/0qVMtEy/3CR+RoA9P8Mym40Hbu+aGQfof/r1192DFtZOM7XB91H+B/SuC8BTLK9zbZ5dAwHvivRbpM2to57OA30PFAzZgkEsCOOhAp9UdKb/AEbyu8ZKH6g1epAFFFFABRRRQAtFFFACUUUUAFFFFABRRS0AIKO1LRQAlFBooAKWkpaAEooooAKKKKACiiigAPQ56V5hqB+2eJ4YuqAs31616Dq14tnYOxPzN8q1wMCAanaXTdJJGUH8KYHOXrGO5uAB0G1fqSaryxG71yysc5jhwz/hS3jq3iHyWJwJi5+ij/GrnhqE3N5d3z/xMUX270CO6s8bAOmK0ErNs+AAa00GaBkiipFXMq+3NCJzUyr82aAJASKepJcUzNPj/wBYKALVNZsClzUMikggHGaAHIQSSDTg2c1SQyq+0kAetWFV1HDZ570ASk8UZ4oC5HNKvCgd6AE4oAHNL3peKAEI496jwMmpu2KYw5+tAHN+KbYyWHmr1hYNVbUbVNW8Pb4urJ27HBrob2Bbi3ljbo6EVzOgXQtZZtNm4UMVGemf/r0AeTXEbQ3DK6EbTtIrJ1LT8N5iDg88V6H4y0U22oNPGvyPyfeud+zrLBsI4xwfSgRzumXY2i3kyOwamXtxJBKmeDGePpTriBre8ZDwG/zmi7T7XadvMjGD7igDc0+6W7gHQqR0PaopIxHO0IYgOMgZ4Nc1pt/NZT9yh4IrZvbsyQxzxD7hyP60AQSLneh6qazpF2TFexrSmkVrhZR9yVap3a8ZHVf5UAUZI1ycADIzmqcikxFgcFDyB6VoKd6ZzyOar42XRQ/dkGKAKiMxwSOKuwHjaOhqqVKkqRgip4WxigDTsDs1GHsNwq5GAb68hz3JAqlB8ssTg9GFXImJ1u4OOCDmgDrvBU/2fUYZB024b/vr/wCvXrkqmTSDjqOR+Brx7wmQmpvDjGAwGfX/ACK9bS4P9lHnkxE5/CgaJbGUx6rdRH7rbJF/EYP6itqucgm3XNrMOktuP05roUO5AaQC0UUUAFFFFAB2ooooAKKKKAFpKWkoAKWkpaACjtRR2oAQ0UGigApaSloAQ0UUUAFFFFABRRRQBzXik70RQT8v8zWFqG230nTp1ODHLmuk1W3N1pdxMOTv3D6DiuY1R1fRY4wOjGmBwuqHOo3d0rHjeuR05x/9euq8N232fSLdCMMw3k/WubNo0swt+vnTAf8AAa7iJBGFVeFUYAoA0rYYNaUfas23IwCBWrCBgUwJ0FTIOTTEqQdaQDqcn3xTaUHDCgCc00/X6UwSg9TijePagBSB3pf5VGW5607d0oAfupdwqMvimmZRnkUATZApQfSqD3qLxkfnSxX0JYq7bT60AX/pTJGCoWPQDJqNbmE4xKv50/d5gIBUr+dADSQ0YdeVxkY7iuI8SWc0Fybq3U4X72O6noa66FDYyiHk27n5GP8ACfSmXUKoSHUNA4wwPagDiDqUOuWDWVyQtyn+rc/xVyTxNaXDRuuOcEV0/iDw49lP59s37hjlSO3sawriR5AFulIYcB/Uf1oAwNTtUmOOM9VNZphaPBwdw4PvWzdxspHOR2NVNw6OMg0CMG4tBuLqODz9DRHNlChPDDp71rS2rBS6fvIW646isS8ie2l5Hyk5BoAQXOwCJj91uD7Us82Fz1xwfpVa5TzE3A8jn6im+YJIgcg5HNADI59kuf4c4/Cp7hNyJIv8J7VQ5DYq9atvR4z1I4oAinX98COhFNj6VLKMqp9KainLj0NAF+Hm13ehBq5pS+fqd0OoKHFZ1vIRHJH6jIq9oAZr2QrJtLIQfyoA6HTpja3MdxnIWRS4Hp0Nev2rCTSxs5TaVz/n6V5JYQDzZoZhna4/EE16po5J0sx7hlWKn8qBosRKFh0/ttZk/Q/4V0VucxiudhbMNrxwJk/UkV0Fr/q6QExopaSgAooooAKKKKACiiigBaSlooASloooAKTtS0lABRRRQAUtJRQAUUUUAFFFFABQfumiigCvaRhrFEcZDA5H1ri9csWs98B5jJ3Ifau7yqg8gAVwPizxDBNI1tF8wQkbhzk+1NAc/pcIm1vOP9Upb8eldRHAZJMY6da5PRzO1xcvE4TgDOMmtZPtQz/pEmT6mgDohEIVy3C+pqxDfW4wBKv51yrC72/fZv8AgRqBluAOC649aAO/hnjf7rg/Q1PvVRkmvPILu4t23hyfoa3rHVmuAVZssOx9KAOnVgwyDmoxKCevesKO+ljVypyAcEHtVqC6EgWgDWznvSE47VErHAz1NVLy6MLxoD948n2oAttLtqvLeHGEIBHqazpr8Mdqcn2pqh2OXO0frQBLNqc4GPWqM19O5G1jVwLCOCu7/eqxHKij5UUfQUAZMTTu/wA28g+xq6kZB+6/P+ya0VvCO4qZLwMcE0AZnzKdu8j6g08XEsRyH5HetYOG64NLgH+FSPcUAZo1UsCsgDL9K0LW5ju4vLJ5xxnvSNaW0oIeFfw4qFtP8giS3YjHagBkyiHdBOu6BuOe1c3f6GgZljIMbcgHkV13y3kJVx8wHI9azpLd4vlPzR/wn0oA831PQriEEwjcB1U1ytyHhdlljZR0PtXsNzbbl6Vzl/p9tcs8UigPjvQI88inkt38yJtyHqKt3MNrqtoQuFbHT0NWNS0Q2xYwkq6847MPauckNzbtuXIx1xQBSltniJicfMv61nFTFIecA9q6ATx33DYWQVn3lqQeRz2PrQBnOOQwqW3bbMOeDUfQ7GHFJ91gPSgC4eYm9jQmPPYeop0Xzxv7jNRZO9WoAkJKlT+BrS8Py/ZdQDlRjIOT6VmP91qvWZUywbiAHXafrQB3MihpY5UYbXXB/p/Su70W4XyWUfxMjfmMV5nZXbi3WNhwrgGu40qUIpX1VT19DQM6OIhcLz8hiP8A5E/+vXSW4wHHoa52TCwysMZxH+jCukg+6x9WNAEppKKKQBRRRQAUtFFACUUtFABSUtJQAUUUUALSdqWjtQAGkoNFABRRRQAUUUUAFFFFABTJnMcRYDJ7Cn1ia1cPNNHp8LFd/MjDstAGHdzalqlxLZ2EjFGb99OOn0FYOqaZHpu6I84wXY9Sa9NtLSK0t1iiQKoFcN4zVYrx/wDaTNMDF0RAqXJK8M45/CtVMh+eax9NuD9hD9FZyT71b+2IORjmgRp5A+lAnCHaMZ75rIk1FUrGutYYXQCswGD0oA69ngmG2RY/rioTAIjvgbBrmodUyQT69RW3ZXgmwgbgjigZoRSSlGXGBJ0PrVq2aRCCTyO1ZX2iRLqPJJjjOAM9s10bwCVAyjjHBoAvx3KyxD+96VmalbzStkOFXOM+gpsBaOXyxnnrWr5QePYeRigDISBbZMKD7t3NNZz6VpyQFVAwGXHWse8nSHIAyfQUAP34HNL5x4xWRPeNHGZJDheyiqkd1cOhkuJjGh6Ipxx70AdCZ3TknA9zTXvBGMuRg9wRXKz3qHITGD3bkmqyiSZlCIzZ9qAO2g1InmKVXHoGH8q07bU1chX4auNh8M6k6CWFCO+A4zVmF7+zkEN2jegLjH60Ad2kobGDUysDXJQ6oYsKc/4Vq2+oFgMHPfmgDSkQxuJY+o6ipCFkGR91uaiiuFkX3qSNdpKfwtyPY0AUbi128gZHcVgazpK3EYkTKunRh1Fdf9/g/eHWqNxAAT2BpAeR6g91bsEuB5kXQOK566C+YR/A3Kn+lema7orsWlg4zyy9Qa4LV7QlWIjKunJX/CmI5W6gMcm+Pg0qXazR7JRyOtWGO9cN1rNuYyh3j8aAElhy5HBxyD6iqzjccjqKnRgyEA//AFqhWYB9sihh6jg0ATW5KsM9DQV6fWrEcUMqjy5MezcVJ5IyA5Az37UAVpQVVvSpB8tvFIv8D1ans96nymVgcdDTktz9neIgZzQBt84EkfCyIr9ffmuy06XMUTDuoBP41xumMs/h2VSyia3PGepXkf1rqtFRmtIeSQVB/I0DO6kO60Oe/l/+hV00H+oU+vP51yUr4tAo6syAV2CLtRVHYYpALRRRQAUUUUALSUtFACUUUUAFFFFABRRRQAoo7UUdqAENFBooAKWkpaAEopaSgAooooAKztOiWWS4unGWeQgZ7AVo1Xs4jDG6f7ZNAFivPPiBOEuCp4xDkH1r0OuD+I9sJLSCRR85bYT7GmBw+nXSx6VEHYkHOR+NR3F8vSIFh6gVYl08Q2YQD7oz+nNT6RBAxDuofHA9qBFC1stS1GXEMLbD/E3ArQuPClzaRebJcWzD+JVcZFa9zOywFeUjxxisEK8txsc7UP8AG3pQAJpE6qSmxlB7HIq9YrLa3aLImBkZFPtJ7qxO3T5UljHJU9D+tal15l/Zx3Elt9nlUjI7GgY25SMTEIeG5rdt7uR7NTHCzgAAkVzUzN8oI64ANdpaRmCzijgXOEyc0AULebzboKyFDnuK2skhcCqMsgkXdswVPNakW0oCOARxQBTv2aOIBOC3Ga5y7AVmAHA6tXWzIHAyARWLqtoCpYHC96AOJ1G78vLbGcr91AM/jWCrapql75YHkqDyT2rsJEhtrOR1IMhBye+ax7KQwzbyOD/OgC3a6Ra2EJklYysBks9c/fa5dTMyQsYoQflCcHHvXTXLS3tvJDGpG4Yya5L7OsMzKQdy5zQBEmpanCQYbudW9d5q/F4q1oDyp5nlXjiRc5qCInBGwHuDWokltNpqqtoiXAYASAkZHrQB0VtvmtUl2hdwyR6VqW8h2A4z2qDw5A13ouLptzK5UMOOBWh9iFuSRLuSgBhvJreRQYyyHuvUfhW1p2pQ3K7d43D14qtY6fb3duXkTc2euelOfRoXZhC5jkX0NAGsyBsEHn1qGdMxkHr61jta6ra/Kkm5fWomm1UgAnNAF14g4KMMiuQ1/R1wSFG0c/hXSLcXCAGWIsfUVFcuLgGN42BI9KAPG9S0hopGeIHb1K+n/wBasaWLIwR1rv8AV4CjFG+ULkAj0riLyULKySYUg4z0oEYc0DRNlenrVeRWYZI/GtKV2ydrK4/WqJfDHjHtQBNZS87WbHoTWouduMIapWtn9qZdg5P511+leCLy5UMyFF9SaAMIoroB5WPdTUBRw/7t3255ya9FXwEscWTgtXKahozWF+0JBC9Qc9aAKunRmJ3yflYYI7Gu/wDC4EsCqv8ACCpribdDwT06V2ng0YvpITnDAEUDOqmB820Q/wAUq/0rtK5O4VRq9oo6CQH9a6ykAlFFFABRRRQAUtJRQAUUUUAFFFFABS0lFAC0dqKO1AAaSg0UAFLSUtABSUUUAFFFFABVZ7pY7gxHrjNWaxtRjdtRQJ1ZeKaA2AwIzXJeNFE0VvH2Dhq6CFngUea+RXO+L7gII4+55oA468f5HGe2AKwYLi6s7jcibowcFfWt94hK24dFFEEEbyBSoIHBoEPt9Wsbm23Sh0YD7pFRWtss8oeNAI2ODnkn2q9Pp6SXKpFHlAPTvU8GnSRJiMEtnkjtQBqafpsEfRQhxzuxmp7xf9HKhgQcAVFbWZjJe4kKj+6Tk0eaZJZXz+6RMgmgZlmHztYihTlQ2SPpXa2CYyGO4dq5vQbcy3Mt268sTj6Zrq4V8uNmAwMUAU3jBMg9SalhYtYxnvigjnmktB/om3oVYj9aAJFkyhDfmaoalNEts4LDJFabbfLyRnA6VgC4t7t2jdBGxYhQe9AHLzEmQxlSByPrUdvZRl+GHHTJrfvNHyxZcqf0rNfTZ4yMDPuKAL1tZSFQBKcHrxVaTwtFLIX8115Jxjuat6e8kbbHzt962lG4DHSgDk/+ESiVGAlbI5XitnTNAsorVf3IcnqW5rXWJfMTI71YsY+sYPAP6UARQWqwjykQKmOgGKdLatJAUUdelXZ02FWU4HQ1LEvyDNAGZpCXcbyROiiMHOc1reSu8Pzu/nTLdf3kp9TVigBpqCSJHzkCpzUZU5oArfY4j6/nVS4gRGIFaqpjk1nTgtK3pmgDzzxFBi8k28gNnBrlNSsba5hxKmWYcNjkGu68SQEX7D+EgfqK5W8hbys9MGgDze6s3t5imD8pxViwsftEoUoTnvXRajpokZJxnacZI7VvaPo6G1EkCjee3U0CJPD2mWOlASyoJJe3FdK3iRogRDaZ9MmoLHRrmXP7kkqOcjFbSaA0VoZAAG6lDQM5yfxdqCghbVVA69abqduNZ0iO/VcOoywH61p65aRJYMQmDj9apaVHKdJuICfl2HH5UAcvDZMYpHQEqpya67w3Elv9muVwXJIYfQf/AFqx7GMrazqWPK1qaMfJGxiQBIM59+KAOqJ83UIJQONoYfnXVjpXLacoeGJs5Cgpn3BrqV+6PpQAGiiikAUUUUAFFFLQAUlFFABRRRQAUUUUALRRR2oAQ0UppKAClpKWgBKKU0lABRRRQAVVnQG6ifuARVqq93lUWQfwnn6UAVL8kQceorjfFkhbUkQ/dCCuzuR5sRArkvEkKtqUbHjMYpgZFrEfIY4PXAqBklhfcg6Gug061SezdTjOe1D6cytgAHNAiXTr2K4jBePEmMcitHcrKVVgo9RVGCAxrzgewFWOR0GKAJLhYobCRgdztxlqx5ADaiGNvmmbnHXaKm1GcLD5XXJ5xS6JaF5DcvyOiD0FAzd021FvbImD0ArRkG2IAd6SFQUyOnapDGzHJPQdKAK23JqIqUkePtJ8y/XvVsLjNMlj81MKQHU5X60AMXKIAx5FVZLG2uJVl8pfNU5BqbzQwz0YcFfSmo205HY0ABQEYYVVltSOVGR6VpModdw/Go9lAGV5SE8rg1cgVBUrQq3UUqxADigBQodwTwBVhSkcisCMdDVbOKeqnbubp2oAtXDB4sAj61JFnYM+lVE+c4z36Vdf5IfoKAG2/wB1j6tUp6VHACsK56nmnE5FABn5hzT8VTmmK49jU7S8cGgB7HapPpWaQd+asPIzcZ4qIigDn/EFi05WYchRzXKTW6ybgR8pr0S5TzImTsRiuNubVo8q3HzEZoAz9O0a3lMiSE4I4PUfWkSD7BfrbbmgnUbkdOjr9PpW7oMHmzzx9vL4/Os/xbB5Wu6Yy/KZUZN34f8A16AE03xlMlyYLiPcAe64yPWu2t7uO9tllibKn9K4z+zo7mwhaRB5oTh8d6dod9Jp175MuRE52sOwPY0CNTxBbl7ZlAzlhVP7ObWzlI4Bi5/KugvIhMoHvVLU49mlzkjACGgZx1qpZXHopFLv8t5sN0Kn9ajsGCick5HYHvVGa7Be4x69aAO78P3guI7uJTwkgcfQ12qHKKfavKfBN0xv5YGPLxnHuRzXqVs4e3Qj0pAS0UUUAFFFFABS0lFABRRRQAUUUUAFFFFAC0dqKO1ACGilNJQAUtIKWgApKWkoAKKKKACkZQylTyDwaWigDHdvs8pgkPI5UnuK5vxEc3Nue20j9a6/U7H7bbjadsqHKsK4bXzNbSRR3KnPZsdRTAs6U2QwViBWo2w4Luax9GZXLbecd61ZQR2JpiEaW3iGRljWdc38j7lTEa+3WpJsBSDke9ZNxfWtu58yQEjsOTQBHPcMZ/JJzgc/U10mlTBrVApGRwa5KW4RbY3WPvHdz6U/TNfhtrkMHDW8h5I7GgD0WCfC7asfa047VgQ6hBKivHIG3Dsac12OgbJpDNuS5jC8HP0quJWL/KayTd4X1NX9M3yuWP3BQBcmtPtEYljOyYDg+vsay0vPKnMNyPLfpz0NbjzJAMyHC9jWTqkdvqEWV5OOGHUUAXYHGc9QasNHg57GuT0zU5bS4e2nyyoevcV0sGp20qgeYAfQ8UASPEduajCknGKtpLGwxvUj602R488Mv50AQrCBy3NKylzg9Kf5ietN8wnO1fxNAEsESqc+lSH94cfwj9ajTJPzt+AomlCjAOKAHsw6DioJJ8EYHPSoGkmOc8D+lIW5k9iKACTnjNTZyoquWyfwqdeVFABQR0oHWnAZoAideDWFq0AaHdjo1dEyfKaw7zfdN5aIQmckkdcUAN8PWwS7LDGDHim+M9LaeKxvY1JNrOC2B/CeDVrTiILpG5Cj5TXQSxrLEyOMqwIIoA4tYDExjX7uSQPxrM1O3OxmX06+9dFLGu/CqSi5A96rXlsfIKnHzCmI0dC/03TIJnbcduCfUiqfiuVLbTxCPvTMF/DvTtMuG07TBHjcSeBXCeLfELTXkwLnC/uox79zSGUDdAQSlcgsxOfas+3PmK5PQk1FDJvt2BboKsaZHuiJION4pAaOjyyWGp290ucIwYj/AGe9ezWBBiZVOVzlT7HkV5NpduH1BIXGVD4K+xI/xr0vRGMSfZWJLQExc9wOVP5GmBsUUUUgCiiigAooooAKKKKACiiigAooooAWjtRR2oASiiigAFLSUtABRRSUAFFLSUAFFFFABXHeMIHuL62QYwIy3PrmuxrmPEZH9oxc9Ij/ADpoDm7CCcTny22bepBrWe2uWUA3Mn4HFQWZAuHB71romQD1oA5PVLScKxDO5/2n4rCubZ47ctJ1YdBxivQrm284bRnnjiuW1e1C7yF+UZGPSgDnFuPtWjvBv5TK4/z9a4K4ub3TrhogzBOhBPBrrCzWl6zEfumOHFVNatreaAyfL0yCKBF7wh4hWcG1kkbzl5TJ6j0rr7m+nigMikliR07V5BpmnSzX4WBijq2Q47V65otrezpEksRmdV5fscUActquteKbbUXCeYsBJ2eWgbjtXU+EviTtCWGsgCboJQMfmK62PS0kg/exhXx90dBXEeIfAqX9ybiHMcq/xDvQM9IuLqG6tsqwYMMgg8fWqCNtGAea5Twwb/S7L7HqTlgh+Rs5wPrXQtcxFMhgc9MHrQBlm6X/AISAqT0wK7COwgmQMAM47V59JZ3K6r9pcMFdgQPSvQbBswp1U470AO+woh7/AJ05beMdv1q6pDj5qR4h1oAhUKOi08AHrkUq4BIIAqYAYHtQBFjb90depNROuOvJ9atHqe1VnBA7UAROckFajY/PJUzLmMetV2z5je4oAOpH0q0v3Kqr96rQHygUAAqVBTAMVLHjdg0AIx4qhc/K2Qfm/lV6R+qr+dZ9y2CsefvHk0AMh8tpVQcAnPA5NacsrSLsj6Hgsap6dGpeaQc87RVidtwPz7B6igCJreOJc4yfWqxsWmk3ScIOgq1bIud29n92qPVdRisbVmZgOKAMjWr6LT7d5FxvAwteKajdve6g8jfdQkKK6zxfrLrAWc4eThFP8K1wiyA7SD15NAjVgcLDOTXW6ZbRtoVpMnJdxk4964obntyoP3lr0Dwym/wvp6kchv6mgYtmVTW4pMHDrx9f8iu8V/I1OGYHCTqob6j/AOsa4q3jz5UndAa6+Zt+mpKOsbZFAHSUlNicSQo46MoNOpAFFFFABRRRQAooNFJQAUUUUAFLSUUALR2oFFAAaSg0UAFLSUtABSUtFACUUUUAFFFFABXL+I1zeo3/AEz/AK11Fc94iT97E2OqkZpoDnoW2XWfet2M5UHPFYMi7Z8+uDWrFLmJaANS3Te+cdB+tZOs6T9phk2Hnrite0fEZPrTHO7I7UAeV3lgZJGDrtdeCD3rHu9OaWIxYIX2r1S90mG4bc34cVg3ekCHJ6g/hQI5XwvoZt7tnY5LDH0Fei21ybGKQOwCggIqjFZmkWShi2MCk1KTYzBTkbuKAO1h/eQqwOdwBqT7Krg5XmotMPmafbucDKCruSreooGZF74ctb8AS7hjoVOCKfp/hqw04Dyoyzf3nOTWwrBhS0AZ1xpiyAlOvXmi3QoNhGNvGK0d3OKayq59x3oAjHA+lPEn4imNletMBznB4oAlKg9G/A06NuOe3FQZOORUi56fjQBNmoJBn1I6VKvcZ496QgEdeKQEe3C4NVplC596tjJ+lQXC8UwK6csKtqOKrxLzmrI4FAB0pC+1SaGNQSNhTQAnnYyufrWfNIzXLNgkBdq/U1MiF3LE4FV9XFzBZiW1QsVPzYHOPWgCzDcvaKYfssjgnO5CDVgIbhRIY2jHUo3Wud0u/uJZhtkl25yVKmuqid2QF0KgigCldXkVlbNNI21FFcleXLzRPrGp5js0/wCPeA8GQ9ifauo1eSwtoTc3wQpF8wDdAa8R8a+MZdbvGiiYrAvCqOwoAx9c1V9X1J5Scpnge1RQZKKT3FUkQ7c9zWpHHhR7LQIvWm3zYgcY4zmu88Lyr/Z8Fv3EmQPbGa4G1wWGO3+Fdj4dlCX8aHodnX6GgDatGBt5AoJIzn25rqYPn0wrnghf8K57T0DWuoZIGwNx+P8A9et+2/5B8eB95F/nQM2NHcvpcIJyyDYfwq/WRpkuxF5+RiQfY54rXpAJRRRQAUUUUALSUtJQAUUUUAFFFFAC0dqKO1ACGig0UAFFFFAC0UlLQAUlLSUAFFFFABWVrsXmWm8dU5/lWrUNzGssexuhyKAOIkUMikdjipYW+RR70sqeXcPCemcU2LhgtMDVim2pjtTvMGDzVY8KKyr27dJMKxAHpTEbEkgx1GKzb1DPtjjILE9M1k3GqPsYK2SoyOetc9fa1I8oYuwK/wB00Ad5Eq2VuxlU7iOBisS4ja4lG37vZjxzWJaeI5WUB5G6Y3ZrQhvN6jYwJ9c0gOtsdXitrWOBlb5BgmtG31e0mYKsoB9Ca4aa6MUZJHy1RS7LsGGQB6UAerqwYAqRSmUrwwNcPputy2xVPMLD3NdXaalBeLgkBvTNAy4LgDIzkU37QnGDiopYivKjP4VW3ZOCuDQBeMwK4zn3pqAj8agQY9atR8/SgBQKk28DjtQRgU/tgelAADg/Wg+30pByM4xignjrnNACIOKZKuRTunHah6AIAMECpM8UmKTOKAGOaryuAMVK5qlezpbWskrnhRQBhav4hGn3CRJ8zA5IHpWvpHibTr+JQZ0STH3GODXmc7S3F9JNICQ7Ej6VSu9OS6mjZZCjDupxmgD243dlEu/zIgPXIrD1bxnpthE22ZZG9FOa8tj0SU5L3s7oD03HFUNb8qxtRHHgluOTQIi8X+NLzWJmjVysQOAAa5S0haWXc3Trz3p4gWW4Clsjqa0ERU3heipQAkIDKX7Z4rQhG5W/3apogWJF+lXrUZJ9wKAFsm+dh7cV0OnXBhlhmz91kz9MmuWDNEm8dj+ma2rJ/N0+VlP3QCP0NAHeac4EmpL6lh19ef6V0tudtjAc4/dnr7c1xGn3QcytnlyhJ+uK7PJGm2fOcowz/wABoGX9FAmtSpOcj/P9K2oidm1uq8GsDw64BK9sV0B4YH14pALRSmkoAKKKKAFpKKKACiiigAooooAWjtRRQAhopTSUAFFFFABRRS0AJRRRQAUUUUAFNYZIGOOadRQBzmrWBjuVnAyjHDfWsgqUnyRjFdlew+dbSL7ZH1rlr5cqJB0I5pgPLBowawb8hbjLfd6Gr8NzyFPTpTL22WZMnp3oEcHrOprBcC3gPmSdMAjC/WoLXT7m6JLyAK/TAzk+1aFv4fjj1B7iTLQs5+X1NdBPGIo4ZbfDLGRwRigDljoN8FPlsrYP3WGKb5V/FsPkFc9ChPNdoskZRic5Zg3IwK0oLG3uJZQHVTtUKQeM5FAHGWWmajdTrGwkbdgLuGBWvN4f1KzdozFuwM5UZH8q7Z4Y7C0iESh33hmJHXHeqrapcvP5gbbnPydsUDscLJDPEPuFT0OcioP7Xu7B921mjHU9xXoJvpJWYXFvFIh/2aju9M0u9HFptJU5KjFFwsY2m+MEuowonBAHIY8iteLWLeUD96B9TXLN8PpJLjfHIsa844OTU6+B7uBTi73t2yDigDtLeYMueoNXoWBHFc5pLzLAsUyFXj+U59q3YG6UAXzyMU3f6/Sk3ZUVFK2BkGgCUk9OvtRkHIFRK4ZeOuKTfQA8vgU0Enk00c8mk3YNADmOBUZakkfkCmE0ADHvXN63K13J9mQ/IvLGte8udg8tD85/SorLThIwdhkDn6mgDkLjTJEhLmN+nXFY7QPIVVEYHPpya9dS0+8pwVPUGq/9jWMClkhVMntQB51b6VOseJC6A84JxmuQ8WWiwMHYcYwOa9qurK2YKNoznqTmvOfiBp6pbiVEBAPcUCPM7FM3Tn0FXFXmbjrgUywTEspPcCrOPnYe9ADT2+mau2vDLn0FVtvB/wB2pYXCuPoKAHPHui2t08wrWl4dQSWk8fqdv6VUvv3aHjgTZq74cIQTkHgTD+tAGnpkpQyITyNvFek5VrKwwPlJI/MV5xbwbdTlBGQSen513AuwNNiHeNs/SgZv6JEFZh0wuP1rb6isXw/Ms6M69MVtdD9aQC0lBOMUtACUUGigAooooAKKKKACiiigBaKKO1AAaSg0UAFFFFAC0UUUAFJS0lABRRRQAUUUUAI4LIQDzXMXURSSWBs4b5l/qK6isjVrcsu9eqnIoA4+ZGikIGetS/aN0O3virVzGJBvxwazwu1itMRGir9kG8Z5NRnLRhCf3ZHarixDbjHQ1WkiaMkAkIf0NAEdrd+URb3ABjHQkVt20NsIt6ggnkYPSueniJHzKS69Per2nXEzQeUB93v6UDOnh3OBv3HI65qVbWEDO1jWfZzzmMBhxnFaiMwUE8UAJ5UKkYhOfep4/LUY2AU0kt/9agLz94UAXURCOAKV4gy4qKN1j6vUv2iP+9QBSe1XzCyjHGDTkjK4qaSRZGG0496d2oAQHAxVW5lB+WrJNU3jzKTQA+Niyj0qRV7mmou0U7NACk547VG8gQEmiRwi5NU2cu2TQA9JAXJOcmobu8WIbFI3nv6VVvL9LZSqkF/5fWo9MtJL5zPLnyc5Gf4z/hQBa0y0e6kM0gPlg5GerVvwwhUzjrSwoEhGBgdBipgMDFADBHjpUcyEoBjPNT1HN9zrigDLukwAdo4Ncl4z083ukTLtJKjOBXZXClozisjUIhPaSJn7ykGgDwdIhDdsijjYKfs/eE/Wr+o2xh1E5XGMjiqxHzH64oERY4b8BTF79ulWAuXx7ioipwPc/wBaALU7edDIvGQc8+vFXtHjZbG4bAG6XI/AVnzfubjPRWwauwOBFLHuwH+cD8KAOq06JJYL65dgAuCp9DV37QtxBA+7AGEcD6df8+lctZ3cqx7SxCOMMAetadkskpCKxBAA69T2oGei+E/3UbxyAh2AZc9xXSkZFc5o0gvNPTy8R3ltwVP8vpW7bXC3EW4DDDhlPVT6UgJD8wI9RTBMuE3cFuPxomfyoy/ZTk/SsPULzyZ1XPAlDA+xoA6GkpQcjNJQAUUUUAFFFFABRRRQAtHaijtQAGkoooAKKKWgApKKKACiiigAooooAKKKKACobiMOhP51NR1GDQBx86CG6lt2yADxWbMAJMrjiui1i1bzVmA4Hyt/SsG8jBAcdO9MByjKqeMGh4w6kEcUyHDwMgPI6UtvK7nYy5HrQBGtuoJDLnP3SOtLpdqGuJcKQM9+lbMNujKA6449KuW0ESk4CjJ5wOtAEEcLJGozxuq/5RI7496sRIjLyB1qzsUjGKAMjG0kDP41IpLdAKuy24YfJgGkitRH1O72NAFUhu+B+FMxz94n6VpeXH/dX8qUKo6AfhQBRSFz22/WrSxALjJ+tPIHYUooArspBxTCtWmGRjHNQMMUAR4pjuEXJolkWNck1mXN5g+rdgKAJZZcksxwBVC4umKnadiDqx7/AEpNkjHfNnJ+7GKt21mGcSTAMw6KOi0AZ9lpL3soluAVgzkIer/WunRFjQKoAAGMCkiTAz+VPxyB6mgC2gxGv0p2R60dqaQD0FACnPpUE+WwuMDrU22opMbwPagCBlBXBrMuEKsVA+U1rkcVn3A3SH0oA8n8T2HkXzttIBbOfrXPGLDEe4NeoeKtPkuNNkaFQWUZx6ivO9m6IMByvBFAFEjbJz3xURHyj6A1dKBkz3xiq2Pl9qBD7qPzELf3cGoLaU4APVDj8K0I4w6Ef3kxWbJE0cgcDg8MKANmABomweVOR9K1LCd96uDjOMkVzttc+S4DdPuk1taaxaUxgjBORQB6lBbSyRw6lZ/LOEG9P74xWlDOLr/SbbC3CjEsR43e3/16i8Pn/QFGclRird1YCSQTwP5NwOjDo3saBkvnR3dtIAcHBDKeqn3rkr4sY2Vmy6cflWncXitKUuC1per0kH3X+tY85YTSCQAOwzkHIPuKAOztJxLawseCyA1Yqlpm19Lt88jYBVgHy2AzlTwM9jSAkooooAKKKKACiiigBaO1FJ2oAKKKKAClpKWgApKKKAClpKKAFpKUUUAJRRRQAUUUUARTwrNDIhA+YYrjpVOJIiMbTiu2rm9YtlhvA68LJkH60Ac9BIUm2/hWjbQjziT3rLnXF1jODWzAMIrjnjmmBfHyxjntTlfG7FMSRXTBqbaNhxjJHNAEqudgwSKkS5kUjJyKrI2UFKx496ANOKQuOetS1mpNlQVP5U8Tv6mgC9TSQOSap+cx6saY86qPmYD8aALbTAdKrvdEH1qq90CPlGfc8VRnvI4+WkBPoDQBrfaMfM7hR6DrUUuocYjX8WrBm1aGLkvk46CsyfXFckDJ9h0oEb8kzTOcNk92PQUscaR8jlu7muYbxDFbhTLn2RepqYa9LefLbxGNP7zdaBm3NdRwtjqx/M1cs5JZFyTgE9vSsC2jLSfNkknqa6e0gwBigC4nCgCnqp3KT61LHDgZNOfHmIKAJMCloooGJUD8zH2FTmolTLMx7mgRG/Ck1QYZyTWlInyHNVGT2oAoyRFlKkcGvN/EOkf2dqDGMfu5DnA969V8v5gQPzrJ8S6ObuwMkSgugOR6igDyOSErjHK1Sdcbq2JBJbytHNEVAOCDVe6sjs82P5oz19qBDLb/AFUR7ZxTZLf5WJHRsUkRC2nurVfSMPazv15zigDBuo9pz2H6iug0mzlXyrlG8y3x94HkexrOeMSoCcYIqzpF1caZKFQ5hbqp6UAeneH9US3UCVvkf9K7BWWRAykMpGQa8tguYLqMlRsdeShOM/St3RfEX2dVt3DbBxk8igZq+ILfYY5GG6MnHP8ACa5+aMKAytkCt3XL8zabmMBkJ5KnNcqL8bdvagDt/Ds/naYF7oSKnvA0NzFICdrNgiuc8OXu2Z4g2A/INdDfF2tSWwdpBBFAGl2pFPJHoabE2+FG9QKUcOR6jNIB1FA6UUAFFFFAC0nalpO1ABRRRQAUUUUAFFFFABRRS0AFFJS0AJRS0lABRRRQAVS1Sz+22LRr98cqfertIwJHHWgDgr61eWH7QqkSR8OtR6df4ISToa6fVbV4la8ijLAD97GOpHqK5a+sF2i8tW3Qtzx2pga+T1U8fWnC4kQYzkViW99IiBWG7jjmpzdMwBVGFAGqt4DweKa12y5IfI96xnnlUnKnH0qs98QMAGmI3lvXRiVYYPUGnHU27sB+tc7HPPIxChsetSMsp6l/pigDZbVBzukY+wFRNqSgZCk+5rHYSj7sbE+9RlLnJLMqD86ANObUpG4zgexrIubs8/NgGq1xPHDnfOXPoKybnUlGQgH1PNAi1cXQVdxJx6ms6XVMcRjGf4jVOSSW5Y43Me1aVhoznbJMM+1IYljbyzsZXzhvXqa6OwhMajgAetJBahVIAwBV+CPpxmgDRsI2eVOM4I7V2FvGFjBxzWLpFq2NzDA9K6BRhRQMWoTzcD2FTVCvNw3tQBNRRRQMKZ90U41ETuPtQIbM+E+tQrgdOTSuS74HapUjwOfyoAFjyhz1NKFDrgjI9DT84FRg7GPpQByviHwrFcBp7ZV3HqhH8q4a5tZ7F9jIRjqD3FeuzDzWAzwO3rVS80q2vo9k8QI7HuKAPIZbKOQbovlc9R2NOspo1ia2k4Y5XJ6H0rrtR8F3EJaSyYSof4Twa5S8026gJSWFxz0ZSCPxoEUPKeJ2hcDg8c1IseSYyRtPQ0ObiMKArELxkioyZwSDE3PPQ0AWrXUGt38ibBX+FvSrguyMiObjrgmsC4m+T51b2qCPUpbc5RFcHswNAHVvq0iQmMykqeopkF6kj+WSKw4tYmmJSeCML64pAWWTzEGSDnigD0LQ3tzKRI20AcMK6tz/AKC2JfMQjg+lebafcloCwOMgV1ui3LPbyQOxIEgVcmgaOutCfsqZ7VPUFr/x7/nUynKg0AA6UtNT7tOpAFFFFAC0nagUvagBKKKKACiiloAKSlooASloNJQAtFJRQAtFFFACUUUUAFFFFABWNPpC2pmmtUJjkOXg7Z7kf4Vs0UAcNPoUcjGWzmaM9426D/Co1tJ4BiQDPrnrXaz2cM53MuH/ALy8GqEun3if6maOQf3ZV/qKYHO+WSB0/ChbcEnCg++K3Vsp2OJrCIj+8kmKV9KRsKIHU/79AGF5Yj5YgD8qhm1C0g+84J9BzW5JoOdx6jHQk5rMk0O18tjJFJtBxkNyKAMS51yNVby4icd24rAu9XuJmIAOD2HStnUdLS0lHlnfE3I3HP4Vmtahhu6L2oEYUhnkOGJA9BRFaZbDVrmzCjAAz/KpIrXLKvbrwKYDLKzPy4QAGuhhtlVFGe1MtbZUxgfnWpaxGTJAGBxk0gI7a0DdBn61sWlio2kgY9BTre32g5PPtWjFGV28npQMt26BFAHarNRRDAFS0AFQwndI596lY4Umo7cYQn1NAEtFFITgZoAjlboo6mkY7QFHWo0YvKzdhwKlxQA1ExyetOziio3LNwgyaAIri5EYwOWPQCoolc/PcOB6IKVoCmWdwpPfPNRq4jPyKGPq1AFouCPkGKrsXY43N+ApRNO5OMUg85+Mk/QUAL/ZyyD97M59g+Kik0ywDYdd4P8AebNWRbnA8xjk+poa0DLjH45oAxJ9A0zedquFbsjdKrr4d00Aj7NdS+xc101vFGmQQN49asc/wr+dAHFyeFbCUfu9FJPrJL/9eoofBcMfWOKEZztQbjXcbCep/AUoRR2oA5KTwlayRgNEDx1YZrjda0hbCd0SIBD6V6+4G054FcV4usTLD5yZ+Xrj0oA4bRHDN5ZbjNdXo822eNTyDIWJ+grjtKXy7l17g9a7LSbZhlgchcAfiaAPQLRdtrGD/dzU1NQYRR6CnUANT7op1In3RS0gCiiigBRRRR2oAQ0UGigApaSloAKKKM0AJRS0UAHakopaAEFFLRQAlFFFABRRRQAUUUUAFFFFMApetJQKQDDIMHA6HBqvcxrkSD7p4apZRtfcOjdaMK8ZQ9CKYHN61pqyQOFUccgVyqR7vkIxj1r0Jk3qUb7y/rXJarZG2vBIv+rk7ehoAy3t0jBLDOegp1tAdxZlxnsKtrGHKnaSKsCMInr6UCI0iLAgDAFdFp9lttVOQCecEVmWse5wOMDrWuskiYSMg8evSgZaSDaBlAf92rCxjHynHsabCk2AWYfSrWAcUACjApScUtGKAI5ifLPbPFOjGEAqOY5dF9TmnSypBHucgAUAPZgoyTVKa6L/ACp06fWqFzqfmOEGcE4VR1NW7aPYBLLgN6elAF6FNkQBHPegnnA5NRpI0vIG1PU96dy/CcL3NACnjrgn0zShSRy2B6LxQIsD+tKEIOc0ARm2gJyy5+poEUSj5Yh+VTEZpNooAYpxxsApTJtPCZHtTiABwOajHXvmgAVhLKSRgKMYNOaNVBKsVqvGxDO2erVJkyMM5CD260ARsxV1kJ5H6irY5GajZY3XGaI1bywC3TigB5IHegEHpTfKHrS7MdDQA24H7lqz9Stlmtm4GCORWiyblK7utUJkZkKlj0oA8svLb+z9cMbDEcnINdtoMcUsYUY5Iqtrmji9tdyD97F8yn19qqaHqBjIVhjHp6igD0QdKO1V7S5W5t1kU9asUgEAwoFLRRQAUCiigBaKKKAENFBooAKWkpaACkpaSgApc0lFABS0lFAC0lFFABRRRQAUUUUAFFFFABRRRTAKKKKQCModSD3qBMq209qsVHIuRuHagCF0DEjoexrH1W3EsDqeCOn1rZcnZuHUVl306Pbl15wKYHPWygRncfu9alkkVl+VSBnvVd7hY7nyzgGQ05yQjYNAizBL5a/ewDWnZTeZIPlO3vxWHBlxwMn3rbsUOAWfHsKBm4kigdamUgjIqtCiDoMmrIoAdRRUc0yQRNI5wBQBWu7qO2ZpJDwi9PeuXu9TuL2U44X+H0FMv7t724bJwucgUlrCzSDYM/XtQBsadbR2kIml/eXL9B1IrTihmlIeZQB2XNFjZ+SgeTlz3NXe2aAK5YF9rHao7etWAVxwRj60yNhIvI+tIYF/hAH4cUAS0VXG1GAZdp9R0NSkkLuU5HpSAfRSAggEdDS0xhSHoaWmyHEbH2oERWwBiyR1NT1HAMQqPapKBhRRRQIZI20UKdygmmT9B9aegwgoAWqspdZdoAIPNW6gmIVkYnHOKAM/G7PHHcVxmsWhstRYxHAf5wK7tgoZhx1qhqOlwajCEfKOPuuOooAg0K9i+yBkPJ+8uehroYX8xd4YEHsK4uz0a7sLxVEwMLnBI/wrsbe2SCMBCfzoAsUUUUgCiiigBaKKO1ACGig0UAFFFLQAUUUUAJRS4ooAKKSloASilooAKSiigAooooAKKKKACiiimAUUUUgCiiigCFkKDPaue1NPs0xOf3MvX0BrpmxsO7pjmsDUYxcWskQ+ZRyrUwOTuIPMXIJDRtkGrdvIJ4eOveoolI3qeR6VThuxBeeXjCZwTQI3LeIbRnitS2ikYDajH9BTdJhiLkuQxIyK3BgDjgUDGQRuvLEfQVZFV5XKRkjrVf7eoG49F6+9AGkzKqksQAO5rl9a1Ezv5KN8g9KTUNTlmyqnHsD0rMhiaWTauXZqAHWkPmyYH4ZHWuqsNPWBQ7r83YelN0zTFtIw7/NJ79q0qACiiigBiR7GJB4Pan0UUANZQwwRkVWJaF9oJYf0q3UbRbplkz0HSgBI+mUbj0PapNxHVT+FI0YJyOD6ikzIvYMPypAO3A96hun2xhfU09iWGNhoZAVOfTFMByEbFwe1OqNUXaOO1I7xxLlpQo9zQBLRVE6rZK203UZPtSS6mqRlljdsDIIWgC6yhutNeRU9z6CsS31ae6TzAMDPQ8Uk2ouhwWXJPY0AajzyNkKAKrurN94kmqJ1NV/iLH2FSJqgIIEBJFAFgSgcYORSb/WqgubqZj5doPrUzx3bQncqJx2PIoAYxlN0rAfux/Eela9pIZI8hty+tcuJLtEaCST5M9T1IrqbTyktIxGRsA60AT0U3eOPT1p1IAooooAWjtRRQAhooNFABRRS0AFFFJQAtFJS0AJRRRQAtFJRQAUUUUAFFL2pKACiiigAooooAKKKKACiio55RDEWP4CgCpqNwVjMa8setVJrRl05cEh25JpyqZWZm6mrl0R+7X05pgcZKCkzArjmsbU4tqyMvDcNXV6tAqzh8ckVzd6NwcZ4xg0AS+HdfAdYZG5U8E+npXfB96BkPBGQa8Clu3srw7WIZWrv9C8ZRjTtk+SV4U5oFc7G9vI4F/eP14rDuL3zpNkGQuaw7zVJL+43M3y9QuelWbdWI7jdQBay7yiJPnZjjiut0rSxZxB5ADKRz7VX0PSRbILiVf3hHyg9hW3QMKKKKBhRRRQIKKKKACiiikAUU13C9evpUZ8yTvtHoOtAEhdR35pjSZ6LSrGqc9/U0x50Xgcn2pgVZoLmQnbKUX0qsdLVjmWQt+tXDIznJOBVW8vFWMxocsepHagCBtM09Blm/WmTXCInlwKSv+0c0yC2luG+RSR6npWlBpsUWDKwY+g6UAZEVpcTjEYIX9KnXSJOrsPoDWtJcW8A25yR/CtUZdScjEahRQA+HS4to3MAR2qd7WO2Xcmw/WsoyzSN1JJ7CrUdlNIAztgfrQAsmoGPgYP+7VKS9llJADmtNbCJeoLfU0pQZ8uFQD3IHAoAxzFK6ZIJz60oF9AmIywjBztNbaQrGh557k96mSNHiwMYPWgCpY3/ANpTaT8w4YVqryBiuYuR/Z+orIOEY4auit5A6DB7UAS0UppKQC0UUdqAENFFFABS0lLQAlFLSUAFFFFABRRRQAppKKKACiiigAooooAKKKKACiiigAoopelACHiqE5M25/4F4FSzzeZIIIzyfvGidQkAVaYFaBeAPU1LL80hOOBhRUcOS+ewq0YwI1z3OaAMDWj/AKQo9Frl7teH46102rjNwSeOK5+f5+O1AHnXiGNYr/fkYcA496bpTFpvLL4XqR9Kd44tmjv7aYZ2shGe2QaXw5ZSzfvGUgHjJ9KYjtdMtVkHmHGB+tdfo+lF1F1KPkB+QHv71Q8P6cLho0wREoycjqK7ZkVYdqjAAwBSGOHSimodyA+1OoGFFFFABRRRQAUUUhbHuaQhSQBk1G0meBxUZk3vgHOOpp+0EYoAZvVeSeaY90F4VSTSSFYwd2AKZFEZ/mPCfqaYDDJLM2M8egpWVYl3OasNtiXagqsZIwwZvnf+FRzigBhR5FLMSinovc0sdgGOWAA9KmRZnbcUx9alEMxxmQCgByW6quMkikfy0G0dfQDJqQRH+J2Pt0p4UKMKAPpQBnizWTrEw9ycZp66bCByv61eooArCGKFSFULSoQYxj0qVkz2quYmQ5jOB3U9KAByQpx1qJgViDxHpyR61JvUffBB9OtNMbsd0Ubg+p4oAZ9oDAFxj+RqIzvBkBSR3qV4bhlw0Kkd8GmLIYjseBsduKAKN+wu4WH8QFRC+e3fS59/7syGGT8Rj+daUiWtxkKdj+/FYtxAfIntCBuRxIh/GgDsKSmxtviRvUA0+kACk7UtJ2oAKKKKAClpKKAFpKWigBKKWkoAKKWkoAKKWkNABRRRQAUUUUAFFFFABRS4pGZUUsxAA7mgA6DNZN5fPM5htzhR956beX7T5igzt7kdTS2EO1fMlx6AUwLVjFtj3YPPTPWppz8tOWVMegqOeaMKRQAyFeB/tGrMo/d/So7Ybl3nv0qZhlSD0oA53XI+N3auZUZlxnNdVqkbmJlB3KK5eRxC4JXLdgKAKuuaOLuG2IRWZHzg9K0NC8PLGdp+Z25ZscD6VetLdynnXPLH7kfpXQ6fbMsIYgDd1PrQBPaW0NlHtT7x6nuasN5jrgDaD3NKqqn+Jp9ICKGMxLtLbvSpKKTcPWgBaKMj1o4oAKKY8qoOeT6CqrSzTggfInqOpoAsvMi5G4cVGFebp8qfqaSG3XhjzirDMqLliAKYCJEqLgClZRj0qhcatFFkKcmqL388xPJVKAHahdxLKI3+6D271NDfPKihV2RDvXONM15e7eqKeTXQW1tLIi7RhAOKALQjkuCCx2R+nc1ZjW3gGFKD3zUKWA/5aOT7CpltoU4EYJ96AJN64zkH6UoOex/KhVCjAAH0paQBRRRQAUUUUAFFFFMBCoNRSIh6oT9KkLgSKh6sCadSAp5jU8PIh+tKZgRtdlZT3PBqyyBuozVeSzRwQOKYFJ3RZChw6diap3cCSIxjYgYxg1ZntTbt8x+U96gnJNuSB0HUUAT+H795Yjaz/wCsj+6fUVt1yNpIIrxZUbgH9K6uORZUDKcg0APo7UgpaQCUUUUAFFFLQAUUUUAFJS0lABRRRQAUUUUAFFFFABRRRQAUCiigBGdUUsxwBWLLNJqVyYlO2FDzT9SvhHIy9Tjao96itf3cQAPJ5JpgWzHDbRbUUFjwKVV4BY81Bvy4PU9qkZ8Dk8UASFwvIqrNG9x3IA54qeNWk6DC+tTxRqZAo6Dk0AWYVKxKD1xSXBZYHK/exxUlZ2rXv2aAqnMjdPagDJulumjCBiSeqg1VtNJZJ98n7yXqB2WrGmCeaaQliQepNb0MKQpn8yaAK8GnqDvkOTU9ud6HdKFVSVwDT/3k6kodi9j3NEFjDCuMbieSWoGKzWi8M6E+7ZqcY2jHTtSCNB0RR+FOpCCiikLBRk0AKxVRk4xUYLP0G1fU9aa7hfmk/BRWfPfTGUIYyiHvTAus6ZKqeO7etV5r6CEhWcD2HWqMk7kEJnHqKiisJ5X3BQoP8TdaALc+trGv7tePVqomW9v24JCepq/HpMMZDSkyN70+4lS2hLcBR2oApw2EaHc7Z9SaoapddLa3GWPUjsKr3F9c3szJDlU9av6dp4DiV+R3J6k0AT6LpQhAMi7mPJ9q6IAAccCq8BOMJHhQerd6sYz15oATOenT1pQMUUUgCiiigAooooAKKKKACiiigBCoLBscjpS0UUAFFFFMCG4gE8e09eorIe3ljLxgbk7j2rdqBx+/HHVaAOZMJVmwCrJ2PcVs6fJiJWVsqRyPSmajF9y4XqvDCk01kUvEuNrfMvt7UAbNHaijtSASig0UAFLSUUALRRSUAFFLRQAlFLikoAKKKKACiiigAooooAKbI+xfc8AU+qhlU3DMT8iKQPr3oAwbpd14VPODk1cT5UHrVSPM167ds5q/HGZG6cDrTAVFOwvT4YTM2TnHrU6opcIeg61aAVRxgAUAQyYhiwO/AqS3TbHk9TUK/wCkT7v4F6VZkkWGMuxwoFADZ5lgiLsen61zNw0l5cnHJY/5FWLyea5fzGBVOiLVnS7UefvYZ2DOfegC9Z2aWlsEH3jyxpWB8su3fhRU8pwh/KmEb50X+FPmP17UASgYAHpS0UUDCiiikIRm29s1C8hzgct/Khpd5wn3fWo5JBGMDrTAaxCck7mNRvC0wGeB1qSOMk7n6055QgoAb5SIvQAUqyBIizcDt70x5AieZLwP4V9apSStM25jgDoKAJXuygZic/0rHmma7lPmHCDtRe36j5E5PYCooIJZWGAWY/wigCwqBiFhAUdzWtpxhdzEsgd06gc4pINI3RDzmK56qtaFrZW9khWCMICck9zQBOBRRRSAKKKKACiiigAooooAKKKKACiiigAooooAKKKKYBTGH7xT+FPprjI+nNAEEyBi0bdHH61hTRzWkwmjztX7wroLhdyBh1U5ppjR4ySBhhzQBZpO1LR2pAJRQaKAClpKKAFpKWkoAKKKKAFopKKACiiigAooooAKWkpaAIp3KptX7zcD2rPu2QQhQau3JCjP8RGBWTe5iLZ7L+ppgNsFBWZ/U4rUhQCIVVsoCLNc/wAXNXYyPLB7CgCFQElkJPXmoWlc/uxkl/5UXMm4lui1JaRkDzZB8zdPYUAT2sig+UV2kfrU0sayAb/ujnFVpiYpkkHQ8VJc+ZLGEj4DdT7UAZ7oLmd5B9xOFFaFlF5VuM/eY7jVeGMg+So4B5NaAGBigBrrvQjNCJt3HOSTTqKQBRRTZJFjXJP0HrQArMFUljgCqzOZvaP09aaS0rbn6DotIz5+VaYCs+PlXrSxw87m60sUeOTSySbRyfwoAbK4Ue1Vt6ohuJvuj7q+pomkUDdIcIOTWRcXj3k25VPlrwi0AW2ladjLIeOw9Kzb28ZspGdo7mrrRNFatcXR2ooyF9aybOOTUrreBhM8DFAFjT9Pad8469WPaumtY7e0Xy4xlu5HeqsUDYEEK4UfeatBIkto8nr60ATbgCAeCe1LUEeM+ZIcE/dFT0gCiiigAooooAKKKKACiiigAooooAKKKKACiiigAooooAKKKKAEXpj8KjfCgqOmMipOjfWo7gYVW9Dz9KYE1FAo7UgENFFFABS0lLQAUUlFABRRRQAUtJRQAUUUUAFFFFAC0UVDOx27B1bigCHd5sxkP3F6VlamTJPFAPvyuM+1a4QDC/woMt9ax7f/AEjXRKx+WMFv8KYG24CosS+mPwqq7HzWjzhepqwpzukPfp9KqBWmu2C/d4BPoKAJYYfObcw/dr29asyjGCOlSKoVQAMAUjruQigCFwHQA1Oowo+lV+yj3qweVx7UARW4+Ut/eJNTUiqFUKO1LQMKKKrzT4ysfXu3pSEPlmEfA5f0quFLNvkOWP6UyEj5s9c9T3p5y5wKYATngU9EA60qptFRyOc7V/E0APkm2/KnJqARsxLOfxNPwI1yRk+lUb+6ZIjgZJ6AUAVNVvEx5C9O+KTSbYyv5rZ2LWZb2897eiLOM8sT2FaupahFp1kYYflRRjI6mgChrt/9svEsoj8inkL3rb020jtbdd+Fz2HWsTQrRSxvJlJdvupXSJazzvvkPlr2A60AWTcRRLhBk+gqPy55zuY7F7etWIoI4h8q8+p61JQAyOJY+mSfU8mn0UUgCiiigAooooAKKKKACiiigAooooAKKKKACiiigAooooAKKKKAEbqD7024/wBQ/wBKfUMzZMcfq36CgCcUnalo7UAJRRRQAoopKWgAopKKACiiigAooooAKKKKACiiigBelQJ87NKen8P0qSRS67QcA9fpRwBtUcCgCrdN5dmecM/WsmxH713UYycH6Vo6gSSE61WXbbqAOW7AdqYGgzBlwOAOD/hTrNdsTHqWY5NR20ZeIO3XsKtRrsjCjtQA6iiikBA4w+Pep6icF2wO3epR0pgFHSgkAZPSqryNL04T+dACyTb+F4X19ahOAKUBmO1Rmp47cDl+TQBWgjZmOeBmrioFFMZdsmR0NSDJHNAEE8mxeOppkKZBY9BUzwh2yx49KftATHRRQBTfqSaydVvUsrdnI+ZuFHrWqJo5pGCHESfeb1rmNUIu7wuTlBwoPpQBc02NrewMsjfvp/mb1x2FUlhOp3vOBBGcc/xGpS01wkdrB/rpTtB/ujufwrobHSbXTIAFBdwPmduSTQAtmkVvtRI2yeA2K0qiiQk736noPSpaQBRRRQAUUUUwCiiikAUUUUAFFFFABRRRQAUUuKKAEooooAKWkpaAEooooAKKKKACoWG66U/3UP6mpqjQZlkb3AFAEgo7UopO1ABRRRQAUUUtACUtFFACUUUUAGaKKKACiiigAooooAOtFFQ3MvlQkj7x4FMCjezb5iqdR3p1nZgne/I6896hghaSXqG7kCtZAVUAgD6UARQEfvE/uuanqrAwNzMB0Y5FWqACiiigYgGKCQASTgCl6DJqsSZ2yeIgeB/eoEOJM3zNxGOnvTtgYDsv86GIjXe/4LREHY+ZJ1PQelAEiqFGAMClopN2fu/nQAjgbeTikUEjjinBRnJ5NLQA0KBz1NZ97O0z/Zoe5wxFXLl2WIhPvngVXgtnjQsB+9bjJ/hoApSW7yj7LE22NeZGHc+lZM8CrMwAOM4BrpZY/s1m5j+8BnPqawG3T7Uzyx2Lx+tAF/QbQDzLxhy3yJ7KOv51rr+9fd/COnvUaRiKGO3j4woH0FWFAUADpQAtFFFIAooooAKKKKACiiigAooooAKKKKACilpKAFoopKAFpKDRQAUUUtACYopaSgAooooAKKKKAFo7UUdqAENFFFABS0lFAC0lFLQAlFFLQAlFFFABRRRQAUUUUALVC/Tziqjtyaus21STVVfnkC+vJ+lMCS1hEUQOME1PRRQMqxxGKQMR3I/WrVI4yp9qF+6KBC0UUUDEYgKc9KYvTe3A7D0pzLuIz0FRvmV9g+6OtAgQGV97dB0FSkgcd/Skzj5UHT9KULj3PrQAmCfvflTqKKBhSE4GTS1G3zvtHQdaBDIwZJC56DpU9AGBgUUDM/WJhFYNk43HFY+lO0l7l1ykK5/E9BVzXpk4Rz8qLvP9KZ4etsQCTJ5be2e57fpQI3ETGWP3j1p9FFIAooooAKKKKACiiigAooooAKKWkoAKKKWgBKWkooAKKKKACilooASilxRQAlFFFABRRRQAUtJS0AFHaiigBDRRRQAUUUUAFLSUtABmkoooAKKKKACiiigAooooAilO9xGPqaeqKvQc0CNVZmA5brTqACiiigAooopgFFFFAEcr7VwOp4FIAQNi9f4j6VIy55GM+9CqFGB/+ukAABRgdKWiigAooopjGucD3oRdq+/emr87luwqSgQUE4GTRTJmCQsT6UgOS1mRru88lTlXcD8BXU2cAt7WOPGCBz9arWWnxIfOddzk5BNaFMAooopAFFFFABRRRQAUUUUAFFFFABRRmigBaKSigApaSigAooooAKKKKAFopKKACilpKACiiigAooooAWiiigBKKKKACiiigAoopaAEopaKAEoopaAEooooAKKKKACiiigAooooAKKKKYBRRRSAKKKKACiiigAprrvUrkjPpTqKAEVQigClzyB60U18jDYzg80APqrN++mEY+6OTUrzKI8qwJPTmkgjKKWb7zdaAJQMDA6UUUUAFFFFABRRRQAUUUUAFFFFABRRRQAUUUtACUUtJQAUUUUAFFFLQAlFLSUAFFFLQAlFLSUAFFFFABRRRQAtFFFACUUtJigAopaKAEopaKAEopaKACiiigBKKWigBKKMUUAFFLRQAlFLSUAFFFLigBKKKXFACUUuKKAEopaMUAJRS4oxQAlFLijFADPLTfv2Lu9cU6looASilpMUAFFLRigBKKWigBKKWigBKKWigBKKWigBKKWigBKKWigBKKWigBKKWigBMUUtFACUUtFACUUtFACUUtFACUtFFAH/2Q==;" vertex="1" parent="1">
          <mxGeometry x="-560" y="265" width="100" height="125" as="geometry" />
        </mxCell>
        <mxCell id="QZQTw5gR4J6DBzHuBtWQ-4" value="" style="shape=image;verticalLabelPosition=bottom;labelBackgroundColor=default;verticalAlign=top;aspect=fixed;imageAspect=0;image=data:image/jpeg,/9j/4AAQSkZJRgABAQAAAQABAAD/2wBDAAIBAQEBAQIBAQECAgICAgQDAgICAgUEBAMEBgUGBgYFBgYGBwkIBgcJBwYGCAsICQoKCgoKBggLDAsKDAkKCgr/wAALCAFAAQABAREA/8QAHwAAAQUBAQEBAQEAAAAAAAAAAAECAwQFBgcICQoL/8QAtRAAAgEDAwIEAwUFBAQAAAF9AQIDAAQRBRIhMUEGE1FhByJxFDKBkaEII0KxwRVS0fAkM2JyggkKFhcYGRolJicoKSo0NTY3ODk6Q0RFRkdISUpTVFVWV1hZWmNkZWZnaGlqc3R1dnd4eXqDhIWGh4iJipKTlJWWl5iZmqKjpKWmp6ipqrKztLW2t7i5usLDxMXGx8jJytLT1NXW19jZ2uHi4+Tl5ufo6erx8vP09fb3+Pn6/9oACAEBAAA/AP5/6KKKKKKKKKK9g+Fv7Dvx2+JHgSx+MWvR+H/AfgLUfNksfHXxL8S2uh2Go20ErxXk+mx3Li6137K0bCeDSoLy4RjHH5LSzQxydf4T8Cf8E6v2efFWmeLPjV8ctQ+P8umahDfSeAPhVoeoaJoGu2ocA2V3r+rx2moWEuRI8i22k3CvF5aR3cMszyWn1h4/+LviPWvhZon7VX/BVP4v/wDCprb4x/ZrPwF8N/gx8J9OvPGT/C9IGtlstIOoXsMPgvw2IRdWVo1vibVRqN891FqNsgY/J/iz/gofBoPirU4v2Uv2Nfgf8MvBtxqE0+n+F9W+GGl+ObqNWc+W02qeK7fULt5RCIY2WBre1LRGRLWF5ZS/kHxr/aF+Pv7Sniq38dftGfHHxh4/1u009LC11nxr4mutVuobVXkkW3SW6kd1iDyyuEB2hpHOMsc8fXsHwt/bh+NHwf8AAlj8OvCfgr4P3en6d5v2e48U/s9eDdcv38yV5W82+1LSp7qfDOQvmStsUKi7URVHr/wt/a8+C/7SOsWOg/tQfswfsgeH9Q0Tw/LGPiB4p8FeMvDkOrYvHkjglsfh/LDatchbllWf7BHuhtVWSZnVA/Qftc/sf/sgfAHWdHX44fDX4gfDfSPGH2+/8JfFn4MePNF+KHgfxYlpeSWl1BocDtps1vbLMCyi71a6vrWNYIrqGSS4+0J4h+0b+wh8QvgH8GvCv7THhf4l+D/if8LfF+oXOlWHxG+HM1/Jp1jrNuWMuj30WoWlpd2F95IS5SK4gjE9vKssLSqshTw+iiiiiiiiiiiiiiiiiiitDwn4T8VePfFWmeBfAvhnUNa1vWtQhsNG0bSbJ7m6v7qZxHFbwxRgvLK7sqKigszMAASa/U/wr+zfo/8AwTh1jwT8Gv2etY/Z/wBP/aDl+w23ir4xfEnW7Px5regeOJbyxuI/C3hzwn4eOtzWNzYTWslm+q3mmvJLcm6WGa0Elmk/P+Hf+Ce/wJ/aa0fxH+2L8efjx+0B8aNPuvD9nrOufFTxI11aw6dbRWZZ49Q1Pw1p3j1Rc29pHAZ7TU5NKuLCEW5aKZJ/9H+f/hb8X/gT4Q/aOsfhV+wz+wD8P/iOlv4gluJdW+N3iO68Tw63bWTPcvK88lvoNrp2iRraQ6hJLPZW1xHDb3S3139gnu7Kj9qr9iX/AIKMfGj9o7xp8Sf2vPjH8H9Q+JuoeILhfGsnin9qf4fW9/BfxN5MltLA2tJ9l8jyxAtsERYFiWJURY1QfOHxr/Z6+Pv7Nfiq38C/tGfA7xh4A1u709L+10bxr4ZutKuprVnkjW4SK6jR2iLxSoHA2lo3Gcqce/8A7aNr8PfB0Hw1/wCCbvwM+Cng/wAO6roWn6DqHxJ8b+KLuwj1/VfG+qaXZy6hYajqt4sI0Sx0u4uZNNOml4YbeWzuJrxnnBaH2D9mT9n39iX/AIJ5fH3wt8Xf2hf+Cmf7OHxK0qx1DU5PH3w58L/Cm78frrmjWF0oTT9Ol1PSBYRX2oXVhdWouJJbI29rLb3kNzPBeAH4A8Wazp3iPxVqfiHR/Cen6BaX+oTXFroWkyXD2unRu5ZbaFrqWadoowQimWWSQqo3u7ZY59eofBT9tb9rj9nTwrcfDz4K/tG+MNA8KX+oPe6z4IttclfQNYkdI4pVv9KkLWeoRSxRRwzQ3MMkc0S+VIrp8tev/CH/AIKq6joE+teHv2if2L/gf8RvCnizT7TR/Fej6T4Bt/A11caMmqWOp3FpDdeFF04CWW402xdZ7qK7MDWw8tAk1zFcZ/w6+B3/AATj/as1l/Cnw2/aN8Qfs9+Jrj7Pa+HtK+OlzHr/AIb1O5e8t4i9x4k0qztZNKzFPK+ybSpLeMWTPLfIJwsPkH7SH7Lnx2/ZI8d2fw6+P3gb+xdQ1Tw/Y67olxa6na6hYavpV5EJba/sb6zlltb62kXIE0EsibkkTcHjdV8/oooooooooooooooroPhb8J/in8cfHdj8Lfgp8NPEHjDxPqnm/wBmeHPC2jT6hf3flxPNJ5VvAjySbIo5JG2qdqozHABNeoeGf+CZP/BSTxpp0mseDv8Agnz8cNWtIdQu7Ca60z4T6xPGl1a3ElrdW5ZLYgSw3EMsMiH5kkidGAZSB9X/ALN/7Mv7ZP8AwTv/AGcbzxV4A+AniDw7+1V8Wft0Xhp9a0FLPV/hJ8OLRTZ6x4qnmuLuNvDf2+7u0sY9UvbaBba00/UZUuoVuFlrj/GPx3/Zg/4JsfDPR/gr+z7qnwv+Ofxbj0/xNovxI8Waf4fm1DwFHFc3qC3/AHeoQxv4qvoHsLK6gkuFbQbbyLaW30+6u3n1E/KH7S/7VX7R37ZHxTu/jX+1H8aPEHjnxPd+Yv8Aaev37TfZYXnln+zW0fEdpbLLPKyW0KpDH5jBEUHFHwL/AGafiL+0R/an/CAeI/h/p/8AY/kfa/8AhOvix4e8L+Z5vmbfI/tm+tftOPKbd5O/y8pv2+Ym7Q+Nf7InxW+APhW38Y+OvFnwvv7S51BLKOHwV8b/AAr4luhIySOGe10jUrmeOLEbAzMgjDFFLBnQNz+s/tC/H3xH8GtJ/Zz8Q/HHxhf/AA90DUGv9C8CXvia6l0bTrpjMzXEFk0hghlJubgl0QMTPKc/O2c/x/8AFLx38Uf7Ek8f67/ac/h/w/baJpt7NaxC5NhbbhbQzTKokufJiZbeJpmdoreC3t0Kw28McfP0UUUUV9X/ALEP7aHhW/8Ahnrn/BPD9vD4v+MB8APGunx2+h3tvAmsL8LNfjvftdp4j0+xuEd1iDy3kN7b2T28tza6jdENJKsSnxD9qP8AZv8AHf7JHx2134A/EXWPD+qahov2Wa31vwnrcWpaVq9hd2sV5Y6hZ3MR2zW1zaXFvcRMQrbJlDojhkXz+iiiiiiiiiiiiiuw+APwB+Mv7Uvxl8Pfs+fs+fD3UPFXjLxVqAstC0LTEBkuJMFmYsxCRRIivJJNIyxxRxvJIyIjMP0f+At1p3wA+PvgP/gm5+yb+yVp/iHSvjb4Pl0Hx98UPC9xceLNc+L0dtdazp+pjTpbLXtGj03ws+r2M4CxXOnyT2GjW93fzTQPJav8/wD7R37Qn/BOr4YeKtY8P+Av2UNQ+N3jIahDZat4r+MXjnUIdA0K1sHvLSDRtAsfDviC4llsYbNNLt4b251zUFaKxAiRUZZCeOf2GvjL8cvj74k/aD/bwuvhf+yZ4H1HUILy+vZvCg0zTIozdW1ncaT4c0LSopJ9UvtPEnl3dpEpks57aWPVLi2uWdmL/wCF/wCw38R9R039iL9nb4N6h4O8V67p+lX1j8aP2i4fFEniLxDdX1vpEtnZaL4d8KW15BYxXRluJbdbmPU2ntrxGW7R/IU9B+y/8Cf2DPjV8TGsf2Y/+CfH7V/xu0Twtp9knijxa2kDXLX7VPZMGluvC/h8WVxbxSXUdyLeIeJUZFiWV5LkRS2kvoHizxP/AMElvCfxM1P4Sfs2r8L9D+JFpp80Xhfxpq3wNudV8LjXPsRddMmuvEHxC1nRzFLck6a2pTWF3YQvIbyKfyI4r9ef8WeLPjf+0V4q1Pw3+zj/AME+PB/xBi0XUJtN+JX7Nurfs66DbeNPDF1buY/OmvfCGj6Jq01j58alrm0+xtbXKmwvohFLbSaoXP8AwR+8VftD+FbK18CfsFftH/s//FLUdQuY49J+J/hR1+HWqXUiQNZWFrrupLZ3Ghy3F0biwsrW8/tJp7i502CS+DSyzjx/4cf8E7PCv7TnhXxP4C/Zt8WeMLD9ojwHp4k8Sfs2+PfC6W+p6w1iksesjQ71JVe/voHgN02jzWdtdRwSSxRPfSWbyTfKFFFFFFFfV/xY0b4hftg/8E0fB37UV14s1DxHrf7OGoQfC/xlYPHf3MmleEb2S41Dw1fyyvE8SxC8l1vTCfPRIo4NHgSBS/mS/KFFFFFFFFFFFFFFe/8Awf8A+LFfsO+Pf2gov9E8T/EjxAnw48DXzfM66VHbC+8UzWzxYktLlYp9A09nd1S4sfEGpW4jnDzNb+gar+0JrH7IH/BNjwX8JPgv4D8P+FPG37Q3h/Wb74i/ErQBePq+ueB4tYudNs9EkuLi4ZbHzdQ03VvtsNlDDHdWlvpCyySt9qjPyBX3frOs6j/wRS+DWk+F/C/hPUNG/a++Jvg9r7xN4m1WS3S9+DHh29M0UGmafBFK8tl4gv7MJc3F1cLDc2NlfQwQxRSzzTL4f8NP+Cqn/BRz4Sfaf+EN/bP+IB8/+1pbb+2dfk1P+zLzU/tH2/U7D7b5v9nalN9svd2o2vlXg+23OJh58u/wCivYP2l/+Cgf7cX7ZH2u2/aj/az+IHjnT7vxBJrf9g6/4puZtKtb9/NHnW1hvFrabVnlRFhjRY0kZECodteP1936/wDtHfEz9rj9l/Q/+CjGneL9PT9p/wDZU8YaHN4u8ZzWll/afizwu01rDoOv3v2m7b+1b7S9Thh0+eb7G7zQappn2mSXyXY+H/tz6Z4E+J3/AAi37cPwc+Fvh/wT4Y+LH26HWvBXhO3lh0rwx4s077OurafZxzyNILaSK707VYlUCC3TW1sYnkNjIw5DwJ+zNqPxP/Zf8c/tE+BfGOnz3fwx1Cxfxz4Uvbm3trqHRr6aK0tNVsg0/mX0SX0i2t0ixKbZrzTmBmW5l+y+X19H/srfAv8AZg/aT+AXiL4a6t8UfB/g340WmoXd94Mv/Hnjabw5pmqWq2sM/wBie6mtbrT55WFpdxQrcz6IsM95EWu9SE629h5B8fvgD8Zf2WvjL4h/Z8/aD+HuoeFfGXhXUDZa7oWpoBJbyYDKwZSUlidGSSOaNmjljkSSNnR1Y8fRX1f/AMEgPGWo+HPj74y8PaLrfg+2u9Z+F+o3Bs/if4Ot9d8HajZaNdWXiTUbbX7R7K7uXsTp2iXrobCIXou47Py3jUyOOf8A+Cif7M3wa+GXirSf2m/2PvGOn638B/i/qGqXvw1hS5K6n4Wkt3he88MarayzzTwX2nC8tIzK0ksd1BNb3MUsgmYJ84UUUUUUUUUUUUV7/wDHf/im/wDgn3+z94I0r/iaafqviDxr4wvdet/9Tp+q3dxpukzaA+Ny/abe00HTdScllfyfENrmFEEc1xof8FP/AAn4q+EXxv8ABf7NviPwzqHh+L4cfA/wPYW/hfVrJ4LrRrrUdBtPEGrW8yzATCVtZ1nVZ2SUlomuDCoSKKOJOw/YZ13wJ+w5+zjrP/BTfWdQ8P6r8TZ/EF54O/Zv8Mar4Wl1NNI8SWa6Veaj4qufMdLRP7PstQhWzjlW6L317FMYAtmXPyh4s8WeKvHvirU/HXjrxNqGta3rWoTX+s6zq169zdX91M5kluJpZCXlld2Z2diWZmJJJNZ9FFFFewfsB/tIaP8Askftk/D34/eLtH/tTwxoviBIfHOif2JZ6l/a/hu7R7PWdP8As16PIm+06dcXlvtkKj99kOhAdd/9of8AZN+Kf7POj/Gbw54f+L39s/DnwH8YNB0F5kkntIfGH22z1650DxFb2qtJBLbTadZ3lxDP5r4h1WMwPLHcPJX1h8L/AIOftK/s7/tQeDf2j/hf+yTqCfD3xh+zgnh74lfCzUbHVtCbxTHZw2vw/wDE3hu4i0uL7Q+r33iRYzDHCs8kV1rGlX12kOJ/J5/9sP8A4Jf/ALMGjeFdeh/ZM8X6hrEvgTwfdeKLbxF4d1CbxG3iPw5eJN4h0q/17SmtrPVfDUsegXmk28moW9he6NLdXVrFPcaZKl29fnhXuHxH/be8VfHj9mDwx+zn+0L4H0/xVqXw4086f8LfiS1w8Gv6LpnnRMuh3Ux3pqWkRJ9qNvbSIs9rLcKYblLdJLObw+ivUP2IvjX4V/Zr/bQ+EP7RnjrT9Qu9E8AfFDQPEms2ukxJJdTWtjqMF1KkKyOiNKUiYKGdFLEAso5H2f8AGzU9Y+IHwi+J3/BJzxF8Uvt/jb4e/EDUdI+Gvw0sri8vr/Vdb8LasunaaZdWuI4LbV7m70PWtc02GOK0srmZfBvh+0hjDNbWM35wUUUUUUUUUUUUV7/4N/4vL/wTj8WeAIPn1f4J/ECPxtYWlt+73aFr0dno2s3dw0nyy+RqFj4TggiiKyj+07t2SaNS9ryGgW3xM/be/ag1zxn8RtZ1DU9b8VahrnjT4h63pOmWRuhawQ3Wsa3qENo81pbySx2sF5cLbLLAsjRiJChZRXX/APBSf/iiP2jh+yrY/u9P+Anh+1+HCWqfNCmq6e0j6/Nbyt+9mtrnxDca3ewvNhxDeRp5cCIlvF4BRRRRRRX6n/tF/BTwr42/Zln8MNqGoTa38Tfgf4d1PRrK7lRNM0/U/AHwk8A6/Ffs0aCcStoes+MLIRlpYJZ76y3xRGL7VF0H7IfxJ+IX7Vv7NUHhu+8bah4Vi/aZ1Cf4e2fjvU9Dv9R0nRfjZbaSNHN1cLFI8cMXijwtrr2l7qE0d1ey6rLe34iiisYpF/MDwn4T+PvgL4+6Z4F8C+GfGGi/FLRfGENho2jaTZXVtr9hr8N0I4reGKMC4ivkulVFRQJVlUAAMKPj98d/iZ+078ZfEPx/+M2qaff+K/FeoG/8Qahpnh+y0uO8umAElwbexhhgWWQjfI6oGlkZ5HLO7s3H0UUV9H/tw+LPFVr8ZfhX+2f8PvE2oaNqvxB+F/hnxZp2vWV69vrK6/pgbQtV1eeeI7hfXOvaFqeoC5WR5ZRdRXEjLPJKiYH/AAUh8WeFfib+214++OHg7xNp+pWnxO1C38fTRaZepcx6RdeILSDWrrRzMhIll0+4v5dPkkIjZpLN2aKFiYk8Pooooooooooor6v+Ffw48K/A79gzVdf+MPxO0/wbqX7R+n3o8H3tkE1e6n8L+HhqF3NZ3tjFL5ljFq3inT9As7W7Kb1bRtRdmjt0dbv2Dw3qXhX4Bf8ABY/9rHw1p3wk8Hv8J/DvjDxjeeNPC+p6Ci6MNA8OeK4PEFloYUFbaxi1HUdE0nQo2ljliB1ZIkt5pJIom+APFnizxV498Van468deJtQ1rW9a1Ca/wBZ1nVr17m6v7qZzJLcTSyEvLK7szs7EszMSSSaz6KKKKKK/U//AIJrfEfxV8W/2Vfh1efCP4Y6h418V/s/+MPDmpaR8M9BLpqPiXX/AA94j13xbpsKXJidRFf6Drfj5fs0UMsqXHhS0YSs9/b2Nx5fpWn/AAi/4Jr/ALcXjT9jr416n4g8Sfsi/tG+H9GZ/ELX2rWE154H1G5ttV0DxfbBbOL7RqWmYjkZWspY2mg1KyEWJXI8v/4KD/Gv9tD4Kf8ABS5fFvx20/T/AA/8ePghqGg6Rf8AjOyi1G6k8R6n4fjt4dO8ST/208pupbm3tbKcS+VFBcxiKYwZmkaQ/wCCgXwU+AXxO8Kv/wAFLP2JdQ0/T/hv468YGy8Z/CmeW1g1P4V+KLxLm8/sYQQpElzpEyW93Jp17BEqGC2kt5khnt2EnyhRRXsH7D3wt8CfGD40a14T+Iuhf2jp9p8H/iFrdvb/AGqWHZf6Z4N1nUrGbdEysfLu7S3l2k7X8va4ZGZTv/tMf6F+xZ+zXpnjP/S/E9x4f8T6joOo2/ENt4Nk1+5t7DTXA2g3Met2niu6dtjEw6nagzuEWC1ofH+58VePf2PfgD8TbzRtPsdE8M6f4l+GunmPU3mur+60/V38R3F3JEYUS3iKeL7W3RVklZms5nbYGVa8Pooooooooooor9X/ANmj4i6Pp3/BO34W+BooPtv/AAlf7P8A8TIbTU9O1Gznhsb/AMOeH/jHPqWn3kaTm4tbkW3jTQLmNXiCyQ3RcPwA3z/+0r8dPDnxY/ZY+NH7c+i+FvD/AIB1f9oj4wad4F8P+CtLvtR1O8bwzoVjbarrTXt5do63VzPqEng66n1GSUXt5eR3suI45rhZPiCiiiiiiivf/wDgnp+1z4E/Zd+Kdzp/x08IeINe+HPif7KniGPwjr8una74bv7WcTaf4n0KdXWO31vTpfMe2llBVori8tWKR3krj6Q/4Ka23hXwN8GvA/wv+I+s6h4s+Gmv6fr/AIp/Z/8Aid8ONMSLwrLdTGA3FxpdjJNGNLi1C4jSHWfDbpG2h6jB9ssH+zXT6VN8QfFj4/fGX46ad4O0v4v/ABC1DxDF4A8HweFfCDam4kk07Robi4uILISY3vFE91MIw5YxxlIkKxRRoho37PXx98R/BrVv2jPD3wO8YX/w90DUFsNd8d2Xhm6l0bTrpjCq2896sZghlJubcBHcMTPEMfOuePoor3//AIJp/wDJxXiP/s3/AOLH/qvPENHhz/irf+CWXjL/AISH/SP+Ff8A7QHhr/hEf4PsH/CQaHrv9r/dx5v2j/hGdE/1m/yvsX7ry/On83gPEfx0/wCEg/ZY8G/s0f8ACLeT/wAIl8QPEvif+2/t277X/a9joVr9n8nYPL8r+xN+/e2/7Tjanl5fz+iiiiiiiiiiivu//gnr4m+Mui/8E9Pi/wCLvG1t4P8AC/wt8Aahc6z8Ofiv4q0kSXtl4/urOCCXwzpcIjb+3otb0y3FhqWlXKy2MVkUvblVWAQ3h+1Na/8ABPTxt8BvgLq3iXxx8UPg3omv+D/FHibw/wDDPwD8OLPxZp2nx3fjrxJaxzTX99r+my3N8LPT9PsJJ3gaSW30my3SsESOLw/+0v8Agll4E/4lH/CG/tAfFTzP33/CQ/8ACTaH4A+z5+X7L/Z/2LxD523bv+0/bI93neX9nTyfNm6C1/Yr/Zx/aK+FniH4nfsR/tR+f4n8MeH9Y8S+I/gd8U9MXStdt9IsILe6uH0nU4Wew8QfZ7d72STd/Z13JFpk80dgAwjT5goor0D4F/8ADLFl/aniH9pf/hYGp/YfI/sTwj4F+w2P9tb/ADFm8/V7rz/7M8n91Ku3T777Rh4j9myJx2Hizx9/wTbvPCup2fgX9lD44adrcunzJo2oat+0Ho97a2t0UIilmt4/CcDzxK+1miWaJnUFRIhO4eH0V7/+yN/wUn/aO/Y18Cax8Mfh6vh/XPD994gsPFGg6T4w0tr6Hwr4ssJY5LDxNpYEifZdSg8sRljvguYSYbqC5iCxr6hbeNP+CaP7ak974/8Ajt+y/wCMP2a7u71C20/X/ij8EIJNc8BaZrN/qk9zE9z4cvf9JsYn06O+Cw2WqED+zN1tYsqyRD3D4B+MPjt+wz4j+HXxY/aA+MXw/wDFXwS1z7N4H0j9pn4c+HrXxfpTadPp1nNeeFPFengWmoazprabLDbSaNrC2+o2SafDLpZjSwe1uviD9un4f+BPA/7R2s6p8Gfhh/wivw78UY1v4c2lr4vl8QWFzpEzMizWOpTWtrNc2wmiuIgtxCl3bNDJaXgF3bXAHj9FeofsX/EfxV8Lf2oPCGv+EvhjqHjmXUdQfQNS8A6SXW68WaZqkMmmahokLxRSyxS31nd3NmssKGeNrkPDiVUI+j9R139nHwP+zj+0NoH7Oeof8JL8G9C/s6f4XeLfGXhZYdbufFniRdMS30rWLUPJbXdzpeh2PjSC1vPJ8i2uZNQurWWGa8sseP8Aw5/5RZfGT/s4D4af+mPx3XgFFFFFFFFFFFe//wDBOT9in/huH42an4Hvdf8Asun+G/D6avd6Va3X2e/8R3M+p2Gk6bodjO8MsNpc3+qapp1mLy5U29otzJdSiRIDFJ9IftY/E74NftU/Cn9oX4S634f0/Udb/Z+0+PxX4F8X/DPxIbDwRp9xceKtK0TWNH8P6Bb79Pg8PzDU7ee3u4wmoXc2nfbrudzqDWdp83/8FB/+KV8R/Cf4F6f8+keBP2f/AAd/ZFxNzczf29py+L7zzmGFbZqHiO+ii2qu23it1bzJFeaTwCivQNS+Bf2f9ljRv2l9I8U/2h9r+IGp+GPEOiW1ju/sHyrGwutPuLiZXOz7f52ppAjom/8AsS7KNL5coh8/orQ8J+E/FXj3xVpngXwL4Z1DWtb1rUIbDRtG0mye5ur+6mcRxW8MUYLyyu7KiooLMzAAEmvo+D9mf9kD4Q+O9I+FH7Rtz+0BB8TR/Z1r4h+EfinwJovw9htr+8ihISXxDquqXn9n20fnrOt1c6WFlhRS62qymaHoP2l/2Gf2Svhr8LLv4qaF+0V/wimr3XmR6N4Am+Ivgn4gW0VzFBLKIJtY8May1832hLdxFO2gw28Vxc29tPMkeb4/IFFewfsm/trfFP8AZG/4S/w54d0Dw/4t8E/ETw+2jfEP4Z+N7We50LxJbDc1tJcRQTQzRXNrMRcW13byw3FvKuY5VV5Ff0/9vL/gnj4q8F/GW9+Lv7GnhXT/AB98B/iX8ULjSPgfr/wy1h9fjdrsRXuneHriLc9/ZaulreW8TWN9HHdPJDNsEwRpD84f8LS8dt8LP+FKT6753hhPEH9t2umXNrFL9jvzB5Es1vI6mS286JYVnWJkW4+yWhmEhtLcxc/RXQfCf4peO/gd8U/DXxr+Fuu/2X4n8H+ILLW/Dmp/ZYp/sl/aTpPbzeXMrxybJY0ba6srYwwIJFfX/wC0d8LfAnw1+Cf7UXgzwHoX/CMfDLU/iB8NPiH8LGe6lvJoodX0zWL/AMP+F7hHZ5UuToGvX91NdtJLDFN4dktvMna9gmPj/wAOf+UWXxk/7OA+Gn/pj8d14BRRRRRRRRRRX1f+yL/wUC8K/sffsj+LPBnwjn8YeG/jFrOoanf6R420FkSOyujFpmm6bcJKZxJBLBpGo+PrffFEGWTXLSUFpbe3msuP/YR/4qrw58fPgXp/yav47/Z/1b+yLibi2h/sHUdM8X3nnMMsu/T/AA5fRRbVbdcS26t5cbPNH0HhPw74E/4KIfF3xP8AFv4vfEX/AIVP4J+E37P/AIcl8W6pa6RL4hv54dD0nQvCtrHY2iG2Wa5vtQaxxHNNBDbrdSNJOVg3Seoah8bP+CHPhr4NXdz8M/2VNQvtb0/UNbsfDulfFHT9f1/WddjhKz6fqeq6ho/ifQNP0qK5FyLQWtnY30lsNOmlkluDLF5nP/En9l/4IfFr/gmjrf8AwUZ+EH7L+oaLd6d4wsfDfii08A+N9em8O+DrqaSXy3ms9X0CcvFJbwQiQp4juWiudWsmdYVuIrNef/Y+ufgFpf8AwT0+O2uftQ6N4w13wpB8UPh8mkeF/AOp2ulajfa+9n4q+zSzapdw3cdpYxWI1YyRLYzyz3ElkFkt0jmMnzh8Uv8AhVjeO76f4Kf8JAnhibyptMtfFPkNf2e+JHktZZYMR3PkytJCtyqQ/aFjWY29qZDbxdh+x5+zFP8Ati/H3Qf2c9H+NHg/wTrfirULXTPDF141j1Q2upanc3UNrbWCNptjdvHLI84IklSOBVjcvKh2hvs/9hL44aP/AME+v2HfDnxj8Q33xA8H/wDC5/8AhOhonjbQjZ+H5r6/8P21heW2i/brPR5Nfu9Ev9Rj0mzlnsNb01RNJqETRQfY3vLs+NH7ZH7ZOmf8EyvBX7XOk/APw/4Rg8d/tAeLrfwh4p0v4XpFpHw90610/SXsbHwck8b2fhvzb6bWZmvdPWLUbm70bznu3ms5XrP/AGKfjJ+2F+2L8Avjr8X/ANoH/gp1qGrRfBnweviDT/Anx1sNI8faZqTG11Bo7pLLxXetFay/bINP0lLuztbq6WfxFbxBVinl3fN//BU74T/8Kb/4KCfFHw7bfDT/AIQnT9Z8QL4q0HwQ+jf2bN4a0rW7eLWbDSrizCKtnc2tpfwW01sgKQzQyRozoiu30B4D+G3wJ+HfwT0L9jr9r/x7+z/4g1DxL4f8PeMfC+n6RoV14U8WaLHqOmf2ra6fN42bRGtYbm7XWbAGPU49T0tIIbkSXukPaWssp/w5k8Haj/pvgCD9r/x3pD/8eniv4W/slaP4s0K+xw32XVdG8ZXVjdbHDRv5Mz+XLHJE+2SN0Xx//gnp+014c/ZN/anufhJ8Rfj34gX4JeNfEFrovxK1/wCHGvajpe62tb4TaZ4psGa0N3Hc6Xepb6tak2yXDfZ2tnRUuriJuw/4KS6D8TP2mZ/Ef7Rmsfsh6h4e+KXwj1BfDH7Z/ivw89kmhz+MJtU1G0tNQFjZtIltLcJp5F3fROtpcX8pCQ27SxyXvxhXsH7Pf7BX7WP7UHgTXvi38JPhT/xRPhf5fEPxB8U67YeH/DenzebaxC2l1fVZ7axW5L3trttvO85hMrKhXJGh8Sf2EPiF4M+DWt/HP4f/ABL8H/ErRPBOoWOnfFOb4czX99H4Gvb0ypaRX11LaRWlzFNNb3MCXmnz3lk0kKgXGLm0Nx3/AOy58fvjL+1Dp3jn9m74v/ELUNZiP7KGu+FfCGsam4mk8P6N4YuP+E7gsgMB7iJ30OawjDyA20d8hQtFaR2zcf41/wCJP/wSy+Gn9kf6L/wkf7QHjj/hIfs3yf2p/Z2h+E/7P+0bcef9l/tTU/I358n+0bvZt+0S7vAKKKKKKKKKKK9Q+AXwU8K/FT4U/G/x14h1DUIbv4a/C+08SaFHZSosc91L4q0DSGScMjFovs+q3DgIUbzEiO4qGR+v/wCCdn/FP/EX4j/FjV/3Ph/wl+z/AOPv+Eh1D732T+1/D174b0/5Fy8nm6tremW3yK2z7T5r7Io5ZE6D/gj/APELxH4X/bi8N/C3wn4w8QaFqHxf2fDW31LSZdOnsIf7duYLBn1bS9Ssbu113TUWUyS6ZIsPnMkTLcwPGrj6g/aK0z9tfx/4j8OL/wAE/v8Agmz/AMJ/+z5c/EDQPjBa2fw6+BviW68G+MNdk06GeW1vNMfVtYsbL7G91faRd2Om3EMRMEtvMGNrbpbfJ/7Uem/thftaftceBvhF8S/i34P+JXxL13T9C8H+FdA8Aa9pEmjaCpl+xaXoNpLpgj0W2iCtDKEsJGtYjeHzXS5F1HFoft8+HfAn7Ovws+Hv7EXgT4i/8JrBoHiDxB8Ql8W/2RLpv2iw8SQaSmjr9lkLlPP0TR9J1fPmFo/7e+ySxxzWUu/5gr6f/wCCWfgP47aB8drD9s/4P/s9eH/iT/wqDxBZT6X4c1/x3a6P9s8VXNrfzeHoba3a6gu9YuRe2Buk0yxEk959ha3AHnA18wV7h8JP29PiZ8Bfg0vwX+Efwp+F9laX2oRX/i7UPEnw8svFMnia6tzdCwuLm38QLfWdtLaRX15BE9jb2jNHcyCYzthhv6N/wVm/bk8F6dq1n8IPHng/4a3euaethqXiH4Q/CDwv4O1l7UXENybddT0TTbW8iiaW3hZ0SZVcIFcMpIPkHhP41+KtG+PumftGeOtP0/x/rdp4wh8Saza/EKJ9VtfEd0t0LqVNTWRw95FcOGE4Z90qyOC2WzXoH7dH7Vfw9/av8VeAtW+HPwc1DwjaeBvhfpfgxptc12w1PU9aj097hLS6vLqx0vTo5pYrF7OwRmgMnkadBvkkbJrw+ivr/wDai/aj+O37KX7bv/C5/gV45/snxB40/Z/8Df8ACczXumWuo23ir+3PAeiXOs/2ra3sUtvqn225uJrq4+1Ry+dcOZ3zKBIPoCT/AIJ9fssfFT9sm6/bH1f4eeZ8G/iN/wAIP4g+EvwF8EeK7E3PjTxV4xS8+z+DINStIoLXQ9NtNZ0vX7C5uZ1t57a30nyo4jNLHKuf8TvFf/BWn4madp+mfGb/AIJmfC/wdqvh3UNSb4JeGfiF8P7bwxHpEF9cefdaN4T8HaxdwaX4hleR/LYLpWp6k0l3a75mn+wMnt/7CEng7xr+0l4PWDVPD/i7wT8Uvg/p8skmmfA7R/hdeX+heIviPb/DjW9B1W08KXYhv7Z4bmbUIZJZpJYLyx06WFoFS6huvgD9gL4xfCz4R+DvHEWlXXh+0+Jus+H9YMWpfEDR4G0K48M22j3Tap4aFyblbi2udctprm0W6s0gvYZbO0s7e4C6zdTWWf8AtH+GdR+EX7C3w2/Z3+Idzp+n+O/DPxw8e3vibwgNWt5tR0aO80LwT5C3kEUjPay74LmB4ZQskVxZ3VvIqTW80afOFFFFFFFFFFFaGjeLPFXhzTtW0fw94m1CwtNf09bDXbWyvXij1G1W4hult51UgTRC4treYI+VEkET43IpHt/7G/8Aybr+1j/2b/pv/qw/BteQfCf4peO/gd8U/DXxr+Fuu/2X4n8H+ILLW/Dmp/ZYp/sl/aTpPbzeXMrxybJY0ba6srYwwIJFdh+178efhn+0l8ZZ/iv8LP2WPB/wgtL/AE+A6p4W8DXV6+nTamwMl7eRR3U0gtIpbh5DFaQCOC2t1ghVXaN5pdD9in9m/R/2ivinqF18RdY/sv4c/D7w/L4w+LWrQa3Z2N5b+G7SeCO4isDdny5tSuZbi3srKAqwkvL23V9sZkkTn/2qvjp/w0v+0d40+Ott4W/4R/T/ABJ4guLnQfCyX32iHw7pQbZYaRbuEjUW1laJBaQokcaJDbxokcaKqL5/XoHwL/aq/aO/Zn/tSP4C/GjxB4Wg1vyG1ey0u/Zba8mt/MNncyQnMbXNpLI1xaXJXzrO4VLi3eKaNJF8/oooooor6/8Ai14u8d/tG/sbfCv9uP4O+HfEFh8Rv2c/sHgb4seNfCiRWn9m2Fu8TeCdckks7WCSC5MSXek/ajLOy/2Dp/mSRSXMCzfSHw0+DXh//gof8H/C/wCzZ4zl0/w5d/Ebwf4D8d+FvGngfwP4f8MWtpqNx8Rm8B6jHqOg6Hp1nBqMUR1a4a0ee6muI108zxTWa6xeafAXvwu/ZH/4Km/BrwuPCvw6+F+gfFLx9p9/pvgnxB8IvAsXgaPwr46tzqOpWngXxBpst+dJubHV4Jfseja3FJDfzyacsdwk7W12i8f+wn+1l/wj/wC0l+yT+wtJ8IfEHhvxt4W+MHgDwt8QtV1uP+z7y0/s74j+JdWutDaDaZpLaWbW9HmmimMWy80GPdC7RQyp+cFe/wD7d3/FVeHPgH8dNQ+TV/Hf7P8ApP8Aa9vDxbQ/2DqOp+ELPyVOWXfp/hyxll3M264luGXy42SGPwCiiiiiiiiiiivt+H4W+BNC/Ys+PP7ZP7M+hf2n8O/iJ8P9E8F+JPCugXUtzf8Awr8SPr/hnV5V1WG5YzQaJdTaXqkOl3qzXxdVtbe6mW7MoHxBXqHwU/Yp/a4/aL8K3HxD+Cv7OXjDX/ClhqD2Ws+N7bQ5U0DR5ESOWVr/AFWQLZ6fFFFLHNNNczRxwxN5sjInzV7f+x3+zl8U/H3ws+JH7GHxj+FHxA8JW3jv4gado3gPxGfA84th8XNHg1GHS/CWo3Fy8UNn9sh1bUbWRGIltriWxuJfLtoLoP8AMHxF+E/xT+D+sJ4d+Lfw08QeFtQl+0eXY+I9GnsZn+z3lxYz4SZFY+Xd2l1bPx8k1tNG2HjdRz9fT/7HXjL9jb4qeBJv2e/2oPhP4f0/xppe2++EPxIa5fT7DUryGWe5HhXxOIru0jfTdRlmaAaz50F5p7PD5l0bGELa9h+1h/wR9+JnhX4hWmpfsUDUPiD4U8X6fNqngvwLrV3ZWXxLslhv7vT73SL7wqZV1K5vtPvLC+guZ7G2mtWWyluFdESVIPAPjX+xF+2h+zX4Vt/HX7Rn7InxQ8AaJd6glha6z418AajpVrNdMkki26S3UKI0pSKVwgO4rG5xhTjy+iiiivcP2Evj9p37OXjT4heL9e+IWoaRpuufA/xn4Vu9F0x7jzPEkmsaNcaZaWRWMeU8UV5dWuoSC5dI1j013QyXCW8Ev0f8AP2gPhZ8N/CX7MWsfHCL7X8DPHPwf8VfA344XaWUEk2neZ4t1LWbqe3WezupBc6XFrvhnW4ZoIG3zQxwxyb0uEj8P+KnivTv2I/28/2gfhdb/CHT4fDq6h4+8AXvw90/xVcX2mWkcpvrOxT7VdwCTUYtNvksb+CS4hSSSfS7ab9xMFkj9w8V6n4E0j9pj4uf8FhdN+KXh+81Dw1/wh/jDQNG024luPtHxW8YaK+tLFavDHLDBbaJqkesXxgvWk3f2HBp0/nPcyyr8YfDT4KeKvip4L+IXjrw9qGnw2nw18HweJNdjvZXWSe1l1nTNIVIAqMGl+0arbuQ5RfLSU7iwVH+j/A/7N/jv9q3/gmV4f1jRtY8PjxB8NPEHxD1Pw1b6xrcUd/rfhvTNP8ADmpaxpdq1wU2f2f/AGhNq1vZRNKLhb3X5gttLAq6j8gUUUUUUUUUUUV7/wDsb/8AJuv7WP8A2b/pv/qw/BteAV7/AKnrX7fX/BRLwJ4p+Inxb/aA+IHxK0/4QeH5NVj/AOE88V6rrLxfaJYvPtNP84zKtybS2utRljzHmx0O/uGJSyfHsH/BPL42ax+1No/xB/Ym+L37TvxA8FeLfiN/b+u+EPi9beIbw2Fvf31nHL4ktPFht1NxdaJqttpljJeX0zSrp7aTFdSRm3a+J9w+H3gn4y/t+QfAH9u3RP2RvGHib48eKNQk+H3iD+3/AIcjx3ofxG0LT9Lg0GXx+tvq90sEd9pJu9MguTqMqaZc37Ws4mjMOoxRkP7W3/BP74n/ABa8f/Bzxh4e8H6romlag2jeEfhj8bvB3haLTNdittbtGEWi+OPBMenJ4MlukF1IkMUU+grPNfXdzezjUZph8n/ty/8ABOjxH8D/ABH41+Mv7K2neIPiJ+z5ofiCDT7T4oWM2navbaRczadpN82l6ne6NcXVilzbPrNrYtcJILe6uIpfIJKvHH9of8FWdY/ba/Y/8K/FHxjbfBrUNG8Kah+3f8UdR1CH4q/CS01PQNYj1lNMfQdRtLXX7Kazv5Wi0fXBHeWqSSW0TyK0kKagguPyQoooooorQ8J+LPFXgLxVpnjrwL4m1DRdb0XUIb/RtZ0m9e2urC6hcSRXEMsZDxSo6q6upDKygggivQP2Q/2Q/jL+218ZYPgz8GbLT4pYtPn1XxL4l8QX4stG8LaNbAPeaxql44KWdjbod0krZJJWNFeWSON/X/2stV8K/Ab9gL4L/sofCu60/VrTx/qGt/E7x145sbdPL8TXVrrms+GNHjtjcWFvfwWNra6XfXMUU77mk165Z4YmVVHP/s3+JtRtf+CdX7S/g74fW2nnxFf6h4HvfFU0mk273S+CINQvEvljupoy0MR1658Il4YHWaVlhba8ME5T2D/gnf4s8Kw/Az4UfEjxZ4m0/SvCnwE/aP1vW/iva65epBH4l0DXfDFvdSaFaq58u8lv7HwRrumvZ3BiiuZNVsbYmRLqcwfIH7QvwU8Vfs1/H3xx+zn461DT7vW/AHjDU/Des3WkyvJazXVjdSWsrwtIiO0ReJipZEYqQSqngcfRRRRRRRRRRXv/AOxv/wAm6/tY/wDZv+m/+rD8G14BXsH7E/7Yvjv9jD47eHPihpFn/wAJB4YsvEEN34x+HepSRPpXiuwNrd2F3Y3UFxDPA3nadqWp2QmeGRoU1CcoAWOfb1/ZH8K6H408SftP/wDBJj9tzwf420rwjp9xrkPgHxpcJo3jfT9AbRr291O21DTNVt4tN1+K2s7e9tL6HTpr6K5hJL23kXLRr5f4y/4KA6x4o8Y+E9V0r9ln4P6P4Y8I/D+TwXZ/D3/hG7zVtKm0ibWL3VrlfO1i8vL+1uZbi/uR9ts7u3u4UfFvNAfmOB/wUJ+FvgT4Hft9fHD4KfC3Qv7L8MeD/jB4m0Tw5pn2qWf7JYWmq3MFvD5kzPJJsijRdzszNjLEkk11/hP/AIKzftyeAoNMuPAvjzwfout6L4Ph8L6N440n4QeF7bxRYaZDpY0mKOHXY9NGpxSpYKtstwtyJ1RRiQEZr5woooooor1D9jb9k/4hftvftD6P+zX8LNW0+x1vWtP1W9trnU7O/uYxHp+m3WozKIdOtbq7nlaG0kWOGCCWSSRkRVJavT/2yP2Rv2cf2e/2Tvg58cvg34v+IHjH/hc/9r6rofinxToC+H4bKw02/uNMudOl02JL23luftMKzrcwazIywyKk9jB5kE8/0B+yXpvws+CP/BKjTPif+1t4y8Qab8FfFfxA1HV9c+FGleGYNC1v47a7pxt4tM0O21qK9murrw3p7JLc3l5JbWsVlc3ksNuL28khks/iD9qP9pDx3+1v8dtd+P3xF0fw/peoa19lht9E8J6JFpulaRYWlrFZ2On2dtENsNtbWlvb28Sks2yFS7u5Z29P/wCCaes6deeNPi78GfEvhPT9X0Tx/wDs4ePLfVY72S4jktZNH0abxTp9zA8Ese2WPU/D+nsQ++N4xLGyMHyPrDVPH/ws+FGqXPxS/ae8Ff8ACS/Cnw1/wyjquseHNP02C8vNV1W38DW8y2k1vdsttPpsuhp4njljZg73jaWuRAbo18Qft0eP/wDhaf7QCfES58FeINE1DV/h/wCDrnXv+Ep037Nf6vqreGdM+361Llma4/tG78/UVu3Je6W+W4f55mrx+iiiiiiiiiivYP2Cvil4E+En7WPhTWfi3rv9k+Cdd+3eE/iDrKWss02meG9csLjRdXvLdIldjcw6ff3U0P7uUCaOMtFMoMT8f+0L8FPFX7Nfx98cfs5+OtQ0+71vwB4w1Pw3rN1pMryWs11Y3UlrK8LSIjtEXiYqWRGKkEqp4HH17/8ADr9mf9iz/hBH+Inx3/4KUeH9Pz4ft7u38FfDf4Y6/rviT7fLLbq1jJHqVvpWmJ5Mck7yzLqTrm22xCfzFaqHxb/Ym8QeHfg037UP7P3i3UPil8LYtQltta8X6L8OfEFlH4TkJtfs9prc9zYrp9rfSC8gUwWl7exrIdondXgkm7/xN+3b+zB+178ZY/H3/BQn9jDT47vXdQtLnx78SvgDq83h3xLq90BHFdalPZ3r3mizSzL51zNDb2Vg1xdlX+0wK0yy5/xC/wCCbP8Awk3ws1j9of8AYO/aG8P/ABz8E+G/D7az4x0uxtv7G8ZeErOGDT2u7jU/D1xK8xtoZr/ymvdPlv7NRbSySTxKpA+YKKKKKK7D4A/AH4y/tS/GXw9+z5+z58PdQ8VeMvFWoCy0LQtMQGS4kwWZizEJFEiK8kk0jLHFHG8kjIiMw+j/AIy/tKf8EwNK+Kfjf4H+A/2Df+El+Dek4034aeNNA+IV7o/jK6ubee3jl8R3Oo3llcQzf2lDbbn02fThb2YmX7JHaTG7mu/cNT1D9mr42fthadov7YPwr+KHxa8Rad8L/EOtjWvHn7c2k/EvTLPRtL0jVtTlV28OafbT3EsAtbu4h0xdW08zTmJZZ7aG5aeviD9r39rz4y/ttfGWf4zfGa90+KWLT4NK8NeGvD9gLLRvC2jWwKWej6XZoSlnY26HbHEuSSWkdnlkkkfy+vo//gmJbeFfB/xz1L9qj4h6zqA8KfBDT9I8W+N/DmmaYl1J4r0CfxPomharopSWaKNormx1q5SSOUtFPGHt5F2Ts6+4ftd/8SH/AIJlaj8KNd/0/wAT+CvEHwi07xF4uT54fFNtcaf8SdU0LUreWTFzJbHw3qGgwQrdxwXFvDax2rwQi2WNfn//AIKJ/wDFQfEX4cfFjSP33h/xb+z/AOAf+Ee1D7v2v+yPD1l4b1D5Gw8flatomp23zqu/7N5qb4pIpH8Aooooooooooor6f8A29v+Ec+NPwJ+Bf7c+kf8I+niDx34f1Xwr8Wv7L/tEXmoeMtBuo/tGq3v2vcktze6TqegXU9zBKwuLyW9lkWOVpN3zh4T8J+KvHvirTPAvgXwzqGta3rWoQ2GjaNpNk9zdX91M4jit4YowXlld2VFRQWZmAAJNfp/+3l+0n/wTq/Zo+DV7+x38M/DHg/4teHfBfjC4svhd8JdC8a6hc+Go1jMQn+IPinW9Fnsz4i8Qarb4jtbOzuBa6TaSSQSeXNG1qfk/wCFv7aH7J3gTx3Y/GfRv2SPiB8L/G2j+bFo2rfs1/tCX/heG3hkieN5M61Za5fC5dJpopJIryKFoSiCBWEsk31h+1n8Mf8AgmPefGXxP8P/ANq/4pagPHGjeMNRsPGPj74p/tMeIdb8b6zfaaINIe3W50nwZqlhb6RDdWOpxwpf2kWrXUKWN0RY2zx20/h/7Lnxg/YF/Zo/bJ0L42/s0ftifGD4DeIPC3iC60jRPGn/AAr7SviXpX2adJbKbXPPuk0O4S2ktrmX/Q20ea4jRPMBaWQW8HqHib9kj9lv9rf4yx+Kvh3+xn4Pl1vx7qFoNN8P/BT/AIKAeAfD+jatqNyI0D6P4f1vTJdW0uK7nYyxaXdYuLY3AtzFEYxCnxB+2h+zlp37JP7UHi/9nfR/irp/jW08NagkVr4jsNNuLFriOSGOdY7mzulWfT76ISiC6spR5lpdRT27lmiLHy+iiivq/wD4JxW3wz8VeFfG/wAHpdZ0/wAFa34v0+VPH/x78SaZeyWvwq8BWyK+py2Qspi9zfau8sek+VJHH5iyx6dHJKdckFvz9zbf8EiPHvhWyvLPWf2j/hRrdvqFymoafJpmgfEG1v7UpAbeWO4E3h17SUP9qV4mhuFZfJZZFO5a9g8CW37HvjvUdT8C/soazp+n+Hfid+yh4xt/iF4OGmavH4i8Nan4Zt5/Flq95e3k09hqMt1deHtMR7ywFvBPbG6A0zSZmjx8IUV7/wDsVf6V8F/2n9En/wBGtr79n+P7VrE3Ntp/keMvC93F5ypumb7RNbw2MXlRyYuL63abybZbi6g9w/bg8Tad4l/Zq+O/xE8M22oW/wAN/G37R/gyy/Z01LVdJuLGPxF4I8M6T4w0S0bTzdRpLexWFmdHtLiY75o5JoRdN58xL+H/APBRP/kovw4/4SH/AJG3/hn/AMA/8Jd9j/5B3/IvWX9kfY9373/kAf2J9q8z/mI/2h5X+j+RXgFFFFFFFFFFFFfR/wCyJc+Ffj/8AvHf7Bmv6NqF34y1zUIPFvwM1AamnkWmv2Nrci/0VLdoZJZJdbs/Kt4o7QpLdalpuhwOsiYaHxD4T/FLx38Dvin4a+Nfwt13+y/E/g/xBZa34c1P7LFP9kv7SdJ7eby5leOTZLGjbXVlbGGBBIrn6KKKK0PFnizxV498Van468deJtQ1rW9a1Ca/1nWdWvXubq/upnMktxNLIS8sruzOzsSzMxJJJrPoor3D9iH9iHxV+2L4q1zWNY8caf4A+FvgDT49W+Lnxc8Q27yaZ4S0xn2IxRMPeX1w4MNpp8X7+7nIRAqrLLHf/bn/AGsvhZ8cP+EW+Av7K3wh/wCEF+CXwv8At0Xw/wBI1OOCXXdXubv7OL7XtbvI1/0nUr37Jal40P2e1it4LaBQkJeTwCvcP+Ca/wAd/Cv7Nf7efwq+LvxG1TT7TwbaeMLaw+Ibat4fTVbWbwvfE2Ot281o8M32iKXTLm8iZFjdysh2DftI8v8Aiz8LfHfwO+Kfib4KfFLQv7L8T+D/ABBe6J4j0z7VFP8AZL+0neC4h8yFnjk2Sxuu5GZWxlSQQa5+vUPgF8a/Cvwr+FPxv8C+IdP1Ca7+JXwvtPDehSWUSNHBdReKtA1dnnLOpWL7PpVwgKB28x4htClnTv8A9pjxT+zB8dPhJ8JPAP7HngD4oX/jLwn4Pun8d2uu2s1xa6da22iabdXsWmKuo3n+gpqdv4q1uWXybNY11eTdGEhynqH/AAV/+Dvwsu/i7cfEX4SWviDwtp+ifD/wlB4R0r4i6xA03j7wJb6TY6T4f8X6PP8AZrRZ/tVpbWpu9L8r7VaTNI6+akd/FpXyB8J/DvgTxf8AFPw14T+KXxF/4Q/wxqniCytPEfi3+yJdQ/sSwknRLi++ywkSXPkxM8vkoQ0mzapBIo+LPwt8d/A74p+Jvgp8UtC/svxP4P8AEF7oniPTPtUU/wBkv7Sd4LiHzIWeOTZLG67kZlbGVJBBrn6KKKKKKKKK6D4T/FLx38Dvin4a+Nfwt13+y/E/g/xBZa34c1P7LFP9kv7SdJ7eby5leOTZLGjbXVlbGGBBIr2//gph8AdR8BfGWx/ad8HfD3T9G+Fvx+08ePPhm3htLdtGsI70JcX/AIetpLU+UJdGvJ5dLliKwyKbRJGt4FnjSvnCiiiiiiiug+Fvh3wJ4q8d2OjfE74i/wDCKeH282XVtcTSJdQmhhiieUx29tGV8+5l2eTDHJJDC00sYmntovMnj9v/AG3v23vCvxj8K6H+yX+yX4H1DwB+zv4A1CS68H+D7+4STU/EOpsnlTeJtfmiwl5q9wg24X9xZQFbW2Cxq7y/OFFFfT//AAUZ0LR/il4c+FX/AAUK8Naf5c/x38P6ldfE2T/hKbO/z8QdP1GWHXX8iBI5NO+1xTaXrH2WSMRxf23st2MKIkfzBRXYfAH4/fGX9lr4y+Hv2g/2fPiFqHhXxl4V1AXuha7pjgSW8mCrKVYFJYnRnjkhkVo5Y5HjkV0dlP3f8adE+FnxH8Y/tDf8Ek1+Onh/wTZfB/4weOrn9nDQvizeQf2FZxw6xH5mkaf4guporjQLmS2sboBL+e60vUJbsGWOyvYob2b4w/ag/Y8+Pv7IPipfDfxs8B6hpkVzqF7aaXqF3pd1ZreNbOofdb3kMN3ZytDLaXYtbyC3uha6hZXDwpFdwNJ1/wDwVi/5Sm/tLf8AZwHjL/0+XleAUUUUUUUUUUV9H/CLRtO+NX/BNH4t+DtQ8Waeut/BXxho3j/wtpF7HcJJ/Y2qyR6B4heB4YjFLK943g4mO5dSkdrK1vgtcLL84UUUUV2HwU/Z6+Pv7Sniq48C/s5/A7xh4/1u0097+60bwV4ZutVuobVXjja4eK1jd1iDyxIXI2hpEGcsM+n/APDr/wDbT0j/AEb4pfDrw/8ADHUG+aHQfjX8SdA8C6rcQ9BcxWHiG+srqa2Zg6LcpG0LPFKiuXikVT/hg7/hCP8Aisv2gv2k/h/4O8Et/pGm6rBq39oa7r9m3722lsPDa7NWh+22Y+12Uuq2+mWc0Utu0t3bLcws/mHx+ufgFdfGXxDL+y1o3jCw+Ho1Ap4Ug8f6na3estaqAolu3tIYYFlkIaQxRqViDiPzJtnnPx9FFFfX/wDwTJ8R+I/2ivAnxN/4JT654/8AL0/4weH21L4SaJq8OnSWFv8AEfT5be6054Zr+4gXTbnUbS2vNDFxDIGkbVLZJEmRFCfKHizwn4q8BeKtT8C+OvDOoaLrei6hNYazo2rWT211YXULmOW3mikAeKVHVkZGAZWUggEVn19H/wDBLy6+DVn+1Bol940+Nen/AAx8cWGoJf8Awl+I3i60N14X0bxFDDcGwOrxRtHJbRC+axnj1AtPbWr2mLuwvLaeYwe4QfsxaP8AtYaPpH/BPH45Wnh/wL+114F8P6dF8JvFv/CbWeo6J8XdEu7OG+0rw9ealDcz2kepJZXVtHpF8k32aa2+zabL5RhtHHh//BRrwn4q0uf4LeOviV4Z1DQvGXiH4H6fYeMPD2oWT2raXdeHNU1TwbDb+RKPNgl+x+GrN50kJb7U9yQI0KQx6H/BS/wV/wAJB/wpv9tTQrLxBNpHxz+D+l6lqmsa3oH2b7X4q0jdoHiF2ulllXULm41DTH1Sa4Zlnf8AtmN50EkhZ/mCiiiiiiiiiivUP2L/ANpnUf2PP2oPCH7RNn4O0/xLaaBqDp4h8KatbW8tr4h0a6hktNT0qYXME8Yiu7Ge6tWdonKLOWUblFfd/wC0r/wTo/4au/Zx8EN+zZp39rePdM8P6lrnwPuLyb7bq/xq+F8axS2unC+guHtbvxd4YUXGn3ukRwwzLaRQRW3nxWNusn5gUUUV9f8A7Yvwn/4Kwxfs4w+NP2w/hp/wqn4cweIGl0z4dajo2hfDuHVdVgWCGTU7PwnAlhJqdzHFqMMUmowWUzrCwjeYRwFY9D/gm/8AsmfGV/Csn7TXxG+GHwv+H/wnvNQgiX9o/wCPvh0X+maHHEmovdx6Fo99N9j8VX00VleW4slstQkSeGLYbKTFyviH7dPxn+BPx5/aO1nx/wDs5fDPxB4f8MSYij1Lxt4outY8SeKrkMzT69rVzNNJGdSvZXaeaO2EdvGWCIrlXml8fooooor7P0/9s39mD/goLp1p4F/4Knw6h4a+IUGn6JpOhftW+DNCm1XWZYLW4aBl8U6Y15FHrUS2Myp/aFuE1JRptsHN9uZK8v8Ajd/wTe+O3wk+Fmr/ALQvgjxj8P8A4q/DLQ/7G/tf4gfCbxva6vbaZ/akHmWf9oWJMep6RukWS2P9oWdti4iMXLMgfwCvo/xp+0T8M/22Ph78L/hH8bdB8H/Dz4heCtPj8OzfH27mvYdO1TwvY2Ai0yx1jTNK0y7nub62EMVpBqMCh2t/JiuY5fKW5jAnwQ1v9rj4U+Av21P249Q+L/wnsNP0zw/q/jPwBrWvJJ4P0BZZYUtbT+39G89IrEN9qFpBZyRPGxiiZJJGaL3D9rT9m/4J3Hwi1P8AZB1DWPEE/wAbf2XPg/p154V17w3remav4Y+J/hu91a48Q6hNp8FsTcRfZ7bxM2pQXazXAn0rTLi4ubTTnEkcPwBRRRRRRRRRRRXv/wCyN/wUL+Kf7LngTWPgXqGmf8JP8Ode8QWGvSeHpNVnsb/w3rtpLG0HiPw9qEJ8zRdbiiRoo7xVliZWC3NvdxokQ+kPFj/s1ft1eKtT+LXiix+F/wAT9V1vUJtU8W+NE+KGk/Avx7cajI5CyarZa1PeeF5opv8ASGP9iQz3D+Tb3F7cW89xNFc/KHj/APYJ/a/+B39iaz+1H+zh8QPhF4Y1rxBbaR/wmvxM+HmtabpVpNNubMkn2N5JNkUcsxjhjlmZIZCkbldtd/8AC39nn9jr4WeO7Hxv8Sf29v2f/iJpFt5sUnhF/C3xIeG8mmieCCS48nS9KmS2hmkinmkhuxMkMMjxQX0ipY3HqH7TP7Uf7Sv/AATc8aaN8LP2bvgZ8D/hBLrXg+PxV4Z+LPwf8C6tc6j4k0bxFo1uIr3TNc8X/adYsYltmmtwbJ7MxXDXqkGVSy/EHizxZ4q8e+KtT8deOvE2oa1retahNf6zrOrXr3N1f3UzmSW4mlkJeWV3ZnZ2JZmYkkk1oeP/AIsfFP4r/wBif8LS+JfiDxL/AMI14fttC8Of2/rM95/ZWlW+77PYW3nO3kW0W99kKYRNzbVGTXP0UUUUUUV7B8Lf29f2sfgR4EsfAfwB+K3/AAr37B5qr4m+HuhWGg+JLqGSV5XtrrXbCCLU7y2MjBvs09zJDmGD5P8AR4fL7/4W/wDBXP8Ab60jx3Y6h8a/2+v2n/EHhiPzf7T0jwt+0Vquj39xmJxH5V5Ol7HDtlMbNut5NyqyDYWDr0Hx0/4LC/tT+IP7L/4Zo/bI/a/8JeT5/wDbf/CdftX33iL7Xny/J8j7LYab9n24l3bvO370x5ew7z4P/tL/ABT/AOCgHgTx7+yb+1Lq3/C0fiN4i8PpqHwQ+Ifj2efUfE+ma7p0ouv7CttUeRry4ttRsf7Ss7bSWFxFLqt3YGGKCSaac+geBf8AQPE/wE/bf8ef6boXh/8AZgs9R/aBtbXi/wDE3g1fGl98NbnTbGMbIo7l/D0lhYBle1O2CS589bomZ/jD9oX4KeKv2a/j744/Zz8dahp93rfgDxhqfhvWbrSZXktZrqxupLWV4WkRHaIvExUsiMVIJVTwOPoooooooooooooor6/8I+HPDn7dn/BNjUfDnhnwB5Pxd/ZO8PtqVpNpE2ozv4p+HF3rF5c6k81qlvNDHc6TqmrR3BuBLbK1jf3JkST7EJK+QKKKK7D4A/AH4y/tS/GXw9+z5+z58PdQ8VeMvFWoCy0LQtMQGS4kwWZizEJFEiK8kk0jLHFHG8kjIiMw6D47/sh/GX4AwXXiHWLLT/EvhSy1DT9KuviL4DvxrXhcazdaXBqTaOmsWoaznvoIpik0UUrgPBLsaRFEjeX0UUUUUVoeE/FnirwF4q0zx14F8Tahout6LqEN/o2s6TevbXVhdQuJIriGWMh4pUdVdXUhlZQQQRX63eNvix4O/aB/Z/tvjB4F+Jfw/wBP8YftEeH/ABVrumaz8ZdZ0e20TTfE0Pibw74n8Q+CSbp7yG2toNU0U3+l2WriCyu7bx3IZ547iGQap+YP7VXwt/aO+C/7R3jT4bfteaF4g0/4m6f4guG8ax+Kbpri/nv5W86S5lnZn+1ef5gnW5Dus6yrKrusiufP6KKKKKKKKKKKKKK9Q/Yv/aZ1H9jz9qDwh+0TZ+DtP8S2mgag6eIfCmrW1vLa+IdGuoZLTU9KmFzBPGIruxnurVnaJyizllG5RXl9FFdh8AfgD8Zf2pfjL4e/Z8/Z8+HuoeKvGXirUBZaFoWmIDJcSYLMxZiEiiRFeSSaRljijjeSRkRGYfX/AIm+Lfwa/Y106P8A4JtfsEyah8VfFHj/AFC00D9oj4v/AA2uTHqPjyOW4jWXwV4QuDbTvBpDPiJ7wW8kmrXARjE1mkVvN5//AMFgvid8Zbr9qA/steOvD/g/wX4U+DOnxaH4G+D/AMOPEg1XQ/AUc0MN1d6a12vF9q6XEjR6nfMXkuL+3ny5SOJU+UKKKKKKKK+n/wBhv9oLwJf/AAJ+Lf7A37TXx/8A+EO+HPxE8PrrHg7U9b8Ky63pXhnxxYXVpPaam0dvHLeWP2qxgvdKmurGOSTZfxmWGaOEBOw/4KvfA7UdYg0D9vzVda+F/hxviTqC+HZPhZ8PfiFb+KLXSNR0fS7CK9OmXem3eoWdvpCRTaa0FjNdQXFkt8llDaPaWcV3L8YUUUUUUUUUUUUUUV7/APsC/wDF6vHf/DvvxN8+hfHDxBpunaM6fu30zxkkV5Z+HNSaZcsltHd6nJb3alJgbG/vHjge6jtJYeA/Zc/Zv8d/td/HbQv2cvhbrHh+08T+J/tUPhyPxNrcWnW2oX8drLNb6ek8xEa3N3LGlpbq5VXuLiFGdA5ccf4s8J+KvAXirU/AvjrwzqGi63ouoTWGs6Nq1k9tdWF1C5jlt5opAHilR1ZGRgGVlIIBFHhPwzqPjTxVpng7R7nT4bvVtQhsrWbVtWt7C1SSVwitNdXUkcFtECwLTSukaLlnZVBI+z57z4E/sJ+BNX/ZW/Y38R+H/wBoL9pP4qf2j4K8SfEfwZol1qeieFtKu5ZtMl0LwulzbRyapqWpRM0c2qpDsW2ult7Eu08tzWh8RfiH4V/4IyeFfG37L37NvxB8YP8AtP8AiPT9L0b4s/FDRfEKaZa/Dy1VNM1W98NaLNo+pTfbL5dTiNnfX0zoqLp720VuPOmlr4QoooorsPgp+z18ff2lPFVx4F/Zz+B3jDx/rdpp7391o3grwzdardQ2qvHG1w8VrG7rEHliQuRtDSIM5YZ9P0X/AIJb/t9f8LT+H/wt+KX7KfxA+Gv/AAsr4gaV4N8OeI/iZ4G1XRtK/tXUJxDbxyXE1t/vyFUV32RSMqNtIrgPjp8G/h18JP7L/wCEA/ax+H/xQ/tDz/tf/CC6b4ht/wCzPL8vb5/9s6VYbvM3tt8nzceU+/ZlN/n9eofGv9iL9tD9mvwrb+Ov2jP2RPih4A0S71BLC11nxr4A1HSrWa6ZJJFt0luoURpSkUrhAdxWNzjCnGh8Kv2aP+E8/Y2+L37VX9k+INT/AOFc+IPCuifZdGgxbab/AGw+ov8A2rfy+XJi2T+y/sSxfud9xq1s/njyfs9z4/RRRRRRRRRRRRRRXoH7Ln7Qmsfsq/HbQvj54d8B+H/EmoeH/tTWOmeJheC2WaW1lgS5SSxuLa6t7m3aUXFvc288U1vcQQzRurxqa9P+NXwk/ZH/AGVP+CivhvQdYj8YeN/gOdQ8G+L7rTdWtorTX77wjq+n6brbadMLW5SP7ctjfG1aSKaJHlQyIYQwCfQH7aHwi8K/tueKvF/h34h/Gzwf4W/a++BmoJ4F+Ky+OPiUljoHxetdFePRI9f07V9enhS31eJLaFbu1upIlvYkF5AElFzbnw/4lwfsnfDzw5bfsifsQeEf+F8+PfiF4f0nSvFPxTv/AA5fny9bk1G3vE0/wbprxQXUGWSGwlvL2KW5vMzJbwWUUri59Q8c+M9O/wCCLfwz8Sfs4fBD4qahN+1f400+DTPi/wCPfA3i+4trX4VadFe2163hbTbqwmQXurvcWduNRuwz29usbWMIkc3Mw+EKKKKKK9Q8DftoftP+AvCvhv4c2fxf1DWvBvg/UJ7/AMNfDzxrBD4h8L2F1Mlyklwmiaolxp5lIvLpg7QFled5FIc7qPiP+2F8b/iX4q8MeOpW8H+Fdb8G6gb/AMOaz8L/AIZ6D4OurS63xSJcGXQrK0eSWN4I3ieQs0LBjGULvu8voor3/wD4Jo/teaP+xN+1PpPxr8ReNvjB4f0+PyLe+1P4KeNbPR9VjhF9azuZY76zurXVbYLAWbTbhY4bh1iEkqIrBvUP+CmH7GPw98CfD2x/au+DPiXT76KbxgNA+IdnpekWGjWTSahYJrXhjxLYaVFeSz6fY69ocv237E0MUdle2eo2yLBEsFpB8YUUUUUUUUUUUUVoeLPCfirwF4q1PwL468M6hout6LqE1hrOjatZPbXVhdQuY5beaKQB4pUdWRkYBlZSCARWfXv/APwUs/5OK8Of9m//AAn/APVeeHq+gP8AhU//AAvf/goB/wAJ/e/DT/hK/Dfib9kD/hKvFfjSfRv7R061vJfhn9i1XxhfzhHM32LxMbqe9uoxNef2jaXCRx3Go7LeT0D4weK/2cf+CZngTwF+1h8L/wBnjw+3xNn8PvoP7LV3qWirFDNolhKXb4w6vpt9NJdz6lq17dXT6Pa3cEdtZw2asPtS2NqX/MCiiiiiiiiiiiivr/8A4J6/8FOvin+zr47+HeieN/if/ZXg/wCF3iDT/FeiS2NnPDf3H9gxeKdQtvDKXFnhkttXu/Eup2M888c/lrqSs+beB4H8A/ax+Bf/AAy/+1P8S/2aP+Ep/tz/AIV38QNZ8Mf239h+zf2h9gvprX7R5O+TyvM8rfs3vt3Y3NjJ8/oooooooooroPhb8J/in8cfHdj8Lfgp8NPEHjDxPqnm/wBmeHPC2jT6hf3flxPNJ5VvAjySbIo5JG2qdqozHABNfX//AAtj4Wf8Ej/hZ/wi37MfxL8P+NP2o/Gnh/b4s+Lvg/WYNR0r4T6VeQfPo/h6+t3eG61ueGQpeavA7JZo7Wlm5la4uB8QUV9H/tK+E/FX7Q/wz/Zy+Lvw+8M6h4n8S+L/AAePh1rTaTZPJdap4o0K9+w2WmQ2kY3PLF4duvCMStBHsnaUfNLdC7I7D9rn9ov9qf8AZu/Z/wBH/wCCVnxWsfh/a6h4D8P3/hnxQfDHiK+1W/0m2n8TSa5daFeMt7Noq3J1C20+5mn0+E3CraWdpPdB4Lq0T5w+P3x++Mv7Uvxl8Q/tB/tB/ELUPFXjLxVqBvdd13U3BkuJMBVUKoCRRIipHHDGqxxRxpHGqIiqOPoorQ8J+E/FXj3xVpngXwL4Z1DWtb1rUIbDRtG0mye5ur+6mcRxW8MUYLyyu7KiooLMzAAEmvf/AAn/AME7PFXhTxVpnhf9sDxZqHw21vWNQhsNG+FWk+F31/4i6tdTOIoreHw3HLC9nKzy2sipqtxpzXNvcCayF6R5bdB+2r+wbp3wu8P+KviJ8JdF1CSL4aah4d8GfFDw5oOnXGpR+EfEVp4f0uDxDdaxeNIy2EU/iKe6tLFl8y2vpLbURbyRxWkC3HyhRRRRRRRX1f8At0eIPFX7anwC8Bf8FIrxtPu9bsdP0v4ZfHDUJ/E73Or3/iixtbgaXrFzb3N1POYr/Q7S1j+1LsSa+0fVC0cR2NP8oUUUUUUUUUV9P3nxF+Lv/BPz9ljUvgD4cg/4Rjx78ffD9lqfjvW7HUdJvbk/D67sbW80nS7e5s55LrTP7Ra4ubjUbKcRST29vo4KiJ5km+YKK9g/Yd/ZG1j9s/47L8Mf+Ev/AOEV8MaL4f1LxP8AEXx5NoF5qVt4U8N6bavd3+pTQWiPJJsij8uKP5BNcTW8O9DMGH0f47/ae/aV/wCCYPwz8DeAvgnrmoX1p45+F994i+BnxP8AiHouraZ4x8B+HdbvZbO/Gk6Y2rXWl6DLeyaXdypfWaTXM1pqKzpdxtOI4PhCiiivf/2GPg//AMLG/wCEp8V/8Md/8LP/AOEe+w/8Tnxh8Qf+Ea8CeHPP+0J/xUN7vs9n2jbss/8Aia6dm6iVP9L3/Zm+oPhb4y8OXPjux/ZC/ZR+E/h/xJ8RviB5ujXXwZ/ZZudRsNE1KWWJ1u7LX/GeqXd1q+q6aBAUv9I066i0OW2jjv4NVjkjklPQfsufsZ/sO/st+MdCXxZ+1l4f1Pxhb/atU8XftBad8Q7bQPDPgXRLbWJbeW88GWuqacdS8aa20Gja1bW2oadbvbWV7e2bwb7i3ju4vj/9tb/goX8U/wBrn+z/AIW+HNM/4V38EvCXlQfDT4F+GdVnbQvDdtD54imdWI+36k/2m5kuNTnU3FxLczMSiMsSeAUUUUUUUVoaN4s8VeHNO1bR/D3ibULC01/T1sNdtbK9eKPUbVbiG6W3nVSBNELi2t5gj5USQRPjcikZ9FFFFFFFFaHhPwn4q8e+KtM8C+BfDOoa1retahDYaNo2k2T3N1f3UziOK3hijBeWV3ZUVFBZmYAAk17f/wAFYv8AlKb+0t/2cB4y/wDT5eV4BWh4T8M6j408VaZ4O0e50+G71bUIbK1m1bVrewtUklcIrTXV1JHBbRAsC00rpGi5Z2VQSP0P+H3ir/gn3+z34j0f/gmLB8bf+Eo+HL+IF8b/ALXnxb0DXLiLTviNN4b07UNQt/Bfh+L7ZZRzaa0oms4L2V1mvtRu4LmERxwWiP8AEH7Uf7SHjv8Aa3+O2u/H74i6P4f0vUNa+yw2+ieE9Ei03StIsLS1is7HT7O2iG2G2trS3t7eJSWbZCpd3cs7ef0UUVoaz4T8VeHNO0nWPEPhnULC01/T2v8AQrq9snij1G1W4mtWuIGYATRC4triEumVEkEqZ3IwHqH7JvxL/bJsv+Ev/Zo/Yw03xBqGr/GHw+2heI9E8EeE01DXda0qLddXFhBNDBJfRW0iRF7mG2dEuIocXCyRxgD3/wCJXwF+BPhD/hePiT/gsB+2f4g8S/tG6X4fls/DnhDwl46uvEOuweKrfFnb2WuXs2mXWmXVskYgeVrfWRPaRWklsYmuCYbf4gooooooooooooooooooor2D9u79m/R/2RP2mNU/Zy0/WPteoeGPD/h+HxdH/bdnqP8AZ/iSTRbGbW9P8+zJhb7Jqkl9abVLFPs+xnd0Zz4/RRRRRRX0f+yt+zN8GrL4BeIv28P2uPGOn2/gfQNQu9D+H3w/guTLqfxH8XRWsNwmmmGCeKe10i2F1Zz6jfCSFxBPHb2r/abhHh7DQv8Agmj/AMFHP20vHdv8Tfil4T/4RfUPE3iDVNOn1H4h2Enh6w0XSvD0SW+t6lOBbJa6PomhqLKxkUiBIWkhsrKCZ7eWCA/aX/bp8CfA/wCFl3+wJ/wS78Z+INE+FZ8yP4l/FBFl0vXfjLftBLbS3F8qsJLTRFinuIrPRmYqIpnmuhLczN5XyBRRRRRRRRRRRRRRRRRRRX1//wAEnv2XPgT8atY8TfFL9qLwN/wkHgLw34g8M6drENvqd1bzaZbG8m8Q61qTi3lieS2i8K+F/FUbrE0lwZrm1W3gklZZIfmD4s/FLx38cfin4m+NfxS13+1PE/jDxBe634j1P7LFB9rv7ud57iby4VSOPfLI7bUVVXOFAAArn6KKKKK7D4A/Djwr8W/jL4e+H3j34naf4K8O3+oA+JfGGphHj0XTIwZby8ELyxm7lit0leO0jbz7qRUt4VeaWNG/T/4deBvhn8RJ/BP7RnwG+G2n+E/BuifC/VPDPwAtdavr3XfFfw78Babqmp3XiT41a0un3CRQX1peTasLGzV4N2o3KCxR30y3N35//wAFcP2o/h78IPhnrX7HHw5+BmofDzxX4r0/R9MvvAmqeBbDS2+GXw0sb251jw/4Wdn+1Xlzq+pS3dn4i1e7a7DC6a3tnDPFcRxfmhRRRRRRRRRRRRRRRRRRRRXqF9+1B4q0/wCAXgj4D/DlNQ8OxeFdQ8U6lqWt2mtOLrU7rxBa2enahCpiWPybF9M06ztjbN5rO0l6zytFcpbweX0UUUUUV9H/ALEPhPxV8C/Cuuf8FNNd8M6hb6J8LdQjsPhlrMlk4tdR+IsyeZpNvHLhkMunoJdddJI5beRdJhs7gINRh3/WHwf/AGhP2cfDfwT8e/th+NvAfh9Pg34a8QJ4M+CPw+8bBbzUviI+g6YJdD0C50ixuIFttNTUNQtvE/iaZ52sdR1JrEQ24mZxL+cHxZ+KXjv44/FPxN8a/ilrv9qeJ/GHiC91vxHqf2WKD7Xf3c7z3E3lwqkce+WR22oqqucKAABXP0UUUUUUUUUUUUUUUUUUUUUUUUUUUV9P+CvhDrHxb/YF+E/wk8CfD/8A4SLx78UP2n9Z0D4eSf8ACSXlt/Z80WleH4bmy8ie7/s0/wBoT6tpP+k+TbzQ/wBkbZZ7iKaNLTn/APgoJ+1H/wALx8d+H/gn8NvHP9p/CL4L+H4PB/wpt7HTP7OsLu2too4r3X0sfKja3udYu4pdUnEwe4VrpYZZpvs6NXgFFFFFFFFFFFFFFFFFFFFFFFFFFFFFFff/AIP/AOLGf8Idv/cf8M7fsgah4713+x/kz4q8Zbv+Ef17T/uf8TK0/wCEr8F+dev5U8H/AAjx8h5vsFl5vwBRRRRRRRRRRRRRRRRRRRRRRRRRRRRRWh4T0bTvEfirTPD2seLNP0C0v9Qht7rXdWjuHtdOjdwrXMy2sU07RRgl2EUUkhVTsR2wp+z/ANv/APbH+BMvwTuvg1+xv8ePEHiDT/ir/wAIxL8Q7SfRrrTE0rw94U0z+xvCOg3TM6LqGpC0DX2rSJE1g18LL7C2y2Z5PiCiiiiiiiiiiiiiiiiiiiiiiiiiiiiiiiiiiiiiiiiiiiiiiiiiiiiiiiiiiiiiiiiiiiiiiiiiiiiiv//Z;" vertex="1" parent="1">
          <mxGeometry x="-343.5" y="350" width="100" height="125" as="geometry" />
        </mxCell>
        <mxCell id="QZQTw5gR4J6DBzHuBtWQ-5" value="&lt;font style=&quot;font-size: 16px;&quot;&gt;canny image&lt;/font&gt;" style="text;strokeColor=none;align=center;fillColor=none;html=1;verticalAlign=middle;whiteSpace=wrap;rounded=0;" vertex="1" parent="1">
          <mxGeometry x="-343.5" y="480" width="93" height="30" as="geometry" />
        </mxCell>
        <mxCell id="QZQTw5gR4J6DBzHuBtWQ-8" value="" style="rounded=0;whiteSpace=wrap;html=1;rotation=90;fillColor=#dae8fc;strokeColor=#6c8ebf;" vertex="1" parent="1">
          <mxGeometry x="-172.76" y="396.5" width="120" height="50" as="geometry" />
        </mxCell>
        <mxCell id="QZQTw5gR4J6DBzHuBtWQ-9" value="" style="rounded=0;whiteSpace=wrap;html=1;rotation=90;fillColor=#fff2cc;strokeColor=#d6b656;" vertex="1" parent="1">
          <mxGeometry x="-172.76" y="232.5" width="120" height="50" as="geometry" />
        </mxCell>
        <mxCell id="QZQTw5gR4J6DBzHuBtWQ-10" value="" style="endArrow=classic;html=1;rounded=0;exitX=1;exitY=0.5;exitDx=0;exitDy=0;entryX=0;entryY=0.5;entryDx=0;entryDy=0;" edge="1" parent="1" source="QZQTw5gR4J6DBzHuBtWQ-2" target="QZQTw5gR4J6DBzHuBtWQ-1">
          <mxGeometry width="50" height="50" relative="1" as="geometry">
            <mxPoint x="-350" y="550" as="sourcePoint" />
            <mxPoint x="-300" y="500" as="targetPoint" />
          </mxGeometry>
        </mxCell>
        <mxCell id="QZQTw5gR4J6DBzHuBtWQ-11" value="" style="endArrow=classic;html=1;rounded=0;exitX=0.99;exitY=0.605;exitDx=0;exitDy=0;exitPerimeter=0;entryX=0;entryY=0.5;entryDx=0;entryDy=0;" edge="1" parent="1" source="QZQTw5gR4J6DBzHuBtWQ-2" target="QZQTw5gR4J6DBzHuBtWQ-4">
          <mxGeometry width="50" height="50" relative="1" as="geometry">
            <mxPoint x="-450" y="620" as="sourcePoint" />
            <mxPoint x="-400" y="570" as="targetPoint" />
          </mxGeometry>
        </mxCell>
        <mxCell id="QZQTw5gR4J6DBzHuBtWQ-13" value="" style="endArrow=classic;html=1;rounded=0;exitX=1;exitY=0.5;exitDx=0;exitDy=0;entryX=0.5;entryY=1;entryDx=0;entryDy=0;" edge="1" parent="1" source="QZQTw5gR4J6DBzHuBtWQ-1" target="QZQTw5gR4J6DBzHuBtWQ-9">
          <mxGeometry width="50" height="50" relative="1" as="geometry">
            <mxPoint x="-200" y="640" as="sourcePoint" />
            <mxPoint x="-150" y="590" as="targetPoint" />
          </mxGeometry>
        </mxCell>
        <mxCell id="QZQTw5gR4J6DBzHuBtWQ-14" value="" style="endArrow=classic;html=1;rounded=0;exitX=1;exitY=0.5;exitDx=0;exitDy=0;" edge="1" parent="1" source="QZQTw5gR4J6DBzHuBtWQ-4">
          <mxGeometry width="50" height="50" relative="1" as="geometry">
            <mxPoint x="-160" y="600" as="sourcePoint" />
            <mxPoint x="-140" y="412" as="targetPoint" />
          </mxGeometry>
        </mxCell>
        <mxCell id="sbtfXTjn3Sah2cUlEJGa-10" value="&lt;font style=&quot;font-size: 18px;&quot;&gt;model1&lt;/font&gt;" style="text;strokeColor=none;align=center;fillColor=none;html=1;verticalAlign=middle;whiteSpace=wrap;rounded=0;" parent="1" vertex="1">
          <mxGeometry x="-157.76" y="145" width="90" height="70" as="geometry" />
        </mxCell>
        <mxCell id="QZQTw5gR4J6DBzHuBtWQ-15" value="&lt;font style=&quot;font-size: 18px;&quot;&gt;model2&lt;/font&gt;" style="text;strokeColor=none;align=center;fillColor=none;html=1;verticalAlign=middle;whiteSpace=wrap;rounded=0;" vertex="1" parent="1">
          <mxGeometry x="-157.76" y="460" width="90" height="70" as="geometry" />
        </mxCell>
        <mxCell id="QZQTw5gR4J6DBzHuBtWQ-17" value="" style="endArrow=classic;html=1;rounded=0;exitX=0.5;exitY=0;exitDx=0;exitDy=0;entryX=0;entryY=0.5;entryDx=0;entryDy=0;" edge="1" parent="1" source="QZQTw5gR4J6DBzHuBtWQ-9" target="8FrGyr1hVULWBLC01PGw-3">
          <mxGeometry width="50" height="50" relative="1" as="geometry">
            <mxPoint x="120" y="270" as="sourcePoint" />
            <mxPoint x="110" y="260" as="targetPoint" />
            <Array as="points">
              <mxPoint x="100" y="260" />
              <mxPoint x="100" y="336" />
              <mxPoint x="150" y="336" />
            </Array>
          </mxGeometry>
        </mxCell>
        <mxCell id="QZQTw5gR4J6DBzHuBtWQ-19" value="" style="endArrow=none;html=1;rounded=0;exitX=0.5;exitY=0;exitDx=0;exitDy=0;" edge="1" parent="1" source="QZQTw5gR4J6DBzHuBtWQ-20">
          <mxGeometry width="50" height="50" relative="1" as="geometry">
            <mxPoint y="440" as="sourcePoint" />
            <mxPoint x="100" y="340" as="targetPoint" />
            <Array as="points" />
          </mxGeometry>
        </mxCell>
        <mxCell id="QZQTw5gR4J6DBzHuBtWQ-21" value="" style="endArrow=none;html=1;rounded=0;exitX=0.5;exitY=0;exitDx=0;exitDy=0;" edge="1" parent="1" source="QZQTw5gR4J6DBzHuBtWQ-8">
          <mxGeometry width="50" height="50" relative="1" as="geometry">
            <mxPoint x="-88" y="422" as="sourcePoint" />
            <mxPoint x="100" y="320" as="targetPoint" />
            <Array as="points">
              <mxPoint x="100" y="422" />
            </Array>
          </mxGeometry>
        </mxCell>
        <mxCell id="QZQTw5gR4J6DBzHuBtWQ-24" value="&lt;font style=&quot;font-size: 18px;&quot;&gt;concat&lt;/font&gt;" style="text;strokeColor=none;align=center;fillColor=none;html=1;verticalAlign=middle;whiteSpace=wrap;rounded=0;" vertex="1" parent="1">
          <mxGeometry x="57.5" y="345.85" width="85" height="36.5" as="geometry" />
        </mxCell>
        <mxCell id="QZQTw5gR4J6DBzHuBtWQ-25" value="" style="endArrow=none;html=1;rounded=0;exitX=0;exitY=0.5;exitDx=0;exitDy=0;" edge="1" parent="1" source="QZQTw5gR4J6DBzHuBtWQ-20">
          <mxGeometry width="50" height="50" relative="1" as="geometry">
            <mxPoint x="140" y="570" as="sourcePoint" />
            <mxPoint x="160" y="336" as="targetPoint" />
          </mxGeometry>
        </mxCell>
        <mxCell id="QZQTw5gR4J6DBzHuBtWQ-26" value="&lt;font style=&quot;font-size: 18px;&quot;&gt;control net input&lt;/font&gt;" style="text;strokeColor=none;align=center;fillColor=none;html=1;verticalAlign=middle;whiteSpace=wrap;rounded=0;" vertex="1" parent="1">
          <mxGeometry x="230" y="396.5" width="90" height="70" as="geometry" />
        </mxCell>
      </root>
    </mxGraphModel>
  </diagram>
</mxfile>
